{"glyphs":{"0":{"ha":844,"x_min":51,"x_max":844,"o":"m 481 921 q 307 514 357 782 q 282 192 269 313 q 417 88 319 122 q 592 508 539 207 q 607 842 631 713 q 481 921 569 901 m 374 -3 q 150 125 239 -3 q 89 510 51 265 q 233 883 128 740 q 485 1024 339 1025 q 748 876 651 1022 q 813 518 844 731 q 658 135 774 274 q 374 -3 542 -3 z "},"1":{"ha":508,"x_min":93,"x_max":524,"o":"m 438 744 l 329 249 l 310 -1 q 93 35 186 -21 l 251 744 l 296 839 l 275 850 l 192 736 q 96 772 126 722 l 242 1033 q 398 1038 317 1053 q 524 975 479 1024 l 438 744 z "},"2":{"ha":731,"x_min":6,"x_max":708,"o":"m 408 899 q 264 808 329 899 l 307 714 q 269 683 297 697 q 221 664 242 668 q 88 822 136 736 q 230 990 140 925 q 418 1054 319 1054 q 613 926 517 1054 q 708 672 708 797 q 510 383 708 547 l 214 138 l 225 128 l 649 174 q 596 -19 694 107 l 229 24 l 104 -3 q 34 67 63 22 q 8 161 6 111 l 399 513 q 557 715 503 607 q 499 848 538 797 q 408 899 460 899 z "},"3":{"ha":769,"x_min":26,"x_max":746,"o":"m 72 822 q 221 990 129 926 q 421 1054 313 1054 q 638 956 529 1054 q 744 753 746 858 q 713 669 743 704 q 610 600 682 633 l 474 538 q 731 301 744 443 q 538 101 721 183 q 82 -3 354 19 q 38 57 50 19 q 36 125 26 94 q 354 205 238 163 q 550 313 471 247 q 293 471 504 401 l 308 542 l 567 724 q 501 838 553 793 q 396 883 450 883 q 247 810 313 883 l 290 714 q 253 683 281 697 q 204 664 225 668 q 72 822 118 738 z "},"4":{"ha":847,"x_min":21,"x_max":840,"o":"m 617 1040 q 835 943 763 1040 l 750 732 l 672 371 l 826 376 q 833 308 840 346 q 803 246 826 269 l 649 253 l 629 -1 q 517 -6 582 -15 q 411 36 453 3 l 464 261 l 421 263 l 75 247 q 21 356 21 285 l 524 1031 q 617 1040 572 1040 m 347 357 l 488 363 l 528 536 l 640 917 l 624 924 l 471 703 l 239 358 l 347 357 z "},"5":{"ha":765,"x_min":35,"x_max":797,"o":"m 563 126 q 502 61 563 126 q 307 -4 442 -4 q 40 58 172 -4 q 56 188 35 136 q 114 253 76 239 l 383 131 q 540 375 508 221 q 489 444 524 418 q 382 486 454 469 l 244 517 q 157 572 179 535 q 144 681 135 608 l 182 878 q 214 979 193 949 q 275 1025 235 1010 l 390 993 l 711 1051 q 722 860 797 950 l 389 892 l 279 635 l 429 621 q 633 552 571 606 q 690 397 694 499 q 563 126 683 257 z "},"6":{"ha":835,"x_min":53,"x_max":808,"o":"m 253 258 q 413 569 317 460 q 611 679 510 679 q 760 614 713 679 q 789 424 808 549 q 713 229 775 328 q 563 64 651 131 q 400 -4 475 -3 q 263 22 325 -6 q 150 105 201 50 q 76 258 99 160 q 71 479 53 356 q 300 899 111 753 q 779 1038 489 1044 q 803 970 806 1015 q 771 876 800 925 q 433 839 569 893 q 310 649 351 742 q 249 404 268 556 q 253 258 239 319 m 589 374 q 532 536 621 528 q 395 386 461 490 q 294 171 329 282 q 399 126 335 124 q 511 213 449 129 q 589 374 574 296 z "},"7":{"ha":721,"x_min":86,"x_max":776,"o":"m 674 1028 q 767 933 751 996 q 750 856 776 899 l 263 3 q 168 -6 218 -15 q 92 35 118 4 l 438 688 l 567 861 l 557 874 l 110 854 q 101 942 86 886 q 164 1044 117 997 l 560 994 l 674 1028 z "},"8":{"ha":814,"x_min":54,"x_max":825,"o":"m 825 817 q 768 701 825 754 q 576 568 711 647 q 706 454 660 513 q 749 313 751 396 q 681 151 747 229 q 519 31 614 72 q 338 -6 425 -10 q 133 63 213 -3 q 60 213 54 129 q 126 358 65 297 q 336 508 186 418 q 193 628 243 574 q 146 749 143 683 q 286 965 151 874 q 571 1053 421 1056 q 744 974 667 1049 q 825 817 822 899 m 463 119 q 572 271 535 172 q 528 359 568 317 q 418 453 489 401 q 249 261 313 360 q 463 119 265 106 m 496 621 q 649 754 571 674 q 515 932 639 890 q 415 869 465 911 q 340 778 365 826 q 388 701 350 736 q 496 621 426 665 z "},"9":{"ha":839,"x_min":65,"x_max":829,"o":"m 83 621 q 233 917 107 783 q 499 1051 358 1051 q 735 917 640 1051 q 799 555 829 782 q 629 185 769 328 q 221 -17 489 43 q 163 51 186 4 q 154 135 140 97 q 486 240 358 163 q 621 618 600 392 q 614 774 631 703 q 454 472 550 578 q 263 365 358 365 q 116 435 167 365 q 83 621 65 504 m 340 507 q 473 651 410 551 q 574 864 536 751 q 485 917 538 907 q 363 824 429 908 q 281 653 296 739 q 280 556 268 600 q 340 507 292 513 z "},"\u0000":{"ha":0,"x_min":0,"x_max":0,"o":""},"\r":{"ha":606,"x_min":0,"x_max":0,"o":""}," ":{"ha":606,"x_min":0,"x_max":0,"o":""},"!":{"ha":513,"x_min":49,"x_max":542,"o":"m 308 96 q 224 22 272 50 q 138 -7 176 -7 q 76 17 100 -7 q 49 79 51 42 q 104 181 61 133 q 197 233 147 228 q 267 190 232 233 q 308 96 301 146 m 393 826 l 288 346 q 160 350 243 285 l 224 683 l 293 1256 q 433 1267 364 1279 q 542 1207 501 1254 l 393 826 z "},"\"":{"ha":515,"x_min":164,"x_max":606,"o":"m 397 938 l 458 1256 q 606 1256 553 1288 l 589 1139 l 492 919 q 397 938 432 913 m 164 938 l 228 1256 q 376 1256 322 1286 l 357 1139 l 268 919 q 164 938 204 913 z "},"#":{"ha":1099,"x_min":44,"x_max":1143,"o":"m 1092 767 l 903 764 l 821 415 l 1017 428 q 1004 321 1058 400 l 806 318 l 765 -37 q 663 -44 725 -53 q 564 -1 601 -35 l 635 315 l 414 313 l 374 -37 q 273 -44 335 -53 q 174 -1 211 -35 l 244 310 l 75 307 q 83 408 44 342 l 265 404 l 313 611 l 339 756 l 149 753 q 153 854 115 786 l 357 850 l 424 1206 q 644 1174 567 1240 l 532 846 l 633 843 l 747 850 l 815 1206 q 932 1214 867 1221 q 1035 1174 997 1207 l 926 861 l 1104 872 q 1092 767 1143 844 m 703 619 l 731 761 l 511 758 l 428 400 l 547 397 l 654 404 l 703 619 z "},"$":{"ha":882,"x_min":25,"x_max":850,"o":"m 561 883 l 515 611 q 648 533 599 564 q 755 449 697 503 q 832 342 813 394 q 703 124 813 211 q 413 6 593 36 l 381 -181 q 276 -129 310 -197 l 324 15 q 136 117 219 50 q 25 253 53 183 q 110 349 64 321 q 232 353 157 376 q 279 230 250 279 q 361 131 308 181 l 375 171 l 426 451 q 151 658 214 563 q 114 756 122 704 q 283 949 167 871 q 536 1043 399 1026 l 565 1206 q 665 1164 635 1228 l 615 1029 q 850 835 776 974 q 658 742 824 714 q 572 915 632 851 l 561 883 m 461 642 l 515 932 q 378 857 440 906 q 317 776 315 808 q 354 713 318 743 q 461 642 390 683 m 618 310 q 585 360 618 335 q 483 422 551 386 l 431 117 q 566 196 514 144 q 618 310 618 247 z "},"%":{"ha":1110,"x_min":85,"x_max":1072,"o":"m 553 540 l 839 1179 q 928 1178 897 1188 q 978 1136 960 1168 l 276 -118 q 153 -65 172 -128 l 553 540 m 863 493 q 785 305 808 426 q 765 117 761 183 q 825 63 781 81 q 908 281 879 125 q 919 453 926 390 q 863 493 903 486 m 800 -12 q 667 67 721 -12 q 636 281 614 147 q 719 496 658 414 q 869 577 779 578 q 1016 492 960 576 q 1052 278 1072 408 q 965 67 1032 147 q 800 -12 897 -12 m 333 951 q 251 742 278 883 q 235 575 232 646 q 294 521 253 538 q 372 715 347 581 q 389 911 397 849 q 333 951 372 944 m 271 444 q 138 524 192 444 q 106 738 85 604 q 189 954 128 872 q 340 1035 250 1036 q 487 951 431 1035 q 523 736 543 867 q 435 525 503 606 q 271 444 368 444 z "},"&":{"ha":928,"x_min":113,"x_max":867,"o":"m 406 -1 q 538 -15 501 25 l 539 -240 q 424 -282 469 -279 q 338 -250 379 -285 l 406 -1 m 668 1025 q 535 1040 571 1001 l 533 1265 q 649 1307 604 1304 q 736 1275 694 1310 l 668 1025 m 621 949 q 842 851 744 949 q 830 767 857 797 q 718 718 803 738 l 631 840 q 477 797 540 833 q 356 694 414 760 q 503 588 393 622 q 618 617 571 596 q 656 486 692 590 q 317 328 419 451 q 465 194 342 242 q 743 371 633 256 q 836 343 806 383 q 849 240 867 303 q 665 140 753 176 q 444 82 578 104 q 113 308 174 138 q 383 532 196 486 q 224 588 290 543 q 144 693 158 632 q 342 880 213 811 q 621 949 471 949 z "},"'":{"ha":278,"x_min":158,"x_max":371,"o":"m 158 938 l 222 1256 q 371 1256 314 1286 l 351 1139 l 261 919 q 158 938 199 913 z "},"(":{"ha":779,"x_min":231,"x_max":833,"o":"m 639 1025 q 514 783 563 922 q 450 483 465 644 q 472 191 435 321 q 607 -62 508 61 q 492 -110 568 -124 q 302 169 374 7 q 247 524 231 332 q 399 942 268 757 q 735 1244 529 1128 q 803 1225 776 1247 q 833 1167 829 1203 l 639 1025 z "},")":{"ha":779,"x_min":13,"x_max":615,"o":"m 111 -112 q 43 -93 69 -115 q 13 -35 17 -71 l 207 107 q 332 349 283 210 q 393 624 381 489 q 375 941 413 811 q 239 1194 338 1071 q 354 1244 276 1254 q 544 963 474 1126 q 599 608 615 800 q 447 190 578 376 q 111 -112 317 4 z "},"*":{"ha":535,"x_min":163,"x_max":622,"o":"m 446 1108 l 610 1133 q 599 1040 622 1088 l 443 1065 l 563 969 q 489 904 539 924 l 407 1035 l 414 875 q 322 875 371 860 l 365 1036 l 254 904 q 196 969 214 925 l 336 1065 l 174 1040 q 185 1133 163 1088 l 343 1108 l 222 1204 q 294 1269 249 1250 l 376 1139 l 369 1299 q 463 1299 418 1311 l 418 1138 l 529 1269 q 588 1204 571 1247 l 446 1108 z "},"+":{"ha":994,"x_min":117,"x_max":914,"o":"m 567 517 l 896 531 q 907 485 914 521 q 871 414 900 449 l 547 415 l 482 79 q 434 77 464 67 q 378 117 404 88 l 446 415 l 132 414 q 122 463 117 432 q 151 525 126 494 l 464 514 l 513 850 q 560 853 526 867 q 622 804 594 840 l 567 517 z "},",":{"ha":357,"x_min":-76,"x_max":247,"o":"m 247 72 q 157 -92 225 -12 q -7 -225 89 -171 q -76 -174 -64 -214 l 33 -56 l 36 160 q 136 181 92 190 q 210 141 181 171 q 247 72 239 111 z "},"-":{"ha":747,"x_min":76,"x_max":703,"o":"m 683 531 q 697 484 703 519 q 661 414 690 449 l 92 401 q 82 449 76 418 q 110 513 88 481 l 374 506 l 683 531 z "},".":{"ha":375,"x_min":10,"x_max":257,"o":"m 257 100 q 181 28 225 56 q 98 0 136 0 q 36 23 60 0 q 10 82 13 46 q 58 181 18 136 q 147 232 99 226 q 215 190 181 232 q 257 100 250 147 z "},"/":{"ha":724,"x_min":-15,"x_max":810,"o":"m 385 540 l 671 1179 q 760 1178 729 1188 q 810 1136 792 1168 l 108 -118 q -15 -65 4 -128 l 385 540 z "},":":{"ha":389,"x_min":22,"x_max":350,"o":"m 350 589 q 274 517 318 544 q 192 489 229 489 q 130 512 154 489 q 101 571 106 535 q 152 669 111 624 q 240 721 193 715 q 310 678 275 721 q 350 589 344 635 m 271 100 q 195 28 240 56 q 113 0 150 0 q 51 23 75 0 q 22 82 28 46 q 74 181 33 136 q 161 232 114 226 q 231 189 196 232 q 271 100 265 146 z "},";":{"ha":383,"x_min":-61,"x_max":350,"o":"m 263 72 q 173 -92 242 -12 q 8 -225 104 -171 q -61 -174 -51 -214 l 49 -56 l 51 160 q 151 181 107 190 q 225 141 196 171 q 263 72 254 111 m 350 589 q 274 517 318 544 q 192 489 229 489 q 130 512 154 489 q 101 571 106 535 q 152 669 111 624 q 240 721 193 715 q 310 678 275 721 q 350 589 344 635 z "},"<":{"ha":833,"x_min":85,"x_max":792,"o":"m 517 606 l 253 486 l 714 238 q 649 138 718 168 l 378 300 l 99 444 q 115 542 85 494 l 750 829 q 784 777 776 814 q 772 700 792 740 l 517 606 z "},"=":{"ha":914,"x_min":64,"x_max":885,"o":"m 822 413 q 835 367 840 403 q 800 296 829 331 l 79 283 q 69 331 64 300 q 96 394 74 363 l 460 388 l 822 413 m 867 674 q 879 628 885 664 q 846 557 874 592 l 125 544 q 115 593 110 561 q 142 656 119 625 l 506 649 l 867 674 z "},">":{"ha":833,"x_min":78,"x_max":785,"o":"m 156 729 q 221 829 151 796 l 771 522 q 754 425 785 475 l 424 282 l 119 138 q 85 189 93 151 q 96 267 78 226 l 618 479 l 378 621 l 156 729 z "},"?":{"ha":996,"x_min":207,"x_max":1006,"o":"m 465 96 q 383 22 431 50 q 296 -7 335 -7 q 233 17 257 -7 q 207 79 210 42 q 263 181 219 133 q 356 233 306 228 q 426 189 390 233 q 465 96 461 144 m 328 801 q 260 886 286 801 q 253 1060 233 971 q 753 1232 531 1232 q 941 1131 876 1232 q 965 903 1006 1031 q 436 540 889 651 l 393 294 q 333 288 358 282 q 304 314 307 293 l 272 568 q 383 692 311 651 q 677 792 549 718 q 835 954 806 867 q 807 1076 857 1029 q 378 931 589 1068 l 386 817 q 328 801 349 801 z "},"@":{"ha":1485,"x_min":42,"x_max":1467,"o":"m 899 233 l 692 19 q 476 96 549 25 q 404 279 404 167 q 534 606 401 453 q 851 764 667 760 q 981 622 922 724 q 1004 763 979 714 q 1148 763 1100 775 q 1218 704 1196 750 l 1099 483 q 1047 136 1083 404 q 1356 515 1299 296 q 1234 831 1338 722 q 918 994 1131 939 q 570 878 732 976 q 313 633 408 781 q 218 329 218 486 q 335 -3 218 129 q 660 -185 451 -136 q 910 -32 821 -125 q 992 -60 969 -35 q 1011 -135 1014 -85 q 668 -282 892 -232 q 219 -75 397 -242 q 42 332 42 92 q 118 625 42 483 q 317 867 194 767 q 597 1029 439 968 q 914 1090 756 1090 q 1303 927 1139 1090 q 1467 542 1467 764 q 1333 244 1467 390 q 1013 29 1199 97 q 914 224 871 96 l 899 233 m 840 646 q 674 501 735 599 q 614 297 614 403 q 679 153 614 192 q 917 357 860 308 l 953 519 q 840 646 911 600 z "},"A":{"ha":931,"x_min":0,"x_max":954,"o":"m 758 496 l 908 524 q 901 406 954 486 l 767 397 l 800 17 q 678 2 754 -7 q 558 47 603 11 l 586 385 l 403 374 l 358 368 l 217 17 q 90 3 158 -7 q 0 50 21 14 l 154 344 l 57 333 q 64 453 10 386 l 214 457 l 317 653 l 433 985 q 561 1024 493 1014 q 761 1007 683 1040 l 735 771 l 758 496 m 396 461 l 592 465 l 578 874 l 561 869 l 396 461 z "},"B":{"ha":915,"x_min":89,"x_max":885,"o":"m 167 996 q 481 1031 292 1031 q 778 958 671 1031 q 884 788 885 886 q 835 633 883 690 q 679 526 788 576 l 678 517 q 824 453 764 499 q 861 336 861 403 q 726 58 858 188 q 505 7 608 19 q 256 0 401 -6 q 140 48 188 14 q 89 133 93 82 q 231 649 189 436 l 243 906 l 185 900 q 153 948 157 919 q 167 996 149 976 m 653 331 q 632 415 653 372 q 519 464 579 451 q 361 467 458 476 l 292 108 q 581 143 447 100 q 653 331 653 231 m 676 750 q 618 881 682 831 q 429 915 554 931 l 374 553 q 593 589 506 551 q 656 660 639 631 q 676 750 674 690 z "},"C":{"ha":894,"x_min":65,"x_max":878,"o":"m 574 926 q 354 728 440 860 q 268 467 268 596 q 319 263 268 338 q 478 139 369 188 q 744 300 638 200 q 809 281 788 306 q 828 217 831 257 q 676 97 774 156 q 472 0 578 38 q 165 158 265 42 q 65 449 65 274 q 176 786 67 600 q 392 956 278 889 q 654 1047 506 1024 q 813 933 757 1010 q 878 761 868 856 q 788 703 847 719 q 664 713 728 688 q 599 932 653 869 l 574 926 z "},"D":{"ha":965,"x_min":64,"x_max":954,"o":"m 485 1032 q 832 906 710 1032 q 954 578 954 781 q 874 290 954 422 q 647 67 794 158 q 221 0 442 -1 q 64 129 88 36 q 224 664 181 446 l 228 878 l 172 868 q 133 931 138 896 q 149 986 128 965 q 485 1032 290 1032 m 339 472 l 292 117 q 532 151 431 121 q 749 558 749 314 q 674 808 747 715 q 450 899 601 900 q 339 472 365 569 z "},"E":{"ha":831,"x_min":75,"x_max":888,"o":"m 671 899 q 453 897 542 910 l 411 768 l 372 558 q 683 592 442 567 q 703 524 707 564 q 675 443 700 483 q 358 457 469 460 l 283 128 q 699 203 514 160 q 740 161 731 192 q 708 38 758 104 l 235 0 q 75 132 81 39 q 239 683 189 442 l 246 892 q 165 915 219 906 q 172 1006 142 975 q 854 1019 493 1033 q 866 906 888 965 q 781 810 844 847 l 671 899 z "},"F":{"ha":815,"x_min":88,"x_max":888,"o":"m 374 529 l 685 564 q 703 499 706 544 q 674 414 701 454 q 357 429 504 433 q 321 21 332 224 q 200 4 282 -7 q 88 56 118 15 q 247 704 188 360 l 246 893 q 165 915 211 910 q 172 1006 140 976 q 854 1019 507 1035 q 866 907 888 967 q 781 810 844 847 l 671 900 q 453 899 547 911 l 411 768 l 374 529 z "},"G":{"ha":949,"x_min":69,"x_max":918,"o":"m 69 439 q 101 611 69 521 q 178 767 133 701 q 382 943 258 868 q 646 1042 506 1018 q 827 942 769 1008 q 908 779 885 875 q 821 704 879 725 q 700 715 763 683 q 676 840 692 793 q 621 931 661 888 l 600 929 q 367 731 460 861 q 272 466 274 601 q 317 261 269 331 q 472 131 365 192 q 718 415 633 260 l 713 422 l 513 386 q 474 460 478 415 q 504 533 469 504 q 857 528 696 507 q 864 236 918 431 q 790 8 842 153 q 712 6 751 -4 q 656 44 672 15 q 765 321 739 211 l 756 326 q 485 0 665 133 q 69 439 69 83 z "},"H":{"ha":1046,"x_min":44,"x_max":1067,"o":"m 242 986 q 386 1032 325 1032 q 485 1014 447 1032 l 368 593 l 364 557 l 517 557 l 739 590 q 763 719 740 596 l 772 986 q 917 1032 856 1032 q 1015 1014 979 1032 l 904 614 l 1014 631 q 1008 506 1067 597 l 889 497 q 844 19 860 207 q 713 4 793 -8 q 611 58 632 17 q 719 485 681 294 l 354 457 q 333 227 347 383 q 313 19 318 71 q 181 4 261 -8 q 79 58 101 17 q 178 439 133 239 l 89 429 q 99 556 44 486 l 201 556 q 231 719 217 638 l 242 986 z "},"I":{"ha":393,"x_min":25,"x_max":429,"o":"m 186 986 q 331 1032 269 1032 q 429 1014 393 1032 l 313 593 q 289 344 308 543 q 258 19 269 144 q 126 4 207 -8 q 25 58 46 17 q 176 719 117 369 l 186 986 z "},"J":{"ha":868,"x_min":31,"x_max":997,"o":"m 472 899 l 206 868 q 182 1006 147 938 q 951 1014 597 1033 q 925 874 997 963 l 667 907 l 588 574 q 551 108 556 188 q 260 6 464 -18 q 116 118 175 50 q 31 267 57 186 q 126 341 74 322 q 228 333 179 360 q 325 119 246 211 l 350 129 q 467 722 439 519 l 472 899 z "},"K":{"ha":917,"x_min":42,"x_max":919,"o":"m 204 994 q 351 1039 292 1039 q 447 1021 411 1039 l 329 593 l 326 567 l 508 688 l 768 1039 q 919 901 919 1021 q 696 715 836 822 q 429 532 556 608 q 818 179 540 256 q 813 75 844 129 q 703 0 782 21 q 481 201 571 69 q 356 493 392 332 l 318 469 q 275 19 275 22 q 143 4 224 -8 q 42 58 63 17 q 193 719 138 385 l 204 994 z "},"L":{"ha":732,"x_min":31,"x_max":688,"o":"m 201 986 q 444 1014 346 1064 l 319 556 l 244 128 q 631 206 421 154 q 669 164 661 193 q 646 51 688 107 l 189 0 q 31 129 49 42 q 193 717 124 375 l 201 986 z "},"M":{"ha":1117,"x_min":17,"x_max":1157,"o":"m 942 1003 q 1069 1032 1011 1032 q 1157 1001 1126 1032 l 1043 589 q 1019 338 1039 535 q 990 19 1000 140 q 858 4 938 -8 q 757 58 779 17 q 894 653 846 365 l 900 708 l 640 282 q 457 315 535 246 q 336 718 375 497 l 306 593 q 280 331 300 525 q 250 19 260 136 q 118 4 199 -8 q 17 58 38 17 q 169 718 111 374 l 185 993 q 313 1031 246 1031 q 426 996 381 1031 q 514 503 443 740 l 582 393 l 786 690 l 942 1003 z "},"N":{"ha":988,"x_min":11,"x_max":1038,"o":"m 794 986 q 940 1031 879 1031 q 1038 1014 1000 1031 l 919 593 q 892 334 914 529 q 860 19 871 139 q 735 3 801 -6 q 628 46 669 13 q 363 825 458 393 l 303 593 q 274 309 296 504 q 244 19 253 114 q 112 4 192 -8 q 11 58 32 17 q 167 715 113 399 l 181 986 q 346 1032 268 1032 q 428 1010 388 1032 q 613 356 519 643 l 682 224 q 783 714 769 631 l 794 986 z "},"O":{"ha":925,"x_min":65,"x_max":913,"o":"m 264 451 q 306 256 264 349 q 421 107 347 164 q 725 510 647 249 q 676 750 710 649 q 569 935 642 851 q 349 722 435 857 q 264 451 264 588 m 65 431 q 139 722 65 579 q 333 953 213 864 q 581 1042 453 1042 q 727 969 650 1042 q 857 778 804 896 q 911 545 910 660 q 834 302 913 431 q 639 87 756 174 q 431 0 522 0 q 254 68 339 0 q 117 237 169 136 q 65 431 65 338 z "},"P":{"ha":865,"x_min":86,"x_max":886,"o":"m 167 1001 q 471 1039 293 1039 q 767 948 649 1039 q 886 736 886 857 q 656 413 885 531 q 353 347 513 365 q 319 21 342 221 q 197 3 279 -7 q 86 53 115 14 q 229 683 167 324 l 240 904 l 175 906 q 151 958 153 929 q 167 1001 149 986 m 444 921 l 372 597 q 360 440 368 543 q 592 514 511 469 q 667 608 639 551 q 694 738 694 665 q 628 865 693 811 q 444 921 563 919 z "},"Q":{"ha":943,"x_min":65,"x_max":913,"o":"m 422 0 q 254 68 339 0 q 117 237 169 136 q 65 431 65 338 q 139 722 65 579 q 333 953 213 864 q 581 1042 453 1042 q 727 969 650 1042 q 857 778 804 896 q 911 533 910 660 q 798 250 913 406 q 543 31 683 94 l 583 -40 l 760 -118 q 699 -223 757 -192 q 568 -239 640 -254 l 436 0 l 422 0 m 264 451 q 306 256 264 349 q 421 107 347 164 q 725 510 647 249 q 676 750 710 649 q 569 935 642 851 q 349 722 435 857 q 264 451 264 588 z "},"R":{"ha":906,"x_min":82,"x_max":872,"o":"m 165 1001 q 467 1040 289 1040 q 759 958 646 1040 q 870 766 872 876 q 811 585 868 656 q 619 446 754 515 q 464 431 546 435 q 587 271 513 326 q 803 178 661 215 q 795 74 831 125 q 685 0 760 24 q 478 180 556 68 q 381 428 401 292 l 357 428 q 315 21 342 242 q 192 3 274 -7 q 82 53 111 14 q 228 688 165 326 l 240 904 l 174 907 q 149 958 151 929 q 165 1001 147 988 m 569 550 q 650 643 625 596 q 675 758 675 690 q 617 874 675 825 q 444 924 558 924 l 369 603 q 366 557 368 588 q 363 511 364 526 q 569 550 464 517 z "},"S":{"ha":882,"x_min":25,"x_max":850,"o":"m 618 310 q 569 372 618 339 q 451 440 521 404 q 308 518 381 476 q 181 622 236 560 q 114 756 125 685 q 290 953 168 875 q 554 1046 413 1032 q 732 970 656 1025 q 850 835 808 915 q 658 742 824 714 q 546 942 628 868 q 391 867 467 921 q 317 774 315 813 q 388 687 318 735 q 546 594 458 639 q 719 481 633 550 q 832 342 806 411 q 692 116 811 206 q 378 0 574 26 q 158 100 260 26 q 25 253 56 174 q 110 349 64 321 q 232 353 157 376 q 287 217 253 271 q 390 106 321 164 q 553 184 489 128 q 618 310 618 240 z "},"T":{"ha":863,"x_min":107,"x_max":981,"o":"m 419 893 l 167 867 q 144 1004 107 936 q 935 1017 525 1033 q 915 875 981 965 l 621 903 l 544 589 q 497 19 533 438 q 365 4 444 -8 q 263 57 285 17 q 415 728 361 392 l 419 893 z "},"U":{"ha":893,"x_min":72,"x_max":938,"o":"m 414 0 q 179 81 269 0 q 72 268 89 163 q 176 994 149 690 q 322 1039 261 1039 q 419 1021 383 1039 q 276 358 288 590 q 332 173 267 240 q 539 139 397 106 q 651 358 613 232 q 721 683 690 483 l 693 994 q 840 1039 778 1039 q 938 1021 901 1039 q 899 791 931 981 q 847 493 868 601 q 701 124 799 249 q 414 0 603 0 z "},"V":{"ha":886,"x_min":139,"x_max":964,"o":"m 743 711 l 699 981 q 837 1026 765 1028 q 950 986 908 1024 q 881 694 964 842 q 743 466 839 622 q 593 214 647 310 l 514 10 q 384 5 453 -10 q 276 63 315 19 l 139 960 q 267 1025 188 1011 q 381 1007 347 1039 l 393 418 l 439 125 l 743 711 z "},"W":{"ha":1297,"x_min":139,"x_max":1378,"o":"m 1163 714 l 1115 986 q 1252 1031 1183 1033 q 1368 990 1321 1028 q 1301 699 1378 847 l 1050 217 l 986 10 q 858 5 925 -8 q 754 58 790 18 l 713 435 l 596 207 l 525 10 q 397 5 464 -10 q 288 63 329 19 l 139 964 q 221 1017 172 1000 q 313 1033 269 1035 q 381 1013 356 1031 l 399 419 l 449 136 l 685 586 l 628 889 q 729 949 672 935 q 850 938 786 964 l 851 458 l 908 125 l 1163 714 z "},"X":{"ha":958,"x_min":26,"x_max":1000,"o":"m 533 597 l 857 1038 q 963 1007 928 1043 q 1000 906 997 971 q 565 519 835 778 q 878 186 738 271 q 855 72 896 125 q 719 0 814 18 q 585 195 650 72 q 493 429 521 318 l 188 0 q 62 48 97 8 q 33 143 26 88 q 467 515 219 271 q 315 714 406 625 q 131 849 225 803 q 167 974 124 922 q 294 1036 210 1026 q 441 847 376 968 q 533 597 506 725 z "},"Y":{"ha":879,"x_min":142,"x_max":942,"o":"m 142 947 q 244 1030 183 1008 q 361 1026 306 1051 l 389 757 l 496 467 l 504 467 l 540 538 l 736 788 l 679 1003 q 942 992 850 1083 q 863 788 936 883 q 719 615 818 731 q 589 464 619 500 q 540 19 556 307 q 419 0 499 -10 q 306 49 340 10 q 397 417 357 190 q 142 947 313 624 z "},"Z":{"ha":918,"x_min":15,"x_max":946,"o":"m 218 81 l 211 75 l 222 36 q 53 3 164 -10 q 18 97 15 38 q 211 344 18 169 q 388 503 297 421 q 566 683 479 586 q 697 863 653 781 l 688 875 q 364 901 471 878 q 297 751 317 843 q 103 818 143 731 q 294 1039 158 988 q 731 963 467 994 l 764 1044 q 891 1025 847 1044 q 946 949 935 1006 q 772 693 908 853 q 258 182 551 435 l 263 171 q 649 156 624 158 q 689 278 675 207 q 888 210 854 313 q 828 100 869 149 q 707 0 788 51 q 218 81 549 49 z "},"[":{"ha":808,"x_min":138,"x_max":885,"o":"m 703 1143 l 596 1138 l 528 888 l 433 385 l 369 -11 l 639 26 q 619 -64 664 -10 l 208 -122 q 138 -36 146 -85 l 296 583 l 386 1228 l 875 1236 q 849 1133 885 1188 l 703 1143 z "},"\\":{"ha":689,"x_min":90,"x_max":613,"o":"m 90 1175 q 221 1210 129 1247 l 365 510 l 613 -128 q 485 -158 576 -189 l 90 1175 z "},"]":{"ha":833,"x_min":-1,"x_max":760,"o":"m 568 326 l 544 -62 l 31 -126 q 28 -11 -1 -76 l 324 -6 l 524 1142 l 260 1135 q 242 1233 218 1200 l 711 1218 q 760 1108 754 1175 l 568 326 z "},"^":{"ha":743,"x_min":75,"x_max":744,"o":"m 744 575 q 651 539 703 539 q 563 557 599 539 l 444 1013 l 157 539 q 102 549 125 536 q 75 583 79 561 l 404 1107 q 585 1085 514 1129 l 744 575 z "},"_":{"ha":911,"x_min":-21,"x_max":754,"o":"m 736 -65 q 749 -111 754 -75 q 714 -182 743 -147 l -6 -194 q -17 -146 -21 -176 q 11 -83 -12 -115 l 374 -90 l 736 -65 z "},"`":{"ha":376,"x_min":151,"x_max":444,"o":"m 339 1135 l 444 865 q 408 838 435 846 q 354 836 382 829 l 271 956 l 151 1068 q 235 1138 174 1121 q 339 1135 297 1156 z "},"a":{"ha":868,"x_min":43,"x_max":865,"o":"m 532 225 l 333 19 q 117 96 189 25 q 46 279 46 167 q 176 606 43 453 q 493 764 308 760 q 628 613 565 721 l 628 614 q 651 763 628 714 q 796 761 747 774 q 865 704 844 749 l 747 485 q 729 19 729 306 q 610 4 685 -7 q 489 57 536 15 l 550 207 l 532 225 m 481 646 q 315 501 375 599 q 254 297 254 403 q 321 153 254 192 q 567 364 407 226 l 597 513 q 481 646 556 600 z "},"b":{"ha":831,"x_min":58,"x_max":813,"o":"m 278 561 l 296 543 q 490 764 379 649 q 719 664 651 736 q 813 449 788 592 q 258 0 715 93 q 58 147 89 32 q 200 749 143 444 l 204 1108 q 436 1138 343 1178 l 353 793 l 331 651 l 278 561 m 256 113 q 503 242 407 149 q 621 456 600 336 q 582 561 610 524 q 497 622 554 599 q 306 435 414 556 q 256 113 289 276 z "},"c":{"ha":764,"x_min":49,"x_max":721,"o":"m 494 771 q 649 697 597 753 q 721 549 701 640 q 644 485 699 503 q 518 483 589 468 q 506 583 519 544 q 458 661 492 622 l 425 654 q 306 518 350 597 q 258 360 261 439 q 281 222 254 281 q 382 119 308 163 q 632 246 540 167 q 692 158 711 249 q 544 60 642 106 q 353 0 446 14 q 121 119 193 28 q 51 321 49 210 q 126 535 53 432 q 494 771 290 728 z "},"d":{"ha":818,"x_min":43,"x_max":892,"o":"m 661 749 l 657 1108 q 892 1138 804 1179 l 803 811 q 699 19 796 744 q 576 2 649 -7 q 469 54 503 11 l 543 206 l 528 221 q 332 19 356 44 q 118 94 193 21 q 44 280 43 167 q 104 503 46 393 q 269 688 163 614 q 500 764 376 763 q 631 615 572 739 q 661 749 646 675 m 319 153 l 567 364 l 603 513 q 485 650 547 611 q 318 503 379 603 q 254 288 257 403 q 319 153 254 192 z "},"e":{"ha":768,"x_min":43,"x_max":729,"o":"m 489 776 q 678 662 628 754 q 697 442 729 569 q 250 288 464 331 q 371 121 269 175 q 626 236 525 157 q 690 149 704 239 q 539 56 646 100 q 346 0 432 13 q 117 119 192 28 q 46 335 43 210 q 118 539 50 439 q 489 776 292 721 m 246 372 l 246 368 q 524 475 396 413 q 444 664 540 610 l 421 656 q 297 524 346 604 q 246 372 249 443 z "},"f":{"ha":642,"x_min":-8,"x_max":753,"o":"m 242 657 l 215 992 q 525 1182 343 1163 q 753 963 711 1146 q 676 899 732 918 q 560 896 621 881 q 539 998 556 961 q 483 1069 522 1035 q 392 1018 428 1057 q 379 668 397 896 l 625 715 q 624 592 675 676 l 372 579 q 301 19 343 279 q 171 4 244 -7 q 74 54 97 15 q 221 554 160 289 l 42 522 q 43 647 -8 578 l 239 646 l 242 657 z "},"g":{"ha":833,"x_min":43,"x_max":863,"o":"m 554 214 l 538 229 q 335 19 372 60 q 117 96 190 25 q 44 279 43 167 q 103 502 46 392 q 265 688 161 613 q 490 764 369 763 q 624 621 561 739 q 647 760 625 717 q 790 761 742 774 q 863 704 839 749 l 736 458 q 626 -275 697 269 q 311 -408 543 -399 q 53 -137 93 -303 q 148 -55 93 -75 q 253 -64 203 -35 q 363 -276 267 -182 q 436 -247 414 -279 q 500 92 465 -137 l 554 214 m 597 514 l 596 513 q 483 650 549 608 q 317 506 378 603 q 255 301 256 408 q 321 153 254 193 q 567 364 407 226 l 597 514 z "},"h":{"ha":851,"x_min":33,"x_max":808,"o":"m 808 578 l 749 426 q 742 19 732 229 q 626 3 694 -7 q 511 56 557 14 q 606 540 532 224 q 550 615 596 594 q 315 428 439 565 q 261 19 297 244 q 129 4 203 -7 q 33 54 56 15 q 203 749 142 364 l 206 1100 q 338 1151 282 1143 q 442 1138 393 1160 l 356 808 l 347 629 l 294 564 l 308 544 q 574 764 438 688 q 730 702 672 757 q 808 578 788 647 z "},"i":{"ha":397,"x_min":38,"x_max":394,"o":"m 157 483 l 150 728 q 371 735 297 793 l 310 522 q 271 19 294 374 q 144 4 218 -8 q 38 58 69 17 q 157 483 114 267 m 393 944 q 394 922 393 944 q 363 866 394 899 q 284 833 331 833 q 204 866 238 833 q 169 944 171 899 q 201 1021 168 989 q 281 1053 235 1053 q 360 1022 328 1053 q 393 944 392 990 z "},"j":{"ha":463,"x_min":-228,"x_max":507,"o":"m -35 -58 q 67 -276 -19 -186 l 96 -264 q 120 -70 101 -222 q 147 145 139 82 q 172 329 156 208 q 250 760 200 522 q 392 764 340 775 q 476 710 444 753 l 351 456 q 279 -303 308 150 q 174 -383 253 -357 q -10 -399 94 -410 q -151 -281 -94 -349 q -228 -143 -208 -214 q -137 -53 -190 -76 q -35 -58 -83 -31 m 507 945 q 507 923 507 945 q 474 868 507 900 q 397 836 442 836 q 319 868 353 836 q 285 945 286 900 q 316 1022 283 990 q 395 1054 349 1054 q 474 1022 442 1054 q 507 945 507 990 z "},"k":{"ha":799,"x_min":28,"x_max":775,"o":"m 282 497 l 290 482 q 672 771 479 667 q 752 709 729 763 q 736 590 775 656 q 343 422 511 533 q 713 178 457 243 q 717 84 746 139 q 617 0 688 29 q 431 136 515 51 q 293 319 347 221 q 256 21 272 138 q 124 4 199 -7 q 28 57 50 15 q 207 786 124 324 l 164 1083 q 376 1142 253 1168 q 374 936 386 1060 q 325 558 363 813 l 282 497 z "},"l":{"ha":419,"x_min":44,"x_max":444,"o":"m 206 749 l 208 1100 q 444 1136 343 1182 l 356 814 q 283 21 296 138 q 149 4 232 -8 q 44 58 67 17 q 206 749 153 397 z "},"m":{"ha":1246,"x_min":32,"x_max":1197,"o":"m 700 19 q 564 6 622 -7 q 485 50 506 18 q 596 550 536 360 q 519 619 568 600 q 311 428 431 569 q 261 19 294 243 q 129 4 203 -7 q 32 54 56 15 q 161 497 111 282 l 121 706 q 331 760 213 789 q 332 629 344 719 l 288 564 l 303 544 q 417 665 361 614 q 553 764 472 717 q 760 653 676 756 l 703 569 l 717 560 q 963 764 844 697 q 1121 699 1058 754 q 1197 576 1183 643 l 1140 411 q 1136 19 1128 246 q 1021 3 1089 -7 q 906 56 953 14 q 997 542 935 283 q 940 615 982 596 q 733 456 843 569 q 700 19 692 297 z "},"n":{"ha":850,"x_min":32,"x_max":801,"o":"m 801 578 l 744 411 q 740 19 731 228 q 624 3 693 -7 q 510 56 556 14 q 600 540 532 243 q 544 615 589 592 q 310 426 432 560 q 261 19 296 254 q 129 4 203 -7 q 32 54 56 15 q 161 497 111 282 l 121 706 q 331 765 211 783 q 332 629 344 718 l 288 564 l 301 547 q 565 764 417 683 q 722 701 661 757 q 801 578 782 646 z "},"o":{"ha":778,"x_min":39,"x_max":744,"o":"m 39 332 q 97 522 39 418 q 257 703 156 626 q 464 779 358 779 q 589 718 522 779 q 699 572 656 657 q 743 408 742 488 q 679 230 744 329 q 513 65 614 131 q 318 0 413 0 q 131 103 224 0 q 39 332 39 206 m 442 676 q 293 525 349 614 q 224 336 238 436 q 331 101 228 193 q 568 396 524 201 q 442 676 551 561 z "},"p":{"ha":835,"x_min":-28,"x_max":819,"o":"m 282 564 l 296 547 q 486 764 407 689 q 722 656 647 740 q 819 424 797 572 q 676 178 781 278 q 406 0 572 78 q 265 49 329 13 q 203 -367 235 -219 q 72 -383 142 -393 q -28 -333 1 -372 q 158 481 106 61 l 115 706 q 324 764 204 783 q 325 629 339 718 l 282 564 m 397 114 q 549 253 493 179 q 628 432 604 326 q 588 549 624 499 q 494 622 553 599 q 304 426 404 551 q 278 163 299 361 q 397 114 332 128 z "},"q":{"ha":846,"x_min":42,"x_max":856,"o":"m 606 -192 l 617 -201 q 706 -122 643 -179 q 783 -51 768 -65 q 831 -101 828 -49 q 687 -271 782 -168 q 572 -396 592 -374 q 446 -347 488 -381 q 404 -274 404 -314 q 544 225 501 38 q 351 19 401 76 q 124 91 203 21 q 44 279 46 161 q 174 606 42 453 q 485 764 306 758 q 619 625 556 739 q 642 763 618 714 q 783 762 733 775 q 856 704 833 749 l 742 485 q 606 -192 653 13 m 254 288 q 335 153 254 192 q 572 363 506 303 l 600 508 q 543 595 568 564 q 481 650 518 626 q 315 503 375 603 q 254 288 254 403 z "},"r":{"ha":676,"x_min":36,"x_max":689,"o":"m 292 564 l 307 546 q 513 764 504 756 q 639 690 590 749 q 689 540 688 631 q 590 494 643 501 q 492 511 538 486 q 467 600 493 571 q 315 446 378 511 q 265 19 300 254 q 133 4 207 -7 q 36 54 60 15 q 165 497 115 282 l 126 706 q 335 765 215 785 q 335 629 349 719 l 292 564 z "},"s":{"ha":726,"x_min":28,"x_max":665,"o":"m 471 228 q 297 344 471 264 q 169 426 232 375 q 89 532 106 476 q 226 711 125 642 q 453 789 326 781 q 665 613 615 750 q 618 550 661 569 q 499 543 575 531 q 428 700 485 636 q 316 640 367 681 q 265 573 265 600 q 320 513 265 546 q 444 448 375 479 q 577 364 513 417 q 657 254 642 311 q 528 72 628 139 q 283 0 429 6 q 122 67 192 17 q 28 183 53 118 q 97 269 57 243 q 196 276 136 294 q 228 168 207 210 q 293 83 250 126 q 421 142 371 100 q 471 228 471 185 z "},"t":{"ha":661,"x_min":35,"x_max":701,"o":"m 653 689 l 403 679 q 374 390 394 576 q 346 129 353 203 q 544 238 454 168 q 601 217 588 236 q 610 154 614 199 q 470 61 553 104 q 301 0 388 18 q 125 115 157 17 q 264 656 217 425 l 83 624 q 83 750 35 679 l 274 747 l 261 972 q 490 989 414 1060 l 422 772 l 653 815 q 653 689 701 775 z "},"u":{"ha":846,"x_min":35,"x_max":832,"o":"m 832 704 l 718 485 q 708 19 701 285 q 592 3 663 -7 q 475 56 522 14 l 540 213 l 524 226 q 325 0 467 151 q 35 172 75 31 l 122 399 q 122 504 121 453 q 118 758 124 647 q 245 763 181 776 q 347 706 310 750 q 232 213 336 553 q 329 144 246 169 q 525 360 464 272 q 615 760 572 619 q 760 758 711 771 q 832 704 810 746 z "},"v":{"ha":743,"x_min":44,"x_max":767,"o":"m 544 719 q 667 772 606 767 q 767 739 728 778 q 419 4 710 322 q 268 18 342 -7 q 164 99 194 43 q 188 326 188 243 q 164 504 189 410 l 44 649 q 251 764 97 772 q 356 143 386 571 l 369 135 q 597 554 551 347 l 544 719 z "},"w":{"ha":1142,"x_min":44,"x_max":1165,"o":"m 774 142 l 786 132 q 1000 558 950 322 l 943 721 q 1065 776 1004 769 q 1165 747 1126 783 q 842 3 1126 332 q 695 18 765 -10 q 600 103 625 46 q 638 381 638 246 l 626 386 q 399 4 554 206 q 250 19 319 -8 q 154 99 181 46 q 179 316 176 236 q 165 503 182 396 l 44 649 q 251 764 96 772 q 344 142 385 554 l 360 138 q 579 532 490 297 l 489 660 q 690 753 550 768 q 774 142 817 511 z "},"x":{"ha":803,"x_min":11,"x_max":786,"o":"m 426 458 l 642 764 q 748 733 713 769 q 786 632 783 697 q 453 378 642 553 q 693 197 536 253 q 689 81 725 142 q 568 0 653 21 q 385 297 414 117 l 163 0 q 46 50 81 8 q 24 147 11 92 q 361 382 200 242 q 111 571 269 519 q 139 697 99 644 q 250 764 179 749 q 426 458 397 661 z "},"y":{"ha":790,"x_min":18,"x_max":822,"o":"m 51 232 l 121 422 q 114 758 128 599 q 237 765 169 778 q 347 704 304 751 q 244 268 328 540 q 279 221 257 239 q 349 188 301 203 q 526 361 461 274 q 606 760 576 671 q 749 760 699 774 q 822 704 799 747 l 692 464 q 585 -293 622 85 q 263 -403 496 -410 q 99 -284 163 -356 q 18 -137 35 -212 q 115 -56 60 -76 q 217 -64 169 -36 q 326 -276 236 -193 q 400 -256 379 -281 q 465 83 428 -136 l 526 196 l 508 213 q 350 51 453 146 q 51 232 85 88 z "},"z":{"ha":818,"x_min":31,"x_max":808,"o":"m 272 496 q 153 502 194 486 q 94 563 111 518 q 274 764 146 724 q 607 686 496 699 l 638 764 q 755 749 715 767 q 808 683 794 731 q 738 547 797 621 q 586 403 678 474 q 250 172 425 275 l 253 157 q 372 150 261 156 q 542 135 483 144 q 582 247 565 181 q 753 176 735 285 q 569 0 707 54 q 214 81 446 47 l 207 75 l 219 35 q 64 0 183 -10 q 33 92 31 40 q 74 188 35 143 q 178 277 114 233 q 311 365 243 321 q 569 586 493 482 l 564 599 q 328 635 465 604 q 272 496 285 582 z "},"{":{"ha":907,"x_min":139,"x_max":851,"o":"m 603 1250 q 851 1150 722 1250 q 772 1054 851 1083 l 632 1149 l 585 1121 q 621 808 658 947 q 528 651 597 710 q 363 590 458 592 l 356 565 q 521 300 522 463 q 346 -8 515 138 l 378 -54 l 564 -17 q 607 -104 611 -50 q 351 -162 481 -156 q 221 -94 279 -144 q 139 28 163 -43 q 303 317 299 138 q 266 461 306 393 q 167 554 226 529 l 204 679 q 353 749 289 679 q 429 925 417 819 q 388 1153 442 1031 q 486 1224 428 1199 q 603 1250 544 1250 z "},"|":{"ha":406,"x_min":-21,"x_max":497,"o":"m 263 1333 q 403 1379 346 1379 q 497 1363 460 1379 l 325 622 q 204 -257 226 -32 q 76 -269 151 -283 q -21 -215 0 -256 q 89 251 29 -47 q 179 768 149 549 l 263 1333 z "},"}":{"ha":908,"x_min":103,"x_max":815,"o":"m 651 781 q 688 636 649 704 q 789 542 728 568 l 750 417 q 603 347 667 417 q 526 172 539 276 q 567 -56 513 67 q 351 -158 493 -147 q 103 -53 221 -137 q 182 42 103 17 l 322 -53 l 369 -25 q 333 288 294 147 q 427 446 357 386 q 592 507 497 506 l 599 532 q 436 796 431 635 q 611 1104 438 961 l 576 1150 l 390 1114 q 359 1151 371 1126 q 349 1201 347 1176 q 593 1260 460 1254 q 728 1199 667 1254 q 815 1069 790 1143 q 651 781 658 960 z "},"~":{"ha":903,"x_min":56,"x_max":856,"o":"m 271 603 q 469 565 396 592 q 629 483 542 539 l 638 483 l 743 589 q 822 580 789 596 q 854 536 856 564 q 756 438 808 476 q 618 369 703 400 q 282 489 410 390 l 272 485 l 179 379 q 94 392 133 374 q 60 440 56 411 q 271 603 144 543 z "}," ":{"ha":606,"x_min":0,"x_max":0,"o":""},"¡":{"ha":600,"x_min":36,"x_max":529,"o":"m 269 711 q 353 785 306 757 q 440 814 401 814 q 502 790 478 814 q 529 728 526 765 q 474 626 517 674 q 381 574 431 579 q 311 617 346 574 q 269 711 276 661 m 185 -19 l 290 461 q 418 457 335 522 l 354 124 l 285 -449 q 145 -460 214 -472 q 36 -400 76 -447 l 185 -19 z "},"¢":{"ha":769,"x_min":47,"x_max":733,"o":"m 578 888 l 529 764 q 733 557 688 722 q 657 490 708 508 q 542 483 606 471 q 483 639 531 581 l 396 124 q 638 246 550 169 q 697 158 717 249 q 558 65 649 108 q 376 4 468 21 l 344 -181 q 240 -129 274 -199 l 293 14 q 106 137 164 51 q 50 329 47 222 q 126 535 53 436 q 447 758 267 703 l 478 931 q 578 888 549 953 m 428 656 l 425 654 q 305 519 349 599 q 258 368 261 439 q 338 150 251 224 l 428 656 z "},"£":{"ha":936,"x_min":32,"x_max":888,"o":"m 360 694 l 308 901 q 438 1001 354 957 q 618 1058 521 1046 q 788 978 733 1035 q 861 839 843 922 q 783 776 839 793 q 656 774 728 758 q 644 874 657 836 q 596 950 631 911 q 488 899 526 935 q 472 536 510 735 l 735 563 q 718 463 767 540 l 456 456 q 354 157 414 289 q 643 129 499 126 l 746 215 q 774 0 888 164 q 296 63 479 10 q 167 0 257 8 q 78 75 103 32 q 128 232 32 157 l 207 201 q 307 451 267 326 l 117 447 q 128 543 90 479 l 326 526 q 360 694 347 607 z "},"¤":{"ha":1036,"x_min":60,"x_max":1040,"o":"m 486 149 q 332 215 410 149 l 197 61 q 88 106 117 67 q 86 194 60 146 l 261 294 q 207 465 207 379 q 308 708 207 578 l 126 821 q 131 908 101 869 q 243 950 161 947 l 378 782 q 632 893 501 893 q 772 821 697 893 l 900 965 q 1011 918 982 960 q 1011 831 1040 876 l 843 736 q 913 550 911 632 q 794 304 913 429 l 961 210 q 961 124 990 165 q 850 76 932 82 l 713 233 q 486 149 596 149 m 499 246 q 656 364 600 296 q 735 526 713 432 q 610 794 721 682 q 461 650 517 735 q 392 469 406 565 q 499 246 399 332 z "},"¥":{"ha":911,"x_min":104,"x_max":944,"o":"m 861 571 q 889 521 889 556 q 860 447 889 486 l 588 443 q 567 310 575 385 l 849 354 q 876 304 874 342 q 849 229 878 267 l 557 217 q 543 19 551 153 q 423 0 503 -10 q 310 49 343 10 q 354 201 335 118 l 126 163 q 106 223 104 185 q 132 289 107 261 l 376 289 q 404 413 385 329 l 399 425 l 135 390 q 114 451 113 413 q 140 517 115 489 l 363 507 q 144 947 281 692 q 247 1030 185 1008 q 364 1026 310 1051 l 392 757 l 494 458 l 503 458 l 536 528 l 739 788 l 682 1003 q 944 992 854 1085 q 865 788 939 883 q 746 644 821 731 q 647 529 671 558 l 861 571 z "},"¦":{"ha":413,"x_min":-28,"x_max":508,"o":"m 103 429 q 224 453 163 453 q 326 422 285 453 l 231 78 q 216 -72 228 47 q 199 -256 204 -190 q 73 -275 147 -286 q -28 -231 -1 -264 q 68 140 46 28 l 103 429 m 274 1356 q 405 1385 339 1385 q 508 1351 471 1385 l 403 993 q 389 851 401 964 q 371 671 376 739 q 249 652 321 646 q 146 689 176 658 q 239 1057 224 971 l 274 1356 z "},"§":{"ha":876,"x_min":-6,"x_max":849,"o":"m 660 369 q 581 451 640 414 q 472 512 526 485 q 403 547 418 539 q 301 476 347 515 q 254 411 254 436 q 317 334 261 376 q 416 269 372 292 q 544 207 460 247 q 660 369 660 283 m 544 940 q 408 881 479 926 q 338 800 338 835 q 404 723 338 765 q 555 644 471 681 q 725 547 639 607 q 840 419 811 486 q 638 153 810 242 q 694 119 674 132 q 739 81 714 106 q 775 31 764 57 q 338 -290 717 -240 q 133 -212 228 -267 q -6 -100 39 -157 q 197 38 78 79 q 252 -85 222 -39 q 351 -185 282 -131 q 502 -115 444 -162 q 561 -6 560 -68 q 515 47 561 19 q 400 106 468 75 q 262 172 332 136 q 138 263 192 208 q 72 378 83 317 q 310 596 153 533 q 189 685 232 644 q 133 781 146 726 q 560 1046 261 1018 q 849 829 757 1004 q 790 758 833 778 q 665 747 747 738 q 615 867 643 824 q 544 940 588 910 z "},"¨":{"ha":526,"x_min":121,"x_max":540,"o":"m 149 1025 q 164 1039 149 1025 q 218 1053 178 1053 q 286 1026 258 1053 q 314 959 314 999 q 286 891 314 919 q 218 863 258 863 q 149 891 178 863 q 121 958 121 919 q 149 1025 121 997 m 540 958 q 533 943 540 950 q 517 936 526 936 q 500 943 508 936 q 492 958 492 950 q 516 979 492 979 q 540 958 540 979 z "},"©":{"ha":1151,"x_min":58,"x_max":1150,"o":"m 874 663 q 809 611 854 625 q 706 608 764 597 q 654 760 707 696 l 625 754 q 522 639 560 707 q 482 503 485 571 q 502 385 479 436 q 588 299 525 335 q 799 407 721 338 q 850 332 867 410 q 724 249 807 288 q 564 199 642 210 q 367 300 428 224 q 309 471 307 376 q 372 651 311 565 q 683 851 508 817 q 874 663 842 824 m 1065 536 q 1040 672 1053 619 q 998 783 1026 725 q 928 878 969 842 q 658 1000 833 964 q 308 831 444 967 q 143 513 172 696 q 538 56 178 136 q 1065 536 979 100 m 58 514 q 253 881 100 733 q 665 1063 406 1029 q 1036 886 936 1029 q 1111 735 1088 813 q 1150 539 1135 657 q 971 179 1111 328 q 786 54 899 103 q 531 -7 674 6 q 183 166 300 26 q 58 514 65 306 z "},"ª":{"ha":647,"x_min":92,"x_max":708,"o":"m 513 931 q 531 1049 513 1014 q 708 1003 681 1063 l 617 826 q 608 457 604 664 q 510 444 575 435 q 408 489 446 453 l 453 599 l 439 610 q 311 458 357 514 q 151 519 208 461 q 93 664 94 576 q 186 925 92 803 q 413 1049 281 1047 q 513 929 465 1017 l 513 931 m 418 940 q 300 824 342 899 q 258 675 258 750 q 306 569 258 600 q 384 647 332 596 q 465 728 436 699 l 490 850 q 418 940 460 907 z "},"«":{"ha":818,"x_min":82,"x_max":796,"o":"m 710 336 q 699 232 724 281 q 633 183 675 183 l 394 483 q 411 557 394 521 l 590 692 l 742 810 q 790 750 785 793 q 758 649 796 707 l 513 492 l 596 418 l 710 336 m 381 336 q 370 232 394 281 q 304 183 346 183 l 82 483 q 99 557 82 521 l 243 671 l 401 810 q 449 750 443 793 q 418 649 456 707 l 200 492 l 283 418 l 381 336 z "},"¬":{"ha":1335,"x_min":92,"x_max":1288,"o":"m 725 568 l 1261 593 q 1274 507 1288 575 l 1217 235 q 1167 224 1197 219 q 1110 251 1138 228 l 1163 475 l 107 463 q 96 511 92 479 q 124 575 100 543 l 725 568 z "},"­":{"ha":747,"x_min":76,"x_max":703,"o":"m 683 531 q 697 484 703 519 q 661 414 690 449 l 92 401 q 82 449 76 418 q 110 513 88 481 l 374 506 l 683 531 z "},"®":{"ha":753,"x_min":125,"x_max":764,"o":"m 481 1046 q 669 975 607 1029 q 764 740 742 910 q 652 523 740 610 q 401 421 564 436 q 197 522 267 440 q 125 725 128 603 q 239 940 150 853 q 481 1046 328 1026 m 406 458 q 715 739 665 483 q 694 836 706 800 q 657 910 682 872 q 475 1008 610 981 q 272 910 351 989 q 174 724 192 831 q 406 458 194 504 m 335 917 q 449 929 382 929 q 558 899 515 929 q 601 828 601 868 q 579 761 600 788 q 507 708 558 735 q 454 703 488 706 q 499 645 472 665 q 578 613 526 625 q 575 573 589 593 q 532 543 561 553 q 418 701 433 596 l 408 700 q 393 553 400 606 q 346 546 376 542 q 306 565 315 550 q 360 799 336 667 l 364 876 l 338 879 q 328 899 329 888 q 335 917 328 911 m 486 750 q 524 814 524 779 q 440 885 524 885 l 414 768 l 411 735 q 486 750 451 739 z "},"¯":{"ha":528,"x_min":86,"x_max":615,"o":"m 596 968 q 610 931 615 958 q 575 869 604 903 l 118 856 q 135 951 86 889 l 369 944 l 596 968 z "},"°":{"ha":665,"x_min":136,"x_max":685,"o":"m 439 997 q 315 799 326 919 q 372 663 319 722 q 511 835 488 722 q 439 997 501 921 m 460 1067 q 606 991 531 1067 q 682 849 681 915 q 576 678 685 764 q 354 593 467 593 q 210 654 282 593 q 138 785 139 715 q 238 974 136 882 q 460 1067 339 1067 z "},"±":{"ha":997,"x_min":76,"x_max":939,"o":"m 592 664 l 921 681 q 933 634 939 669 q 897 564 926 599 l 572 564 l 531 338 q 481 335 511 325 q 425 375 451 346 l 471 564 l 156 564 q 175 675 125 601 l 489 664 l 519 889 q 567 891 533 904 q 629 843 601 878 l 592 664 m 853 286 q 865 240 871 275 q 829 169 858 204 l 92 167 q 81 214 76 182 q 110 276 86 246 l 483 269 l 853 286 z "},"²":{"ha":456,"x_min":60,"x_max":475,"o":"m 378 881 q 322 933 364 933 q 240 885 279 933 l 261 835 q 240 815 256 824 q 213 806 224 807 q 159 860 188 826 q 118 921 131 894 q 199 1017 147 979 q 308 1054 251 1054 q 419 979 364 1054 q 475 828 475 904 q 368 665 475 753 l 219 546 l 226 540 l 446 575 q 450 512 460 558 q 411 436 440 465 l 200 461 l 129 446 q 60 561 67 483 l 286 764 q 378 881 353 824 z "},"³":{"ha":456,"x_min":67,"x_max":488,"o":"m 290 931 q 217 896 249 931 l 239 847 q 188 817 225 826 q 100 921 129 861 q 186 1017 133 981 q 301 1054 239 1054 q 426 998 364 1054 q 488 879 488 942 q 410 792 486 828 l 342 761 q 448 705 410 736 q 482 628 486 674 q 368 509 476 560 q 106 446 260 458 q 77 487 88 460 q 72 538 67 514 q 244 585 182 561 q 347 647 306 610 q 228 718 315 690 l 231 763 l 360 854 q 290 931 346 931 z "},"´":{"ha":321,"x_min":119,"x_max":450,"o":"m 256 1129 q 381 1124 328 1143 q 450 1061 435 1106 l 197 829 q 142 841 165 829 q 119 874 119 853 l 214 1004 l 256 1129 z "},"µ":{"ha":851,"x_min":-97,"x_max":844,"o":"m 844 704 l 729 485 q 721 19 714 297 q 604 3 675 -7 q 488 56 533 14 l 553 213 l 535 226 q 336 0 454 122 q 207 29 275 4 q 88 -401 103 -346 q -25 -403 28 -425 q -97 -335 -78 -381 q 142 414 65 79 q 131 758 144 558 q 252 765 185 778 q 358 706 319 751 q 250 196 338 538 q 342 144 279 163 q 538 360 472 267 q 626 760 579 597 q 772 758 722 771 q 844 704 822 746 z "},"¶":{"ha":892,"x_min":96,"x_max":963,"o":"m 738 1014 l 761 1142 q 867 1149 807 1156 q 963 1113 928 1143 l 864 849 l 767 392 q 722 11 761 346 q 628 -2 688 -11 q 544 36 568 7 l 651 499 l 721 901 q 624 894 679 906 l 501 392 l 454 11 q 359 -2 419 -11 q 275 36 299 7 q 378 456 340 263 q 170 524 244 468 q 101 679 96 581 q 153 844 107 778 q 286 947 200 911 q 738 1014 444 1017 z "},"·":{"ha":422,"x_min":97,"x_max":344,"o":"m 344 447 q 268 375 313 403 q 185 347 224 347 q 124 370 147 347 q 97 429 100 393 q 146 528 106 483 q 235 579 186 574 q 303 537 268 579 q 344 447 338 494 z "},"¸":{"ha":499,"x_min":-94,"x_max":388,"o":"m 172 -104 q 273 -64 219 -64 q 357 -103 326 -64 q 378 -206 388 -143 q 301 -328 363 -285 q 157 -371 239 -372 q 8 -337 75 -369 q -93 -253 -58 -306 q -83 -210 -94 -228 q -57 -190 -72 -192 q 120 -275 26 -275 q 228 -210 214 -275 q 213 -149 233 -175 q 131 -186 172 -156 q 81 -173 104 -186 q 51 -137 57 -160 l 136 36 l 244 36 l 172 -104 z "},"¹":{"ha":340,"x_min":96,"x_max":404,"o":"m 354 871 l 292 586 l 282 442 q 121 464 181 428 l 208 847 l 246 921 l 226 929 l 171 860 q 128 860 153 854 q 96 879 104 867 l 185 1038 q 303 1041 228 1050 q 404 1004 379 1032 l 354 871 z "},"º":{"ha":669,"x_min":104,"x_max":692,"o":"m 449 1047 q 606 951 526 1047 q 689 768 686 854 q 576 550 692 658 q 340 442 461 442 q 183 519 260 442 q 104 688 106 597 q 209 930 104 813 q 449 1047 314 1047 m 435 967 q 275 703 290 857 q 350 525 279 604 q 529 750 497 603 q 435 967 514 858 z "},"»":{"ha":818,"x_min":65,"x_max":778,"o":"m 150 657 q 161 761 136 713 q 226 810 186 810 l 465 510 q 449 435 465 472 l 269 303 l 119 183 q 71 242 76 200 q 101 344 65 285 l 347 503 l 263 575 l 150 657 m 481 657 q 490 761 465 713 q 556 810 514 810 l 776 510 q 761 435 778 474 l 617 322 l 460 183 q 410 242 417 200 q 442 344 404 285 l 660 503 l 481 657 z "},"¼":{"ha":1103,"x_min":92,"x_max":1021,"o":"m 782 579 q 861 583 811 583 q 1011 528 969 583 l 963 408 l 922 221 l 1014 224 q 1014 173 1021 206 q 993 128 1007 140 l 904 131 l 893 -14 q 819 -17 867 -24 q 749 8 771 -11 l 778 135 l 753 136 l 551 128 q 504 192 503 164 l 782 579 m 718 213 l 797 215 l 815 294 l 874 497 l 863 500 l 665 214 l 718 213 m 492 540 l 778 1179 q 867 1178 836 1188 q 917 1136 899 1168 l 215 -118 q 92 -65 111 -128 l 492 540 m 271 929 l 215 860 q 173 860 197 854 q 140 879 149 867 l 229 1038 q 348 1041 272 1050 q 449 1004 424 1032 l 399 871 l 336 586 l 326 442 q 165 464 225 428 l 253 847 l 290 921 l 271 929 z "},"½":{"ha":1088,"x_min":92,"x_max":1011,"o":"m 492 540 l 778 1179 q 867 1178 836 1188 q 917 1136 899 1168 l 215 -118 q 92 -65 111 -128 l 492 540 m 400 871 l 338 586 l 328 442 q 167 464 226 428 l 254 847 l 292 921 l 272 929 l 217 860 q 174 860 199 854 q 142 879 150 867 l 231 1038 q 349 1041 274 1050 q 450 1004 425 1032 l 400 871 m 915 404 q 859 456 901 456 q 778 407 817 456 l 797 357 q 776 339 792 347 q 749 329 760 331 q 695 383 724 349 q 654 443 667 417 q 735 539 683 501 q 844 576 786 576 q 956 502 901 576 q 1011 351 1011 428 q 904 188 1011 275 l 756 68 l 763 63 l 982 97 q 987 34 996 81 q 949 -42 978 -12 l 738 -17 l 665 -32 q 619 17 639 -15 q 597 83 599 49 l 822 286 q 915 404 888 346 z "},"¾":{"ha":1138,"x_min":93,"x_max":1103,"o":"m 864 579 q 944 583 893 583 q 1093 528 1051 583 l 1043 408 l 1003 219 l 1096 224 q 1096 173 1103 206 q 1075 128 1089 140 l 986 131 l 975 -14 q 901 -17 949 -24 q 831 8 853 -11 l 860 135 l 836 136 l 633 128 q 586 192 585 164 l 864 579 m 801 213 l 878 215 l 896 294 l 956 497 l 946 500 l 864 385 l 749 214 l 801 213 m 572 540 l 858 1179 q 948 1178 917 1188 q 997 1136 979 1168 l 296 -118 q 172 -65 192 -128 l 572 540 m 317 931 q 243 896 275 931 l 265 847 q 214 817 251 826 q 126 921 156 861 q 213 1017 160 981 q 328 1054 265 1054 q 452 998 390 1054 q 514 879 514 942 q 436 792 513 828 l 368 761 q 474 705 436 736 q 508 628 513 674 q 394 509 503 560 q 132 446 286 458 q 103 487 114 460 q 99 538 93 514 q 270 585 208 561 q 374 647 332 610 q 254 718 342 690 l 257 763 l 386 854 q 317 931 372 931 z "},"¿":{"ha":925,"x_min":-153,"x_max":646,"o":"m 388 692 q 470 766 422 738 q 557 794 518 794 q 619 770 596 794 q 646 708 643 746 q 590 607 633 654 q 497 554 547 560 q 427 599 463 554 q 388 692 392 643 m 525 -14 q 593 -99 567 -14 q 600 -272 619 -183 q 100 -444 322 -444 q -88 -344 -24 -444 q -112 -115 -153 -243 q 417 247 -36 136 l 460 493 q 520 500 494 506 q 549 474 546 494 l 581 219 q 469 96 542 136 q 176 -5 304 69 q 18 -167 47 -79 q 46 -289 -4 -242 q 475 -143 264 -281 l 467 -29 q 525 -14 504 -14 z "},"À":{"ha":931,"x_min":0,"x_max":954,"o":"m 758 496 l 908 524 q 901 406 954 486 l 767 397 l 800 17 q 678 2 754 -7 q 558 47 603 11 l 586 385 l 403 374 l 358 368 l 217 17 q 90 3 158 -7 q 0 50 21 14 l 154 344 l 57 333 q 64 453 10 386 l 214 457 l 317 653 l 433 985 q 561 1024 493 1014 q 761 1007 683 1040 l 735 771 l 758 496 m 396 461 l 592 465 l 578 874 l 561 869 l 396 461 m 631 1110 l 547 1229 l 428 1342 q 512 1412 450 1394 q 615 1408 574 1429 l 721 1139 q 685 1111 711 1119 q 631 1110 658 1103 z "},"Á":{"ha":931,"x_min":0,"x_max":954,"o":"m 758 496 l 908 524 q 901 406 954 486 l 767 397 l 800 17 q 678 2 754 -7 q 558 47 603 11 l 586 385 l 403 374 l 358 368 l 217 17 q 90 3 158 -7 q 0 50 21 14 l 154 344 l 57 333 q 64 453 10 386 l 214 457 l 317 653 l 433 985 q 561 1024 493 1014 q 761 1007 683 1040 l 735 771 l 758 496 m 396 461 l 592 465 l 578 874 l 561 869 l 396 461 m 932 1335 l 679 1103 q 624 1115 647 1103 q 601 1147 601 1126 l 696 1278 l 738 1403 q 863 1398 810 1417 q 932 1335 917 1379 z "},"Â":{"ha":931,"x_min":0,"x_max":954,"o":"m 758 496 l 908 524 q 901 406 954 486 l 767 397 l 800 17 q 678 2 754 -7 q 558 47 603 11 l 586 385 l 403 374 l 358 368 l 217 17 q 90 3 158 -7 q 0 50 21 14 l 154 344 l 57 333 q 64 453 10 386 l 214 457 l 317 653 l 433 985 q 561 1024 493 1014 q 761 1007 683 1040 l 735 771 l 758 496 m 396 461 l 592 465 l 578 874 l 561 869 l 396 461 m 925 1142 q 832 1106 885 1106 q 743 1124 779 1106 l 665 1286 l 465 1110 q 386 1160 390 1113 l 626 1381 q 807 1358 733 1403 l 925 1142 z "},"Ã":{"ha":931,"x_min":0,"x_max":978,"o":"m 799 1208 l 888 1321 q 951 1312 925 1328 q 972 1268 978 1296 q 776 1106 904 1158 q 556 1222 625 1139 l 546 1219 l 461 1110 q 397 1124 426 1106 q 369 1171 367 1142 q 458 1265 415 1228 q 568 1332 501 1303 q 792 1208 724 1289 l 799 1208 m 758 496 l 908 524 q 901 406 954 486 l 767 397 l 800 17 q 678 2 754 -7 q 558 47 603 11 l 586 385 l 403 374 l 358 368 l 217 17 q 90 3 158 -7 q 0 50 21 14 l 154 344 l 57 333 q 64 453 10 386 l 214 457 l 317 653 l 433 985 q 561 1024 493 1014 q 761 1007 683 1040 l 735 771 l 758 496 m 396 461 l 592 465 l 578 874 l 561 869 l 396 461 z "},"Ä":{"ha":931,"x_min":0,"x_max":954,"o":"m 758 496 l 908 524 q 901 406 954 486 l 767 397 l 800 17 q 678 2 754 -7 q 558 47 603 11 l 586 385 l 403 374 l 358 368 l 217 17 q 90 3 158 -7 q 0 50 21 14 l 154 344 l 57 333 q 64 453 10 386 l 214 457 l 317 653 l 433 985 q 561 1024 493 1014 q 761 1007 683 1040 l 735 771 l 758 496 m 396 461 l 592 465 l 578 874 l 561 869 l 396 461 m 561 1165 q 547 1150 561 1165 q 493 1136 533 1136 q 424 1165 453 1136 q 396 1232 396 1193 q 424 1299 396 1271 q 493 1326 453 1326 q 561 1299 533 1326 q 589 1233 589 1272 q 561 1165 589 1193 m 815 1232 q 808 1217 815 1224 q 792 1210 801 1210 q 775 1217 783 1210 q 767 1232 767 1224 q 791 1253 767 1253 q 815 1232 815 1253 z "},"Å":{"ha":931,"x_min":0,"x_max":954,"o":"m 758 496 l 908 524 q 901 406 954 486 l 767 397 l 800 17 q 678 2 754 -7 q 558 47 603 11 l 586 385 l 403 374 l 358 368 l 217 17 q 90 3 158 -7 q 0 50 21 14 l 154 344 l 57 333 q 64 453 10 386 l 214 457 l 317 653 l 433 985 q 561 1024 493 1014 q 761 1007 683 1040 l 735 771 l 758 496 m 396 461 l 592 465 l 578 874 l 561 869 l 396 461 m 882 1260 q 869 1224 882 1260 q 790 1144 857 1188 q 641 1100 722 1100 q 517 1143 560 1100 q 497 1258 474 1186 q 588 1372 521 1329 q 737 1415 654 1415 q 863 1374 819 1415 q 882 1260 907 1333 m 665 1154 q 696 1164 679 1154 q 738 1257 722 1199 q 708 1360 764 1360 q 678 1350 694 1360 q 636 1258 650 1308 q 665 1154 610 1154 z "},"Æ":{"ha":1185,"x_min":-18,"x_max":1207,"o":"m 567 878 l 408 508 l 583 518 l 583 882 l 567 878 m 929 1029 q 1171 1022 1064 1029 q 1187 923 1207 981 q 1103 822 1167 865 l 1010 901 q 785 897 928 917 l 744 793 l 738 539 q 1053 574 758 540 q 1076 513 1079 556 q 1044 438 1074 471 q 726 433 882 450 l 683 224 l 683 128 q 1058 197 839 138 q 1096 153 1088 185 q 1079 39 1110 100 q 669 0 882 0 q 567 18 604 0 q 497 76 531 36 l 576 428 l 369 415 l 199 17 q 70 3 139 -7 q -18 50 1 14 l 181 404 l 67 396 q 78 515 22 449 l 240 515 l 317 657 l 438 981 q 929 1029 601 1029 z "},"Ç":{"ha":894,"x_min":65,"x_max":878,"o":"m 574 926 q 354 728 440 860 q 268 467 268 596 q 319 263 268 338 q 478 139 369 188 q 744 300 638 200 q 809 281 788 306 q 828 217 831 257 q 529 22 731 107 l 464 -104 q 565 -64 511 -64 q 649 -103 618 -64 q 669 -206 679 -143 q 592 -328 654 -285 q 449 -371 531 -372 q 300 -337 367 -369 q 199 -253 233 -306 q 208 -210 197 -228 q 235 -190 219 -192 q 412 -275 318 -275 q 519 -210 506 -275 q 504 -149 525 -175 q 422 -186 464 -156 q 372 -173 396 -186 q 343 -137 349 -160 l 417 13 q 65 449 65 110 q 176 786 67 600 q 392 956 278 889 q 654 1047 506 1024 q 813 933 757 1010 q 878 761 868 856 q 788 703 847 719 q 664 713 728 688 q 599 932 653 869 l 574 926 z "},"È":{"ha":831,"x_min":75,"x_max":888,"o":"m 540 1408 l 646 1139 q 610 1111 636 1119 q 556 1110 583 1103 l 472 1229 l 353 1342 q 437 1412 375 1394 q 540 1408 499 1429 m 671 899 q 453 897 542 910 l 411 768 l 372 558 q 683 592 442 567 q 703 524 707 564 q 675 443 700 483 q 358 457 469 460 l 283 128 q 699 203 514 160 q 740 161 731 192 q 708 38 758 104 l 235 0 q 75 132 81 39 q 239 683 189 442 l 246 892 q 165 915 219 906 q 172 1006 142 975 q 854 1019 493 1033 q 866 906 888 965 q 781 810 844 847 l 671 899 z "},"É":{"ha":831,"x_min":75,"x_max":888,"o":"m 671 899 q 453 897 542 910 l 411 768 l 372 558 q 683 592 442 567 q 703 524 707 564 q 675 443 700 483 q 358 457 469 460 l 283 128 q 699 203 514 160 q 740 161 731 192 q 708 38 758 104 l 235 0 q 75 132 81 39 q 239 683 189 442 l 246 892 q 165 915 219 906 q 172 1006 142 975 q 854 1019 493 1033 q 866 906 888 965 q 781 810 844 847 l 671 899 m 664 1403 q 790 1398 736 1417 q 858 1335 843 1379 l 606 1103 q 551 1115 574 1103 q 528 1147 528 1126 l 622 1278 l 664 1403 z "},"Ê":{"ha":831,"x_min":75,"x_max":888,"o":"m 671 899 q 453 897 542 910 l 411 768 l 372 558 q 683 592 442 567 q 703 524 707 564 q 675 443 700 483 q 358 457 469 460 l 283 128 q 699 203 514 160 q 740 161 731 192 q 708 38 758 104 l 235 0 q 75 132 81 39 q 239 683 189 442 l 246 892 q 165 915 219 906 q 172 1006 142 975 q 854 1019 493 1033 q 866 906 888 965 q 781 810 844 847 l 671 899 m 851 1142 q 758 1106 811 1106 q 669 1124 706 1106 l 592 1286 l 392 1110 q 313 1160 317 1113 l 553 1381 q 733 1358 660 1403 l 851 1142 z "},"Ë":{"ha":831,"x_min":75,"x_max":888,"o":"m 349 1299 q 364 1313 349 1299 q 418 1326 378 1326 q 486 1299 458 1326 q 514 1233 514 1272 q 486 1165 514 1193 q 418 1136 458 1136 q 349 1165 378 1136 q 321 1232 321 1193 q 349 1299 321 1271 m 740 1232 q 733 1217 740 1224 q 717 1210 726 1210 q 700 1217 708 1210 q 692 1232 692 1224 q 716 1253 692 1253 q 740 1232 740 1253 m 781 810 l 671 899 q 453 897 542 910 l 411 768 l 372 558 q 683 592 442 567 q 703 524 707 564 q 675 443 700 483 q 358 457 469 460 l 283 128 q 699 203 514 160 q 740 161 731 192 q 708 38 758 104 l 235 0 q 75 132 81 39 q 239 683 189 442 l 246 892 q 165 915 219 906 q 172 1006 142 975 q 854 1019 493 1033 q 866 906 888 965 q 781 810 844 847 z "},"Ì":{"ha":393,"x_min":25,"x_max":429,"o":"m 301 1408 l 407 1139 q 371 1111 397 1119 q 317 1110 344 1103 l 233 1229 l 114 1342 q 198 1412 136 1394 q 301 1408 260 1429 m 186 986 q 331 1032 269 1032 q 429 1014 393 1032 l 313 593 q 289 344 308 543 q 258 19 269 144 q 126 4 207 -8 q 25 58 46 17 q 176 719 117 369 l 186 986 z "},"Í":{"ha":393,"x_min":25,"x_max":619,"o":"m 425 1403 q 551 1398 497 1417 q 619 1335 604 1379 l 367 1103 q 312 1115 335 1103 q 289 1147 289 1126 l 383 1278 l 425 1403 m 186 986 q 331 1032 269 1032 q 429 1014 393 1032 l 313 593 q 289 344 308 543 q 258 19 269 144 q 126 4 207 -8 q 25 58 46 17 q 176 719 117 369 l 186 986 z "},"Î":{"ha":393,"x_min":25,"x_max":613,"o":"m 613 1142 q 519 1106 572 1106 q 431 1124 467 1106 l 353 1286 l 153 1110 q 74 1160 78 1113 l 314 1381 q 494 1358 421 1403 l 613 1142 m 186 986 q 331 1032 269 1032 q 429 1014 393 1032 l 313 593 q 289 344 308 543 q 258 19 269 144 q 126 4 207 -8 q 25 58 46 17 q 176 719 117 369 l 186 986 z "},"Ï":{"ha":393,"x_min":25,"x_max":501,"o":"m 186 986 q 331 1032 269 1032 q 429 1014 393 1032 l 313 593 q 289 344 308 543 q 258 19 269 144 q 126 4 207 -8 q 25 58 46 17 q 176 719 117 369 l 186 986 m 110 1299 q 125 1313 110 1299 q 179 1326 139 1326 q 247 1299 219 1326 q 275 1233 275 1272 q 247 1165 275 1193 q 179 1136 219 1136 q 110 1165 139 1136 q 82 1232 82 1193 q 110 1299 82 1271 m 501 1232 q 494 1217 501 1224 q 478 1210 488 1210 q 461 1217 469 1210 q 453 1232 453 1224 q 477 1253 453 1253 q 501 1232 501 1253 z "},"Ð":{"ha":986,"x_min":33,"x_max":974,"o":"m 504 1032 q 851 906 729 1032 q 974 578 974 781 q 894 290 974 422 q 667 67 814 158 q 240 0 461 -1 q 83 129 107 36 q 196 465 163 343 l 79 447 q 36 517 39 479 q 63 576 33 554 l 221 560 q 243 664 225 576 l 247 878 l 192 868 q 152 931 157 896 q 168 986 147 965 q 504 1032 310 1032 m 358 472 l 311 117 q 551 151 450 121 q 768 558 768 314 q 694 808 767 715 q 469 899 621 900 q 388 578 422 710 l 579 607 q 622 558 614 593 q 600 488 629 524 l 364 490 l 358 472 z "},"Ñ":{"ha":988,"x_min":11,"x_max":1038,"o":"m 794 986 q 940 1031 879 1031 q 1038 1014 1000 1031 l 919 593 q 892 334 914 529 q 860 19 871 139 q 735 3 801 -6 q 628 46 669 13 q 363 825 458 393 l 303 593 q 274 309 296 504 q 244 19 253 114 q 112 4 192 -8 q 11 58 32 17 q 167 715 113 399 l 181 986 q 346 1032 268 1032 q 428 1010 388 1032 q 613 356 519 643 l 682 224 q 783 714 769 631 l 794 986 m 526 1219 l 442 1110 q 377 1124 407 1106 q 350 1171 347 1142 q 439 1265 396 1228 q 549 1332 482 1303 q 772 1208 704 1289 l 779 1208 l 868 1321 q 932 1312 906 1328 q 953 1268 958 1296 q 757 1106 885 1158 q 536 1222 606 1139 l 526 1219 z "},"Ò":{"ha":925,"x_min":65,"x_max":913,"o":"m 579 1410 l 685 1140 q 649 1113 675 1121 q 594 1111 622 1104 l 511 1231 l 392 1343 q 476 1413 414 1396 q 579 1410 538 1431 m 264 451 q 306 256 264 349 q 421 107 347 164 q 725 510 647 249 q 676 750 710 649 q 569 935 642 851 q 349 722 435 857 q 264 451 264 588 m 65 431 q 139 722 65 579 q 333 953 213 864 q 581 1042 453 1042 q 727 969 650 1042 q 857 778 804 896 q 911 545 910 660 q 834 302 913 431 q 639 87 756 174 q 431 0 522 0 q 254 68 339 0 q 117 237 169 136 q 65 431 65 338 z "},"Ó":{"ha":925,"x_min":65,"x_max":913,"o":"m 264 451 q 306 256 264 349 q 421 107 347 164 q 725 510 647 249 q 676 750 710 649 q 569 935 642 851 q 349 722 435 857 q 264 451 264 588 m 65 431 q 139 722 65 579 q 333 953 213 864 q 581 1042 453 1042 q 727 969 650 1042 q 857 778 804 896 q 911 545 910 660 q 834 302 913 431 q 639 87 756 174 q 431 0 522 0 q 254 68 339 0 q 117 237 169 136 q 65 431 65 338 m 703 1404 q 828 1399 775 1418 q 897 1336 882 1381 l 644 1104 q 590 1116 613 1104 q 567 1149 567 1128 l 661 1279 l 703 1404 z "},"Ô":{"ha":925,"x_min":65,"x_max":913,"o":"m 264 451 q 306 256 264 349 q 421 107 347 164 q 725 510 647 249 q 676 750 710 649 q 569 935 642 851 q 349 722 435 857 q 264 451 264 588 m 65 431 q 139 722 65 579 q 333 953 213 864 q 581 1042 453 1042 q 727 969 650 1042 q 857 778 804 896 q 911 545 910 660 q 834 302 913 431 q 639 87 756 174 q 431 0 522 0 q 254 68 339 0 q 117 237 169 136 q 65 431 65 338 m 890 1143 q 797 1107 850 1107 q 708 1125 744 1107 l 631 1288 l 431 1111 q 351 1161 356 1114 l 592 1382 q 772 1360 699 1404 l 890 1143 z "},"Õ":{"ha":925,"x_min":65,"x_max":943,"o":"m 533 1333 q 757 1210 689 1290 l 764 1210 l 853 1322 q 917 1313 890 1329 q 938 1269 943 1297 q 742 1107 869 1160 q 521 1224 590 1140 l 511 1221 l 426 1111 q 362 1125 392 1107 q 335 1172 332 1143 q 424 1267 381 1229 q 533 1333 467 1304 m 264 451 q 306 256 264 349 q 421 107 347 164 q 725 510 647 249 q 676 750 710 649 q 569 935 642 851 q 349 722 435 857 q 264 451 264 588 m 65 431 q 139 722 65 579 q 333 953 213 864 q 581 1042 453 1042 q 727 969 650 1042 q 857 778 804 896 q 911 545 910 660 q 834 302 913 431 q 639 87 756 174 q 431 0 522 0 q 254 68 339 0 q 117 237 169 136 q 65 431 65 338 z "},"Ö":{"ha":925,"x_min":65,"x_max":913,"o":"m 388 1300 q 402 1314 388 1300 q 457 1328 417 1328 q 525 1301 497 1328 q 553 1234 553 1274 q 525 1166 553 1194 q 457 1138 497 1138 q 388 1166 417 1138 q 360 1233 360 1194 q 388 1300 360 1272 m 779 1233 q 772 1218 779 1225 q 756 1211 765 1211 q 739 1218 747 1211 q 731 1233 731 1225 q 755 1254 731 1254 q 779 1233 779 1254 m 65 431 q 139 722 65 579 q 333 953 213 864 q 581 1042 453 1042 q 727 969 650 1042 q 857 778 804 896 q 911 545 910 660 q 834 302 913 431 q 639 87 756 174 q 431 0 522 0 q 254 68 339 0 q 117 237 169 136 q 65 431 65 338 m 264 451 q 306 256 264 349 q 421 107 347 164 q 725 510 647 249 q 676 750 710 649 q 569 935 642 851 q 349 722 435 857 q 264 451 264 588 z "},"×":{"ha":886,"x_min":79,"x_max":843,"o":"m 464 508 l 756 846 q 824 827 804 843 q 840 768 843 811 l 508 460 l 751 211 q 651 144 725 122 l 449 403 l 163 138 q 86 224 79 160 l 403 460 l 163 767 q 191 825 165 806 q 256 843 217 844 l 464 508 z "},"Ø":{"ha":1026,"x_min":3,"x_max":1086,"o":"m 457 0 q 219 139 335 0 l 133 0 q 35 46 67 18 q 3 125 4 74 l 150 244 q 100 431 100 344 q 174 722 100 579 q 368 953 247 864 q 617 1042 489 1042 q 733 994 672 1042 q 844 868 793 947 l 940 1029 q 1086 917 1078 1014 l 900 761 q 947 542 946 654 q 869 302 949 431 q 674 87 790 174 q 457 0 557 0 m 299 451 q 306 372 299 414 l 724 711 q 604 935 685 844 q 384 722 469 857 q 299 451 299 588 m 743 629 l 331 282 q 457 107 372 171 q 761 510 681 249 q 743 629 754 575 z "},"Ù":{"ha":893,"x_min":72,"x_max":938,"o":"m 538 1408 l 643 1139 q 607 1111 633 1119 q 553 1110 581 1103 l 469 1229 l 350 1342 q 434 1412 372 1394 q 538 1408 496 1429 m 414 0 q 179 81 269 0 q 72 268 89 163 q 176 994 149 690 q 322 1039 261 1039 q 419 1021 383 1039 q 276 358 288 590 q 332 173 267 240 q 539 139 397 106 q 651 358 613 232 q 721 683 690 483 l 693 994 q 840 1039 778 1039 q 938 1021 901 1039 q 899 791 931 981 q 847 493 868 601 q 701 124 799 249 q 414 0 603 0 z "},"Ú":{"ha":893,"x_min":72,"x_max":938,"o":"m 414 0 q 179 81 269 0 q 72 268 89 163 q 176 994 149 690 q 322 1039 261 1039 q 419 1021 383 1039 q 276 358 288 590 q 332 173 267 240 q 539 139 397 106 q 651 358 613 232 q 721 683 690 483 l 693 994 q 840 1039 778 1039 q 938 1021 901 1039 q 899 791 931 981 q 847 493 868 601 q 701 124 799 249 q 414 0 603 0 m 660 1403 q 785 1398 732 1417 q 854 1335 839 1379 l 601 1103 q 547 1115 569 1103 q 524 1147 524 1126 l 618 1278 l 660 1403 z "},"Û":{"ha":893,"x_min":72,"x_max":938,"o":"m 414 0 q 179 81 269 0 q 72 268 89 163 q 176 994 149 690 q 322 1039 261 1039 q 419 1021 383 1039 q 276 358 288 590 q 332 173 267 240 q 539 139 397 106 q 651 358 613 232 q 721 683 690 483 l 693 994 q 840 1039 778 1039 q 938 1021 901 1039 q 899 791 931 981 q 847 493 868 601 q 701 124 799 249 q 414 0 603 0 m 847 1142 q 754 1106 807 1106 q 665 1124 701 1106 l 588 1286 l 388 1110 q 308 1160 313 1113 l 549 1381 q 729 1358 656 1403 l 847 1142 z "},"Ü":{"ha":893,"x_min":72,"x_max":938,"o":"m 347 1299 q 361 1313 347 1299 q 415 1326 375 1326 q 483 1299 456 1326 q 511 1233 511 1272 q 483 1165 511 1193 q 415 1136 456 1136 q 347 1165 375 1136 q 318 1232 318 1193 q 347 1299 318 1271 m 738 1232 q 731 1217 738 1224 q 715 1210 724 1210 q 697 1217 706 1210 q 689 1232 689 1224 q 713 1253 689 1253 q 738 1232 738 1253 m 693 994 q 840 1039 778 1039 q 938 1021 901 1039 q 899 791 931 981 q 847 493 868 601 q 701 124 799 249 q 414 0 603 0 q 179 81 269 0 q 72 268 89 163 q 176 994 149 690 q 322 1039 261 1039 q 419 1021 383 1039 q 276 358 288 590 q 332 173 267 240 q 539 139 397 106 q 651 358 613 232 q 721 683 690 483 l 693 994 z "},"Ý":{"ha":879,"x_min":142,"x_max":942,"o":"m 661 1401 q 787 1397 733 1415 q 856 1333 840 1378 l 603 1101 q 548 1113 571 1101 q 525 1146 525 1125 l 619 1276 l 661 1401 m 142 947 q 244 1030 183 1008 q 361 1026 306 1051 l 389 757 l 496 467 l 504 467 l 540 538 l 736 788 l 679 1003 q 942 992 850 1083 q 863 788 936 883 q 719 615 818 731 q 589 464 619 500 q 540 19 556 307 q 419 0 499 -10 q 306 49 340 10 q 397 417 357 190 q 142 947 313 624 z "},"Þ":{"ha":851,"x_min":61,"x_max":865,"o":"m 467 1136 l 383 822 q 556 868 483 863 q 777 771 692 844 q 864 588 863 697 q 813 437 865 503 q 644 299 761 371 q 328 296 468 264 q 300 24 314 156 q 171 4 257 -7 q 61 54 85 15 q 229 749 142 293 l 231 1100 q 467 1136 365 1182 m 579 401 q 671 579 675 492 q 535 758 668 718 q 369 722 454 763 q 335 376 360 633 q 579 401 469 350 z "},"ß":{"ha":913,"x_min":18,"x_max":871,"o":"m 635 624 l 633 615 q 812 508 753 582 q 871 344 871 433 q 767 124 868 219 q 500 0 667 29 q 297 72 364 6 q 340 179 300 135 q 446 233 379 224 l 517 129 q 645 211 596 149 q 696 342 694 274 q 664 461 697 411 q 567 528 631 511 l 449 483 q 399 610 390 547 q 464 708 408 674 l 554 682 q 664 858 664 736 q 601 982 665 933 q 414 1019 536 1031 l 335 869 q 233 15 269 271 q 106 3 175 -8 q 18 54 38 15 q 179 881 160 542 q 260 1040 213 982 q 397 1138 308 1097 q 710 1073 593 1153 q 826 878 826 993 q 776 728 824 796 q 635 624 728 661 z "},"à":{"ha":868,"x_min":43,"x_max":865,"o":"m 532 225 l 333 19 q 117 96 189 25 q 46 279 46 167 q 176 606 43 453 q 493 764 308 760 q 628 613 565 721 l 628 614 q 651 763 628 714 q 796 761 747 774 q 865 704 844 749 l 747 485 q 729 19 729 306 q 610 4 685 -7 q 489 57 536 15 l 550 207 l 532 225 m 481 646 q 315 501 375 599 q 254 297 254 403 q 321 153 254 192 q 567 364 407 226 l 597 513 q 481 646 556 600 m 565 836 l 482 956 l 363 1068 q 447 1138 385 1121 q 550 1135 508 1156 l 656 865 q 619 838 646 846 q 565 836 593 829 z "},"á":{"ha":868,"x_min":43,"x_max":867,"o":"m 532 225 l 333 19 q 117 96 189 25 q 46 279 46 167 q 176 606 43 453 q 493 764 308 760 q 628 613 565 721 l 628 614 q 651 763 628 714 q 796 761 747 774 q 865 704 844 749 l 747 485 q 729 19 729 306 q 610 4 685 -7 q 489 57 536 15 l 550 207 l 532 225 m 481 646 q 315 501 375 599 q 254 297 254 403 q 321 153 254 192 q 567 364 407 226 l 597 513 q 481 646 556 600 m 867 1061 l 614 829 q 559 841 582 829 q 536 874 536 853 l 631 1004 l 672 1129 q 798 1124 744 1143 q 867 1061 851 1106 z "},"â":{"ha":868,"x_min":43,"x_max":865,"o":"m 532 225 l 333 19 q 117 96 189 25 q 46 279 46 167 q 176 606 43 453 q 493 764 308 760 q 628 613 565 721 l 628 614 q 651 763 628 714 q 796 761 747 774 q 865 704 844 749 l 747 485 q 729 19 729 306 q 610 4 685 -7 q 489 57 536 15 l 550 207 l 532 225 m 481 646 q 315 501 375 599 q 254 297 254 403 q 321 153 254 192 q 567 364 407 226 l 597 513 q 481 646 556 600 m 860 868 q 767 832 819 832 q 678 850 714 832 l 600 1013 l 400 836 q 321 886 325 839 l 561 1107 q 742 1085 668 1129 l 860 868 z "},"ã":{"ha":868,"x_min":43,"x_max":913,"o":"m 733 935 l 822 1047 q 886 1038 860 1054 q 907 994 913 1022 q 711 832 839 885 q 490 949 560 865 l 481 946 l 396 836 q 331 850 361 832 q 304 897 301 868 q 393 992 350 954 q 503 1058 436 1029 q 726 935 658 1015 l 733 935 m 532 225 l 333 19 q 117 96 189 25 q 46 279 46 167 q 176 606 43 453 q 493 764 308 760 q 628 613 565 721 l 628 614 q 651 763 628 714 q 796 761 747 774 q 865 704 844 749 l 747 485 q 729 19 729 306 q 610 4 685 -7 q 489 57 536 15 l 550 207 l 532 225 m 481 646 q 315 501 375 599 q 254 297 254 403 q 321 153 254 192 q 567 364 407 226 l 597 513 q 481 646 556 600 z "},"ä":{"ha":868,"x_min":43,"x_max":865,"o":"m 532 225 l 333 19 q 117 96 189 25 q 46 279 46 167 q 176 606 43 453 q 493 764 308 760 q 628 613 565 721 l 628 614 q 651 763 628 714 q 796 761 747 774 q 865 704 844 749 l 747 485 q 729 19 729 306 q 610 4 685 -7 q 489 57 536 15 l 550 207 l 532 225 m 481 646 q 315 501 375 599 q 254 297 254 403 q 321 153 254 192 q 567 364 407 226 l 597 513 q 481 646 556 600 m 496 891 q 482 877 496 891 q 428 863 468 863 q 359 891 388 863 q 331 958 331 919 q 359 1025 331 997 q 428 1053 388 1053 q 496 1026 468 1053 q 524 959 524 999 q 496 891 524 919 m 750 958 q 743 943 750 950 q 727 936 736 936 q 710 943 718 936 q 701 958 701 950 q 726 979 701 979 q 750 958 750 979 z "},"å":{"ha":868,"x_min":43,"x_max":865,"o":"m 532 225 l 333 19 q 117 96 189 25 q 46 279 46 167 q 176 606 43 453 q 493 764 308 760 q 628 613 565 721 l 628 614 q 651 763 628 714 q 796 761 747 774 q 865 704 844 749 l 747 485 q 729 19 729 306 q 610 4 685 -7 q 489 57 536 15 l 550 207 l 532 225 m 481 646 q 315 501 375 599 q 254 297 254 403 q 321 153 254 192 q 567 364 407 226 l 597 513 q 481 646 556 600 m 817 987 q 804 950 817 987 q 724 870 792 914 q 576 826 657 826 q 451 869 494 826 q 432 984 408 913 q 522 1099 456 1056 q 672 1142 589 1142 q 798 1101 754 1142 q 817 987 842 1060 m 600 881 q 631 890 614 881 q 672 983 657 925 q 643 1086 699 1086 q 613 1076 629 1086 q 572 986 585 1035 q 600 881 543 881 z "},"æ":{"ha":1293,"x_min":50,"x_max":1242,"o":"m 488 646 q 322 501 382 599 q 261 297 261 403 q 326 153 261 192 q 561 357 488 292 q 603 515 568 424 q 488 646 560 600 m 958 664 l 935 656 q 808 526 857 604 q 756 371 758 449 q 1035 475 907 414 q 958 664 1050 607 m 526 222 q 340 19 465 161 q 125 95 197 25 q 51 278 53 165 q 107 501 50 390 q 270 686 164 611 q 500 764 376 761 q 625 615 560 728 q 650 763 625 714 q 738 769 694 774 q 794 740 782 764 l 744 613 q 1011 776 851 744 q 1192 660 1143 753 q 1210 442 1242 568 q 760 288 983 332 q 885 121 778 171 q 1143 240 1056 165 q 1198 222 1182 242 q 1207 154 1214 201 q 1053 59 1160 106 q 864 0 947 13 q 665 165 717 54 l 643 7 q 547 6 593 -8 q 485 54 500 19 l 540 208 l 526 222 z "},"ç":{"ha":764,"x_min":49,"x_max":721,"o":"m 392 -104 q 492 -64 439 -64 q 576 -103 546 -64 q 597 -206 607 -143 q 520 -328 582 -285 q 376 -371 458 -372 q 228 -337 294 -369 q 126 -253 161 -306 q 136 -210 125 -228 q 163 -190 147 -192 q 340 -275 246 -275 q 447 -210 433 -275 q 432 -149 453 -175 q 350 -186 392 -156 q 300 -173 324 -186 q 271 -137 276 -160 l 339 3 q 117 122 186 33 q 51 322 49 211 q 126 535 53 432 q 494 771 290 728 q 649 697 597 753 q 721 549 701 640 q 644 485 699 503 q 518 483 589 468 q 506 583 519 544 q 458 661 492 622 l 425 654 q 306 518 350 597 q 258 360 261 439 q 281 222 254 281 q 382 119 308 163 q 632 246 540 167 q 692 158 711 249 q 458 25 617 78 l 392 -104 z "},"è":{"ha":768,"x_min":43,"x_max":729,"o":"m 489 776 q 678 662 628 754 q 697 442 729 569 q 250 288 464 331 q 371 121 269 175 q 626 236 525 157 q 690 149 704 239 q 539 56 646 100 q 346 0 432 13 q 117 119 192 28 q 46 335 43 210 q 118 539 50 439 q 489 776 292 721 m 246 372 l 246 368 q 524 475 396 413 q 444 664 540 610 l 421 656 q 297 524 346 604 q 246 372 249 443 m 472 836 l 389 956 l 269 1068 q 353 1138 292 1121 q 457 1135 415 1156 l 563 865 q 526 838 553 846 q 472 836 500 829 z "},"é":{"ha":768,"x_min":43,"x_max":774,"o":"m 489 776 q 678 662 628 754 q 697 442 729 569 q 250 288 464 331 q 371 121 269 175 q 626 236 525 157 q 690 149 704 239 q 539 56 646 100 q 346 0 432 13 q 117 119 192 28 q 46 335 43 210 q 118 539 50 439 q 489 776 292 721 m 246 372 l 246 368 q 524 475 396 413 q 444 664 540 610 l 421 656 q 297 524 346 604 q 246 372 249 443 m 774 1061 l 521 829 q 466 841 489 829 q 443 874 443 853 l 538 1004 l 579 1129 q 705 1124 651 1143 q 774 1061 758 1106 z "},"ê":{"ha":768,"x_min":43,"x_max":767,"o":"m 489 776 q 678 662 628 754 q 697 442 729 569 q 250 288 464 331 q 371 121 269 175 q 626 236 525 157 q 690 149 704 239 q 539 56 646 100 q 346 0 432 13 q 117 119 192 28 q 46 335 43 210 q 118 539 50 439 q 489 776 292 721 m 246 372 l 246 368 q 524 475 396 413 q 444 664 540 610 l 421 656 q 297 524 346 604 q 246 372 249 443 m 767 868 q 674 832 726 832 q 585 850 621 832 l 507 1013 l 307 836 q 228 886 232 839 l 468 1107 q 649 1085 575 1129 l 767 868 z "},"ë":{"ha":768,"x_min":43,"x_max":729,"o":"m 489 776 q 678 662 628 754 q 697 442 729 569 q 250 288 464 331 q 371 121 269 175 q 626 236 525 157 q 690 149 704 239 q 539 56 646 100 q 346 0 432 13 q 117 119 192 28 q 46 335 43 210 q 118 539 50 439 q 489 776 292 721 m 246 372 l 246 368 q 524 475 396 413 q 444 664 540 610 l 421 656 q 297 524 346 604 q 246 372 249 443 m 403 891 q 389 877 403 891 q 335 863 375 863 q 266 891 294 863 q 238 958 238 919 q 266 1025 238 997 q 335 1053 294 1053 q 403 1026 375 1053 q 431 959 431 999 q 403 891 431 919 m 657 958 q 650 943 657 950 q 634 936 643 936 q 617 943 625 936 q 608 958 608 950 q 633 979 608 979 q 657 958 657 979 z "},"ì":{"ha":393,"x_min":35,"x_max":374,"o":"m 268 1135 l 374 865 q 338 838 364 846 q 283 836 311 829 l 200 956 l 81 1068 q 165 1138 103 1121 q 268 1135 226 1156 m 154 483 l 147 728 q 368 735 294 793 l 307 522 q 268 19 293 401 q 141 4 215 -8 q 35 58 67 17 q 154 483 106 253 z "},"í":{"ha":393,"x_min":35,"x_max":586,"o":"m 154 483 l 147 728 q 368 735 294 793 l 307 522 q 268 19 293 401 q 141 4 215 -8 q 35 58 67 17 q 154 483 106 253 m 392 1129 q 517 1124 464 1143 q 586 1061 571 1106 l 333 829 q 278 841 301 829 q 256 874 256 853 l 350 1004 l 392 1129 z "},"î":{"ha":393,"x_min":35,"x_max":579,"o":"m 154 483 l 147 728 q 368 735 294 793 l 307 522 q 268 19 293 401 q 141 4 215 -8 q 35 58 67 17 q 154 483 106 253 m 579 868 q 486 832 539 832 q 397 850 433 832 l 319 1013 l 119 836 q 40 886 44 839 l 281 1107 q 461 1085 388 1129 l 579 868 z "},"ï":{"ha":393,"x_min":35,"x_max":468,"o":"m 77 1025 q 91 1039 77 1025 q 146 1053 106 1053 q 214 1026 186 1053 q 242 959 242 999 q 214 891 242 919 q 146 863 186 863 q 77 891 106 863 q 49 958 49 919 q 77 1025 49 997 m 468 958 q 461 943 468 950 q 445 936 454 936 q 428 943 436 936 q 419 958 419 950 q 444 979 419 979 q 468 958 468 979 m 154 483 l 147 728 q 368 735 294 793 l 307 522 q 268 19 293 401 q 141 4 215 -8 q 35 58 67 17 q 154 483 106 253 z "},"ð":{"ha":769,"x_min":49,"x_max":846,"o":"m 603 1015 l 761 1086 q 813 982 846 1061 l 644 943 q 726 594 728 771 q 690 350 725 461 q 572 144 656 239 q 361 0 489 50 q 132 113 215 18 q 50 340 49 207 q 163 597 51 474 q 443 753 274 721 q 571 607 515 703 q 521 899 571 760 l 349 831 q 301 943 265 875 l 482 971 l 375 1086 q 408 1142 382 1126 q 486 1158 435 1157 q 603 1015 554 1096 m 240 331 q 354 107 240 179 q 561 485 524 251 q 425 636 501 590 q 287 503 333 583 q 240 331 240 422 z "},"ñ":{"ha":850,"x_min":32,"x_max":819,"o":"m 640 935 l 729 1047 q 793 1038 767 1054 q 814 994 819 1022 q 618 832 746 885 q 397 949 467 865 l 388 946 l 303 836 q 238 850 268 832 q 211 897 208 868 q 300 992 257 954 q 410 1058 343 1029 q 633 935 565 1015 l 640 935 m 288 564 l 301 547 q 565 764 417 683 q 722 701 661 757 q 801 578 782 646 l 744 411 q 740 19 731 228 q 624 3 693 -7 q 510 56 556 14 q 600 540 532 243 q 544 615 589 592 q 310 426 432 560 q 261 19 296 254 q 129 4 203 -7 q 32 54 56 15 q 161 497 111 282 l 121 706 q 331 765 211 783 q 332 629 344 718 l 288 564 z "},"ò":{"ha":778,"x_min":39,"x_max":744,"o":"m 39 332 q 97 522 39 418 q 257 703 156 626 q 464 779 358 779 q 589 718 522 779 q 699 572 656 657 q 743 408 742 488 q 679 230 744 329 q 513 65 614 131 q 318 0 413 0 q 131 103 224 0 q 39 332 39 206 m 442 676 q 293 525 349 614 q 224 336 238 436 q 331 101 228 193 q 568 396 524 201 q 442 676 551 561 m 444 1135 l 550 865 q 514 838 540 846 q 460 836 488 829 l 376 956 l 257 1068 q 341 1138 279 1121 q 444 1135 403 1156 z "},"ó":{"ha":778,"x_min":39,"x_max":761,"o":"m 525 1004 l 567 1129 q 692 1124 639 1143 q 761 1061 746 1106 l 508 829 q 453 841 476 829 q 431 874 431 853 l 525 1004 m 39 332 q 97 522 39 418 q 257 703 156 626 q 464 779 358 779 q 589 718 522 779 q 699 572 656 657 q 743 408 742 488 q 679 230 744 329 q 513 65 614 131 q 318 0 413 0 q 131 103 224 0 q 39 332 39 206 m 442 676 q 293 525 349 614 q 224 336 238 436 q 331 101 228 193 q 568 396 524 201 q 442 676 551 561 z "},"ô":{"ha":778,"x_min":39,"x_max":754,"o":"m 754 868 q 661 832 714 832 q 572 850 608 832 l 494 1013 l 294 836 q 215 886 219 839 l 456 1107 q 636 1085 563 1129 l 754 868 m 39 332 q 97 522 39 418 q 257 703 156 626 q 464 779 358 779 q 589 718 522 779 q 699 572 656 657 q 743 408 742 488 q 679 230 744 329 q 513 65 614 131 q 318 0 413 0 q 131 103 224 0 q 39 332 39 206 m 442 676 q 293 525 349 614 q 224 336 238 436 q 331 101 228 193 q 568 396 524 201 q 442 676 551 561 z "},"õ":{"ha":778,"x_min":39,"x_max":807,"o":"m 39 332 q 97 522 39 418 q 257 703 156 626 q 464 779 358 779 q 589 718 522 779 q 699 572 656 657 q 743 408 742 488 q 679 230 744 329 q 513 65 614 131 q 318 0 413 0 q 131 103 224 0 q 39 332 39 206 m 442 676 q 293 525 349 614 q 224 336 238 436 q 331 101 228 193 q 568 396 524 201 q 442 676 551 561 m 375 946 l 290 836 q 226 850 256 832 q 199 897 196 868 q 288 992 244 954 q 397 1058 331 1029 q 621 935 553 1015 l 628 935 l 717 1047 q 781 1038 754 1054 q 801 994 807 1022 q 606 832 733 885 q 385 949 454 865 l 375 946 z "},"ö":{"ha":778,"x_min":39,"x_max":744,"o":"m 253 1025 q 268 1039 253 1025 q 322 1053 282 1053 q 390 1026 363 1053 q 418 959 418 999 q 390 891 418 919 q 322 863 363 863 q 253 891 282 863 q 225 958 225 919 q 253 1025 225 997 m 644 958 q 638 943 644 950 q 622 936 631 936 q 604 943 613 936 q 596 958 596 950 q 620 979 596 979 q 644 958 644 979 m 39 332 q 97 522 39 418 q 257 703 156 626 q 464 779 358 779 q 589 718 522 779 q 699 572 656 657 q 743 408 742 488 q 679 230 744 329 q 513 65 614 131 q 318 0 413 0 q 131 103 224 0 q 39 332 39 206 m 442 676 q 293 525 349 614 q 224 336 238 436 q 331 101 228 193 q 568 396 524 201 q 442 676 551 561 z "},"÷":{"ha":1044,"x_min":51,"x_max":1014,"o":"m 685 722 q 622 661 660 685 q 551 638 583 638 q 500 657 519 638 q 478 707 481 676 q 518 789 485 751 q 592 832 551 826 q 651 796 621 832 q 685 722 681 760 m 599 214 q 534 154 572 178 q 465 131 496 131 q 414 149 433 131 q 390 199 394 168 q 431 281 397 243 q 506 325 465 319 q 563 290 533 325 q 599 214 593 254 m 996 551 q 1008 506 1014 542 q 974 435 1001 469 l 85 422 q 101 533 51 463 l 550 526 l 996 551 z "},"ø":{"ha":881,"x_min":-6,"x_max":906,"o":"m 383 0 q 284 30 336 0 q 189 110 232 60 l 97 0 q 24 31 47 7 q -6 103 1 56 l 132 200 q 103 342 103 267 q 162 522 103 418 q 322 703 221 626 q 529 779 424 779 q 711 656 617 779 l 817 793 q 882 760 858 786 q 904 696 906 733 l 757 583 q 808 410 807 492 q 743 230 808 329 q 577 65 678 131 q 383 0 476 0 m 290 313 l 600 531 q 506 676 567 611 q 357 524 413 613 q 289 336 301 436 q 290 324 289 332 q 290 313 290 315 m 618 475 l 307 235 q 396 101 332 157 q 632 396 589 201 q 618 475 628 442 z "},"ù":{"ha":846,"x_min":35,"x_max":832,"o":"m 832 704 l 718 485 q 708 19 701 285 q 592 3 663 -7 q 475 56 522 14 l 540 213 l 524 226 q 325 0 467 151 q 35 172 75 31 l 122 399 q 122 504 121 453 q 118 758 124 647 q 245 763 181 776 q 347 706 310 750 q 232 213 336 553 q 329 144 246 169 q 525 360 464 272 q 615 760 572 619 q 760 758 711 771 q 832 704 810 746 m 476 836 l 393 956 l 274 1068 q 358 1138 296 1121 q 461 1135 419 1156 l 567 865 q 531 838 557 846 q 476 836 504 829 z "},"ú":{"ha":846,"x_min":35,"x_max":832,"o":"m 832 704 l 718 485 q 708 19 701 285 q 592 3 663 -7 q 475 56 522 14 l 540 213 l 524 226 q 325 0 467 151 q 35 172 75 31 l 122 399 q 122 504 121 453 q 118 758 124 647 q 245 763 181 776 q 347 706 310 750 q 232 213 336 553 q 329 144 246 169 q 525 360 464 272 q 615 760 572 619 q 760 758 711 771 q 832 704 810 746 m 778 1061 l 525 829 q 470 841 493 829 q 447 874 447 853 l 542 1004 l 583 1129 q 709 1124 656 1143 q 778 1061 763 1106 z "},"û":{"ha":846,"x_min":35,"x_max":832,"o":"m 832 704 l 718 485 q 708 19 701 285 q 592 3 663 -7 q 475 56 522 14 l 540 213 l 524 226 q 325 0 467 151 q 35 172 75 31 l 122 399 q 122 504 121 453 q 118 758 124 647 q 245 763 181 776 q 347 706 310 750 q 232 213 336 553 q 329 144 246 169 q 525 360 464 272 q 615 760 572 619 q 760 758 711 771 q 832 704 810 746 m 771 868 q 678 832 731 832 q 589 850 625 832 l 511 1013 l 311 836 q 232 886 236 839 l 472 1107 q 653 1085 579 1129 l 771 868 z "},"ü":{"ha":846,"x_min":35,"x_max":832,"o":"m 832 704 l 718 485 q 708 19 701 285 q 592 3 663 -7 q 475 56 522 14 l 540 213 l 524 226 q 325 0 467 151 q 35 172 75 31 l 122 399 q 122 504 121 453 q 118 758 124 647 q 245 763 181 776 q 347 706 310 750 q 232 213 336 553 q 329 144 246 169 q 525 360 464 272 q 615 760 572 619 q 760 758 711 771 q 832 704 810 746 m 407 891 q 393 877 407 891 q 339 863 379 863 q 270 891 299 863 q 242 958 242 919 q 270 1025 242 997 q 339 1053 299 1053 q 407 1026 379 1053 q 435 959 435 999 q 407 891 435 919 m 661 958 q 654 943 661 950 q 638 936 647 936 q 621 943 629 936 q 613 958 613 950 q 637 979 613 979 q 661 958 661 979 z "},"ý":{"ha":790,"x_min":18,"x_max":822,"o":"m 51 232 l 121 422 q 114 758 128 599 q 237 765 169 778 q 347 704 304 751 q 244 268 328 540 q 279 221 257 239 q 349 188 301 203 q 526 361 461 274 q 606 760 576 671 q 749 760 699 774 q 822 704 799 747 l 692 464 q 585 -293 622 85 q 263 -403 496 -410 q 99 -284 163 -356 q 18 -137 35 -212 q 115 -56 60 -76 q 217 -64 169 -36 q 326 -276 236 -193 q 400 -256 379 -281 q 465 83 428 -136 l 526 196 l 508 213 q 350 51 453 146 q 51 232 85 88 m 778 1061 l 525 829 q 470 841 493 829 q 447 874 447 853 l 542 1004 l 583 1129 q 709 1124 656 1143 q 778 1061 763 1106 z "},"þ":{"ha":838,"x_min":-32,"x_max":822,"o":"m 288 564 l 307 544 q 497 764 418 686 q 727 667 658 739 q 822 449 796 594 q 615 144 771 257 q 256 3 460 31 q 200 -367 221 -262 q 70 -383 135 -392 q -32 -333 6 -374 q 196 749 121 150 l 203 1099 q 333 1151 278 1143 q 440 1138 389 1160 l 353 808 l 338 653 l 288 564 m 307 415 l 269 110 q 519 242 426 149 q 629 458 611 335 q 590 561 618 524 q 506 622 563 599 q 307 415 417 554 z "},"ÿ":{"ha":790,"x_min":18,"x_max":822,"o":"m 51 232 l 121 422 q 114 758 128 599 q 237 765 169 778 q 347 704 304 751 q 244 268 328 540 q 279 221 257 239 q 349 188 301 203 q 526 361 461 274 q 606 760 576 671 q 749 760 699 774 q 822 704 799 747 l 692 464 q 585 -293 622 85 q 263 -403 496 -410 q 99 -284 163 -356 q 18 -137 35 -212 q 115 -56 60 -76 q 217 -64 169 -36 q 326 -276 236 -193 q 400 -256 379 -281 q 465 83 428 -136 l 526 196 l 508 213 q 350 51 453 146 q 51 232 85 88 m 407 891 q 393 877 407 891 q 339 863 379 863 q 270 891 299 863 q 242 958 242 919 q 270 1025 242 997 q 339 1053 299 1053 q 407 1026 379 1053 q 435 959 435 999 q 407 891 435 919 m 661 958 q 654 943 661 950 q 638 936 647 936 q 621 943 629 936 q 613 958 613 950 q 637 979 613 979 q 661 958 661 979 z "},"Ā":{"ha":931,"x_min":0,"x_max":954,"o":"m 758 496 l 908 524 q 901 406 954 486 l 767 397 l 800 17 q 678 2 754 -7 q 558 47 603 11 l 586 385 l 403 374 l 358 368 l 217 17 q 90 3 158 -7 q 0 50 21 14 l 154 344 l 57 333 q 64 453 10 386 l 214 457 l 317 653 l 433 985 q 561 1024 493 1014 q 761 1007 683 1040 l 735 771 l 758 496 m 396 461 l 592 465 l 578 874 l 561 869 l 396 461 m 853 1143 l 396 1129 q 413 1225 364 1163 l 647 1218 l 874 1242 q 888 1204 893 1232 q 853 1143 882 1176 z "},"ā":{"ha":868,"x_min":43,"x_max":865,"o":"m 532 225 l 333 19 q 117 96 189 25 q 46 279 46 167 q 176 606 43 453 q 493 764 308 760 q 628 613 565 721 l 628 614 q 651 763 628 714 q 796 761 747 774 q 865 704 844 749 l 747 485 q 729 19 729 306 q 610 4 685 -7 q 489 57 536 15 l 550 207 l 532 225 m 481 646 q 315 501 375 599 q 254 297 254 403 q 321 153 254 192 q 567 364 407 226 l 597 513 q 481 646 556 600 m 788 869 l 331 856 q 347 951 300 889 l 582 944 l 808 968 q 822 931 828 958 q 788 869 817 903 z "},"Ă":{"ha":931,"x_min":0,"x_max":954,"o":"m 758 496 l 908 524 q 901 406 954 486 l 767 397 l 800 17 q 678 2 754 -7 q 558 47 603 11 l 586 385 l 403 374 l 358 368 l 217 17 q 90 3 158 -7 q 0 50 21 14 l 154 344 l 57 333 q 64 453 10 386 l 214 457 l 317 653 l 433 985 q 561 1024 493 1014 q 761 1007 683 1040 l 735 771 l 758 496 m 396 461 l 592 465 l 578 874 l 561 869 l 396 461 m 876 1286 q 797 1167 857 1215 q 658 1119 738 1119 q 515 1171 578 1119 q 432 1314 451 1222 q 496 1336 456 1340 q 604 1221 526 1243 q 728 1336 714 1239 q 876 1286 847 1360 z "},"ă":{"ha":868,"x_min":43,"x_max":865,"o":"m 532 225 l 333 19 q 117 96 189 25 q 46 279 46 167 q 176 606 43 453 q 493 764 308 760 q 628 613 565 721 l 628 614 q 651 763 628 714 q 796 761 747 774 q 865 704 844 749 l 747 485 q 729 19 729 306 q 610 4 685 -7 q 489 57 536 15 l 550 207 l 532 225 m 481 646 q 315 501 375 599 q 254 297 254 403 q 321 153 254 192 q 567 364 407 226 l 597 513 q 481 646 556 600 m 811 1013 q 732 894 792 942 q 592 846 672 846 q 449 897 513 846 q 367 1040 386 949 q 431 1063 390 1067 q 539 947 461 969 q 663 1063 649 965 q 811 1013 782 1086 z "},"Ą":{"ha":931,"x_min":0,"x_max":954,"o":"m 603 -160 q 711 -210 633 -210 q 858 -156 789 -210 q 907 -214 906 -156 q 657 -318 810 -318 q 513 -276 578 -318 q 447 -182 447 -235 q 607 21 447 -72 q 558 47 576 32 l 586 385 l 403 374 l 358 368 l 217 17 q 90 3 158 -7 q 0 50 21 14 l 154 344 l 57 333 q 64 453 10 386 l 214 457 l 317 653 l 433 985 q 561 1024 493 1014 q 761 1007 683 1040 l 735 771 l 758 496 l 908 524 q 901 406 954 486 l 767 397 l 800 17 q 771 6 785 8 q 666 -58 713 -12 q 603 -160 619 -103 m 396 461 l 592 465 l 578 874 l 561 869 l 396 461 z "},"ą":{"ha":864,"x_min":43,"x_max":865,"o":"m 532 225 l 333 19 q 117 96 189 25 q 46 279 46 167 q 176 606 43 453 q 493 764 308 760 q 628 613 565 721 l 628 614 q 651 763 628 714 q 796 761 747 774 q 865 704 844 749 l 747 485 q 729 19 729 306 q 693 6 711 10 l 693 1 q 562 -70 615 -19 q 499 -189 508 -121 q 622 -209 557 -218 q 739 -157 688 -200 q 781 -169 768 -156 q 796 -214 793 -183 q 574 -318 711 -318 q 427 -276 481 -318 q 374 -177 374 -235 q 415 -64 374 -119 q 528 31 457 -8 q 489 57 507 40 l 550 207 l 532 225 m 481 646 q 315 501 375 599 q 254 297 254 403 q 321 153 254 192 q 567 364 407 226 l 597 513 q 481 646 556 600 z "},"Ć":{"ha":894,"x_min":65,"x_max":878,"o":"m 574 926 q 354 728 440 860 q 268 467 268 596 q 319 263 268 338 q 478 139 369 188 q 744 300 638 200 q 809 281 788 306 q 828 217 831 257 q 676 97 774 156 q 472 0 578 38 q 165 158 265 42 q 65 449 65 274 q 176 786 67 600 q 392 956 278 889 q 654 1047 506 1024 q 813 933 757 1010 q 878 761 868 856 q 788 703 847 719 q 664 713 728 688 q 599 932 653 869 l 574 926 m 678 1403 q 803 1398 750 1417 q 872 1335 857 1379 l 619 1103 q 565 1115 588 1103 q 542 1147 542 1126 l 636 1278 l 678 1403 z "},"ć":{"ha":764,"x_min":49,"x_max":782,"o":"m 494 771 q 649 697 597 753 q 721 549 701 640 q 644 485 699 503 q 518 483 589 468 q 506 583 519 544 q 458 661 492 622 l 425 654 q 306 518 350 597 q 258 360 261 439 q 281 222 254 281 q 382 119 308 163 q 632 246 540 167 q 692 158 711 249 q 544 60 642 106 q 353 0 446 14 q 121 119 193 28 q 51 321 49 210 q 126 535 53 432 q 494 771 290 728 m 588 1129 q 713 1124 660 1143 q 782 1061 767 1106 l 529 829 q 474 841 497 829 q 451 874 451 853 l 546 1004 l 588 1129 z "},"Č":{"ha":894,"x_min":65,"x_max":883,"o":"m 574 926 q 354 728 440 860 q 268 467 268 596 q 319 263 268 338 q 478 139 369 188 q 744 300 638 200 q 809 281 788 306 q 828 217 831 257 q 676 97 774 156 q 472 0 578 38 q 165 158 265 42 q 65 449 65 274 q 176 786 67 600 q 392 956 278 889 q 654 1047 506 1024 q 813 933 757 1010 q 878 761 868 856 q 788 703 847 719 q 664 713 728 688 q 599 932 653 869 l 574 926 m 676 1128 q 493 1126 564 1086 l 365 1333 q 403 1365 376 1356 q 457 1365 429 1374 l 564 1188 l 726 1368 q 813 1375 758 1383 q 883 1326 868 1367 l 676 1128 z "},"č":{"ha":764,"x_min":49,"x_max":794,"o":"m 494 771 q 649 697 597 753 q 721 549 701 640 q 644 485 699 503 q 518 483 589 468 q 506 583 519 544 q 458 661 492 622 l 425 654 q 306 518 350 597 q 258 360 261 439 q 281 222 254 281 q 382 119 308 163 q 632 246 540 167 q 692 158 711 249 q 544 60 642 106 q 353 0 446 14 q 121 119 193 28 q 51 321 49 210 q 126 535 53 432 q 494 771 290 728 m 588 854 q 404 853 475 813 l 276 1060 q 314 1091 288 1082 q 368 1092 340 1100 l 475 914 l 638 1094 q 724 1101 669 1110 q 794 1053 779 1093 l 588 854 z "},"Ď":{"ha":965,"x_min":64,"x_max":954,"o":"m 485 1032 q 832 906 710 1032 q 954 578 954 781 q 874 290 954 422 q 647 67 794 158 q 221 0 442 -1 q 64 129 88 36 q 224 664 181 446 l 228 878 l 172 868 q 133 931 138 896 q 149 986 128 965 q 485 1032 290 1032 m 339 472 l 292 117 q 532 151 431 121 q 749 558 749 314 q 674 808 747 715 q 450 899 601 900 q 339 472 365 569 m 819 1326 l 613 1128 q 429 1126 500 1086 l 301 1333 q 339 1365 313 1356 q 393 1365 365 1374 l 500 1188 l 663 1368 q 749 1375 694 1383 q 819 1326 804 1367 z "},"ď":{"ha":950,"x_min":43,"x_max":1171,"o":"m 999 1068 l 969 1258 q 1095 1285 1040 1304 q 1171 1211 1150 1265 q 1114 1052 1164 1132 q 986 910 1064 972 q 918 946 935 910 l 999 1068 m 661 749 l 657 1108 q 892 1138 804 1179 l 803 811 q 699 19 796 744 q 576 2 649 -7 q 469 54 503 11 l 543 206 l 528 221 q 332 19 356 44 q 118 94 193 21 q 44 280 43 167 q 104 503 46 393 q 269 688 163 614 q 500 764 376 763 q 631 615 572 739 q 661 749 646 675 m 319 153 l 567 364 l 603 513 q 485 650 547 611 q 318 503 379 603 q 254 288 257 403 q 319 153 254 192 z "},"Đ":{"ha":986,"x_min":33,"x_max":974,"o":"m 504 1032 q 851 906 729 1032 q 974 578 974 781 q 894 290 974 422 q 667 67 814 158 q 240 0 461 -1 q 83 129 107 36 q 196 465 163 343 l 79 447 q 36 517 39 479 q 63 576 33 554 l 221 560 q 243 664 225 576 l 247 878 l 192 868 q 152 931 157 896 q 168 986 147 965 q 504 1032 310 1032 m 358 472 l 311 117 q 551 151 450 121 q 768 558 768 314 q 694 808 767 715 q 469 899 621 900 q 388 578 422 710 l 579 607 q 622 558 614 593 q 600 488 629 524 l 364 490 l 358 472 z "},"đ":{"ha":818,"x_min":43,"x_max":1013,"o":"m 842 953 l 993 968 q 1007 931 1013 958 q 972 869 1001 903 l 818 865 l 803 811 q 699 19 796 744 q 576 2 649 -7 q 469 54 503 11 l 543 206 l 528 221 q 332 19 356 44 q 118 94 193 21 q 44 280 43 167 q 104 503 46 393 q 269 688 163 614 q 500 764 376 763 q 631 615 572 739 q 661 749 646 675 l 660 860 l 515 856 q 532 951 483 889 l 658 947 l 657 1108 q 892 1138 804 1179 l 842 953 m 319 153 l 567 364 l 603 513 q 485 650 547 611 q 318 503 379 603 q 254 288 257 403 q 319 153 254 192 z "},"Ē":{"ha":831,"x_min":75,"x_max":888,"o":"m 800 1242 q 814 1204 819 1232 q 779 1143 808 1176 l 322 1129 q 339 1225 292 1163 l 574 1218 l 800 1242 m 671 899 q 453 897 542 910 l 411 768 l 372 558 q 683 592 442 567 q 703 524 707 564 q 675 443 700 483 q 358 457 469 460 l 283 128 q 699 203 514 160 q 740 161 731 192 q 708 38 758 104 l 235 0 q 75 132 81 39 q 239 683 189 442 l 246 892 q 165 915 219 906 q 172 1006 142 975 q 854 1019 493 1033 q 866 906 888 965 q 781 810 844 847 l 671 899 z "},"ē":{"ha":768,"x_min":43,"x_max":735,"o":"m 489 776 q 678 662 628 754 q 697 442 729 569 q 250 288 464 331 q 371 121 269 175 q 626 236 525 157 q 690 149 704 239 q 539 56 646 100 q 346 0 432 13 q 117 119 192 28 q 46 335 43 210 q 118 539 50 439 q 489 776 292 721 m 246 372 l 246 368 q 524 475 396 413 q 444 664 540 610 l 421 656 q 297 524 346 604 q 246 372 249 443 m 694 869 l 238 856 q 254 951 206 889 l 489 944 l 715 968 q 729 931 735 958 q 694 869 724 903 z "},"Ė":{"ha":831,"x_min":75,"x_max":888,"o":"m 668 1238 q 668 1218 668 1238 q 640 1170 668 1199 q 571 1142 611 1142 q 502 1170 531 1142 q 474 1238 474 1199 q 502 1305 474 1278 q 572 1332 531 1332 q 640 1304 613 1332 q 668 1238 668 1276 m 671 899 q 453 897 542 910 l 411 768 l 372 558 q 683 592 442 567 q 703 524 707 564 q 675 443 700 483 q 358 457 469 460 l 283 128 q 699 203 514 160 q 740 161 731 192 q 708 38 758 104 l 235 0 q 75 132 81 39 q 239 683 189 442 l 246 892 q 165 915 219 906 q 172 1006 142 975 q 854 1019 493 1033 q 866 906 888 965 q 781 810 844 847 l 671 899 z "},"ė":{"ha":768,"x_min":43,"x_max":729,"o":"m 489 776 q 678 662 628 754 q 697 442 729 569 q 250 288 464 331 q 371 121 269 175 q 626 236 525 157 q 690 149 704 239 q 539 56 646 100 q 346 0 432 13 q 117 119 192 28 q 46 335 43 210 q 118 539 50 439 q 489 776 292 721 m 246 372 l 246 368 q 524 475 396 413 q 444 664 540 610 l 421 656 q 297 524 346 604 q 246 372 249 443 m 585 964 q 585 944 585 964 q 556 897 585 925 q 488 868 528 868 q 419 897 447 868 q 390 965 390 925 q 419 1031 390 1004 q 488 1058 447 1058 q 557 1031 529 1058 q 585 964 585 1003 z "},"Ę":{"ha":825,"x_min":75,"x_max":888,"o":"m 489 -175 q 606 -218 525 -218 q 758 -160 688 -218 q 797 -172 785 -158 q 808 -214 808 -186 q 576 -318 718 -318 q 422 -274 485 -318 q 358 -165 358 -229 q 497 21 358 -68 l 235 0 q 75 132 81 39 q 239 683 189 442 l 246 892 q 165 915 219 906 q 172 1006 142 975 q 854 1019 493 1033 q 866 906 888 965 q 781 810 844 847 l 671 899 q 453 897 542 910 l 411 768 l 372 558 q 683 592 442 567 q 703 524 707 564 q 675 443 700 483 q 358 457 469 460 l 283 128 q 699 203 514 160 q 740 161 731 192 q 708 38 758 104 q 567 -50 633 10 q 489 -175 500 -110 z "},"ę":{"ha":776,"x_min":43,"x_max":729,"o":"m 293 -169 q 414 -211 324 -211 q 579 -149 504 -211 q 638 -201 638 -144 q 536 -285 603 -253 q 380 -318 469 -318 q 229 -272 290 -318 q 168 -161 168 -226 q 278 17 168 -65 q 101 140 158 56 q 47 332 43 225 q 118 539 50 439 q 489 776 292 721 q 678 662 628 754 q 697 442 729 569 q 250 288 464 331 q 371 121 269 175 q 626 236 525 157 q 690 149 704 239 q 508 44 642 93 l 508 40 q 376 -42 440 19 q 293 -169 311 -104 m 246 372 l 246 368 q 524 475 396 413 q 444 664 540 610 l 421 656 q 297 524 346 604 q 246 372 249 443 z "},"Ě":{"ha":831,"x_min":75,"x_max":888,"o":"m 671 899 q 453 897 542 910 l 411 768 l 372 558 q 683 592 442 567 q 703 524 707 564 q 675 443 700 483 q 358 457 469 460 l 283 128 q 699 203 514 160 q 740 161 731 192 q 708 38 758 104 l 235 0 q 75 132 81 39 q 239 683 189 442 l 246 892 q 165 915 219 906 q 172 1006 142 975 q 854 1019 493 1033 q 866 906 888 965 q 781 810 844 847 l 671 899 m 663 1128 q 479 1126 550 1086 l 351 1333 q 389 1365 363 1356 q 443 1365 415 1374 l 550 1188 l 713 1368 q 799 1375 744 1383 q 869 1326 854 1367 l 663 1128 z "},"ě":{"ha":768,"x_min":43,"x_max":786,"o":"m 489 776 q 678 662 628 754 q 697 442 729 569 q 250 288 464 331 q 371 121 269 175 q 626 236 525 157 q 690 149 704 239 q 539 56 646 100 q 346 0 432 13 q 117 119 192 28 q 46 335 43 210 q 118 539 50 439 q 489 776 292 721 m 246 372 l 246 368 q 524 475 396 413 q 444 664 540 610 l 421 656 q 297 524 346 604 q 246 372 249 443 m 786 1053 l 579 854 q 396 853 467 813 l 268 1060 q 306 1091 279 1082 q 360 1092 332 1100 l 467 914 l 629 1094 q 716 1101 661 1110 q 786 1053 771 1093 z "},"Ğ":{"ha":949,"x_min":69,"x_max":918,"o":"m 893 1286 q 814 1167 874 1215 q 674 1119 754 1119 q 531 1171 594 1119 q 449 1314 468 1222 q 513 1336 472 1340 q 621 1221 543 1243 q 744 1336 731 1239 q 893 1286 864 1360 m 69 439 q 101 611 69 521 q 178 767 133 701 q 382 943 258 868 q 646 1042 506 1018 q 827 942 769 1008 q 908 779 885 875 q 821 704 879 725 q 700 715 763 683 q 676 840 692 793 q 621 931 661 888 l 600 929 q 367 731 460 861 q 272 466 274 601 q 317 261 269 331 q 472 131 365 192 q 718 415 633 260 l 713 422 l 513 386 q 474 460 478 415 q 504 533 469 504 q 857 528 696 507 q 864 236 918 431 q 790 8 842 153 q 712 6 751 -4 q 656 44 672 15 q 765 321 739 211 l 756 326 q 485 0 665 133 q 69 439 69 83 z "},"ğ":{"ha":833,"x_min":43,"x_max":863,"o":"m 554 214 l 538 229 q 335 19 372 60 q 117 96 190 25 q 44 279 43 167 q 103 502 46 392 q 265 688 161 613 q 490 764 369 763 q 624 621 561 739 q 647 760 625 717 q 790 761 742 774 q 863 704 839 749 l 736 458 q 626 -275 697 269 q 311 -408 543 -399 q 53 -137 93 -303 q 148 -55 93 -75 q 253 -64 203 -35 q 363 -276 267 -182 q 436 -247 414 -279 q 500 92 465 -137 l 554 214 m 597 514 l 596 513 q 483 650 549 608 q 317 506 378 603 q 255 301 256 408 q 321 153 254 193 q 567 364 407 226 l 597 514 m 796 1013 q 717 894 776 942 q 577 846 657 846 q 434 897 497 846 q 351 1040 371 949 q 415 1063 375 1067 q 524 947 446 969 q 647 1063 633 965 q 796 1013 767 1086 z "},"Ģ":{"ha":949,"x_min":69,"x_max":918,"o":"m 69 439 q 101 611 69 521 q 178 767 133 701 q 382 943 258 868 q 646 1042 506 1018 q 827 942 769 1008 q 908 779 885 875 q 821 704 879 725 q 700 715 763 683 q 676 840 692 793 q 621 931 661 888 l 600 929 q 367 731 460 861 q 272 466 274 601 q 317 261 269 331 q 472 131 365 192 q 718 415 633 260 l 713 422 l 513 386 q 474 460 478 415 q 504 533 469 504 q 857 528 696 507 q 864 236 918 431 q 790 8 842 153 q 712 6 751 -4 q 656 44 672 15 q 765 321 739 211 l 756 326 q 485 0 665 133 q 69 439 69 83 m 367 -60 q 453 -26 410 -26 q 526 -50 497 -26 q 568 -107 556 -74 q 511 -265 561 -186 q 383 -407 461 -344 q 314 -371 331 -410 l 394 -250 l 367 -60 z "},"ģ":{"ha":833,"x_min":43,"x_max":863,"o":"m 554 214 l 538 229 q 335 19 372 60 q 117 96 190 25 q 44 279 43 167 q 103 502 46 392 q 265 688 161 613 q 490 764 369 763 q 624 621 561 739 q 647 760 625 717 q 790 761 742 774 q 863 704 839 749 l 736 458 q 626 -275 697 269 q 311 -408 543 -399 q 53 -137 93 -303 q 148 -55 93 -75 q 253 -64 203 -35 q 363 -276 267 -182 q 436 -247 414 -279 q 500 92 465 -137 l 554 214 m 597 514 l 596 513 q 483 650 549 608 q 317 506 378 603 q 255 301 256 408 q 321 153 254 193 q 567 364 407 226 l 597 514 m 592 1072 l 657 889 q 579 830 624 844 q 498 827 535 815 q 440 865 461 839 q 569 1242 408 1046 q 653 1215 626 1253 l 592 1072 z "},"Ī":{"ha":393,"x_min":25,"x_max":579,"o":"m 560 1242 q 574 1204 579 1232 q 539 1143 568 1176 l 82 1129 q 99 1225 50 1163 l 333 1218 l 560 1242 m 186 986 q 331 1032 269 1032 q 429 1014 393 1032 l 313 593 q 289 344 308 543 q 258 19 269 144 q 126 4 207 -8 q 25 58 46 17 q 176 719 117 369 l 186 986 z "},"ī":{"ha":393,"x_min":17,"x_max":546,"o":"m 526 968 q 540 931 546 958 q 506 869 535 903 l 49 856 q 65 951 17 889 l 300 944 l 526 968 m 154 483 l 147 728 q 368 735 294 793 l 307 522 q 268 19 293 401 q 141 4 215 -8 q 35 58 67 17 q 154 483 106 253 z "},"Į":{"ha":393,"x_min":-56,"x_max":429,"o":"m 74 -176 q 191 -217 114 -217 q 333 -160 268 -217 q 386 -214 392 -157 q 286 -291 349 -262 q 143 -319 224 -319 q 3 -276 63 -319 q -56 -175 -56 -232 q -18 -69 -56 -118 q 82 15 19 -19 q 25 58 40 31 q 176 719 117 369 l 186 986 q 331 1032 269 1032 q 429 1014 393 1032 l 313 593 q 289 344 308 543 q 258 19 269 144 q 254 17 257 18 q 243 13 251 17 l 243 10 q 131 -66 185 -14 q 74 -176 78 -118 z "},"į":{"ha":397,"x_min":-43,"x_max":406,"o":"m 83 -183 q 208 -218 126 -218 q 354 -160 289 -218 q 406 -214 403 -161 q 176 -318 322 -318 q 14 -274 71 -318 q -43 -171 -43 -229 q -8 -62 -43 -112 q 86 22 26 -12 q 38 58 54 35 q 157 483 114 267 l 150 728 q 371 735 297 793 l 310 522 q 271 19 294 374 q 257 14 265 17 l 257 10 q 140 -72 188 -21 q 83 -183 93 -122 m 393 944 q 394 922 393 944 q 363 866 394 899 q 284 833 331 833 q 204 866 238 833 q 169 944 171 899 q 201 1021 168 989 q 281 1053 235 1053 q 360 1022 328 1053 q 393 944 392 990 z "},"İ":{"ha":393,"x_min":25,"x_max":429,"o":"m 429 1238 q 429 1218 429 1238 q 401 1170 429 1199 q 332 1142 372 1142 q 263 1170 292 1142 q 235 1238 235 1199 q 263 1305 235 1278 q 333 1332 292 1332 q 401 1304 374 1332 q 429 1238 429 1276 m 186 986 q 331 1032 269 1032 q 429 1014 393 1032 l 313 593 q 289 344 308 543 q 258 19 269 144 q 126 4 207 -8 q 25 58 46 17 q 176 719 117 369 l 186 986 z "},"ı":{"ha":393,"x_min":35,"x_max":368,"o":"m 154 483 l 147 728 q 368 735 294 793 l 307 522 q 268 19 293 401 q 141 4 215 -8 q 35 58 67 17 q 154 483 106 253 z "},"Ķ":{"ha":917,"x_min":42,"x_max":919,"o":"m 204 994 q 351 1039 292 1039 q 447 1021 411 1039 l 329 593 l 326 567 l 508 688 l 768 1039 q 919 901 919 1021 q 696 715 836 822 q 429 532 556 608 q 818 179 540 256 q 813 75 844 129 q 703 0 782 21 q 481 201 571 69 q 356 493 392 332 l 318 469 q 275 19 275 22 q 143 4 224 -8 q 42 58 63 17 q 193 719 138 385 l 204 994 m 319 -60 q 406 -26 363 -26 q 479 -50 450 -26 q 521 -107 508 -74 q 464 -265 514 -186 q 335 -407 414 -344 q 267 -371 283 -410 l 347 -250 l 319 -60 z "},"ķ":{"ha":799,"x_min":28,"x_max":775,"o":"m 282 497 l 290 482 q 672 771 479 667 q 752 709 729 763 q 736 590 775 656 q 343 422 511 533 q 713 178 457 243 q 717 84 746 139 q 617 0 688 29 q 431 136 515 51 q 293 319 347 221 q 256 21 272 138 q 124 4 199 -7 q 28 57 50 15 q 207 786 124 324 l 164 1083 q 376 1142 253 1168 q 374 936 386 1060 q 325 558 363 813 l 282 497 m 319 -250 l 292 -60 q 358 -28 324 -35 q 417 -33 392 -22 q 492 -107 475 -56 q 436 -265 486 -186 q 307 -407 386 -344 q 239 -371 256 -410 l 319 -250 z "},"Ĺ":{"ha":732,"x_min":31,"x_max":688,"o":"m 201 986 q 444 1014 346 1064 l 319 556 l 244 128 q 631 206 421 154 q 669 164 661 193 q 646 51 688 107 l 189 0 q 31 129 49 42 q 193 717 124 375 l 201 986 m 417 1403 q 542 1398 489 1417 q 611 1335 596 1379 l 358 1103 q 303 1115 326 1103 q 281 1147 281 1126 l 375 1278 l 417 1403 z "},"ĺ":{"ha":419,"x_min":44,"x_max":597,"o":"m 206 749 l 208 1100 q 444 1136 343 1182 l 356 814 q 283 21 296 138 q 149 4 232 -8 q 44 58 67 17 q 206 749 153 397 m 403 1504 q 528 1499 475 1518 q 597 1436 582 1481 l 344 1204 q 290 1216 313 1204 q 267 1249 267 1228 l 361 1379 l 403 1504 z "},"Ļ":{"ha":732,"x_min":31,"x_max":688,"o":"m 201 986 q 444 1014 346 1064 l 319 556 l 244 128 q 631 206 421 154 q 669 164 661 193 q 646 51 688 107 l 189 0 q 31 129 49 42 q 193 717 124 375 l 201 986 m 260 -407 q 192 -371 208 -410 l 272 -250 l 244 -60 q 369 -33 314 -12 q 444 -107 425 -53 q 389 -265 439 -186 q 260 -407 339 -344 z "},"ļ":{"ha":419,"x_min":4,"x_max":444,"o":"m 206 749 l 208 1100 q 444 1136 343 1182 l 356 814 q 283 21 296 138 q 149 4 232 -8 q 44 58 67 17 q 206 749 153 397 m 72 -407 q 4 -371 21 -410 l 85 -250 l 56 -60 q 181 -33 125 -12 q 257 -107 238 -53 q 200 -265 250 -186 q 72 -407 150 -344 z "},"Ľ":{"ha":732,"x_min":31,"x_max":765,"o":"m 201 986 q 444 1014 346 1064 l 319 556 l 244 128 q 631 206 421 154 q 669 164 661 193 q 646 51 688 107 l 189 0 q 31 129 49 42 q 193 717 124 375 l 201 986 m 581 786 q 513 824 529 786 l 593 944 l 565 1135 q 690 1161 635 1181 q 765 1088 746 1142 q 710 928 760 1008 q 581 786 660 849 z "},"ľ":{"ha":499,"x_min":44,"x_max":719,"o":"m 206 749 l 208 1100 q 444 1136 343 1182 l 356 814 q 283 21 296 138 q 149 4 232 -8 q 44 58 67 17 q 206 749 153 397 m 535 910 q 467 946 483 910 l 547 1068 l 518 1258 q 644 1285 588 1304 q 719 1211 700 1265 q 663 1052 713 1132 q 535 910 613 972 z "},"Ł":{"ha":824,"x_min":33,"x_max":779,"o":"m 406 526 l 336 128 q 722 206 513 154 q 761 164 753 193 q 738 51 779 107 l 281 0 q 122 129 140 42 q 231 478 183 288 l 92 433 q 43 497 53 458 q 56 556 33 535 l 253 567 q 270 647 260 594 q 285 717 281 700 l 293 986 q 536 1014 438 1064 l 429 622 l 596 679 q 647 639 633 671 q 632 564 660 607 l 406 526 z "},"ł":{"ha":628,"x_min":47,"x_max":656,"o":"m 436 636 l 593 689 q 644 653 632 682 q 633 575 656 624 l 428 542 q 379 21 397 197 q 245 4 328 -8 q 140 58 163 17 q 256 490 208 272 l 114 447 q 58 509 68 469 q 72 571 47 549 l 275 588 q 301 749 278 607 l 304 1100 q 540 1136 439 1182 l 451 814 q 436 636 440 690 z "},"Ń":{"ha":988,"x_min":11,"x_max":1038,"o":"m 794 986 q 940 1031 879 1031 q 1038 1014 1000 1031 l 919 593 q 892 334 914 529 q 860 19 871 139 q 735 3 801 -6 q 628 46 669 13 q 363 825 458 393 l 303 593 q 274 309 296 504 q 244 19 253 114 q 112 4 192 -8 q 11 58 32 17 q 167 715 113 399 l 181 986 q 346 1032 268 1032 q 428 1010 388 1032 q 613 356 519 643 l 682 224 q 783 714 769 631 l 794 986 m 913 1335 l 660 1103 q 605 1115 628 1103 q 582 1147 582 1126 l 676 1278 l 718 1403 q 844 1398 790 1417 q 913 1335 897 1379 z "},"ń":{"ha":850,"x_min":32,"x_max":801,"o":"m 801 578 l 744 411 q 740 19 731 228 q 624 3 693 -7 q 510 56 556 14 q 600 540 532 243 q 544 615 589 592 q 310 426 432 560 q 261 19 296 254 q 129 4 203 -7 q 32 54 56 15 q 161 497 111 282 l 121 706 q 331 765 211 783 q 332 629 344 718 l 288 564 l 301 547 q 565 764 417 683 q 722 701 661 757 q 801 578 782 646 m 774 1061 l 521 829 q 466 841 489 829 q 443 874 443 853 l 538 1004 l 579 1129 q 705 1124 651 1143 q 774 1061 758 1106 z "},"Ņ":{"ha":988,"x_min":11,"x_max":1038,"o":"m 794 986 q 940 1031 879 1031 q 1038 1014 1000 1031 l 919 593 q 892 334 914 529 q 860 19 871 139 q 735 3 801 -6 q 628 46 669 13 q 363 825 458 393 l 303 593 q 274 309 296 504 q 244 19 253 114 q 112 4 192 -8 q 11 58 32 17 q 167 715 113 399 l 181 986 q 346 1032 268 1032 q 428 1010 388 1032 q 613 356 519 643 l 682 224 q 783 714 769 631 l 794 986 m 343 -60 q 430 -26 386 -26 q 503 -50 474 -26 q 544 -107 532 -74 q 488 -265 538 -186 q 360 -407 438 -344 q 292 -371 308 -410 l 372 -250 l 343 -60 z "},"ņ":{"ha":850,"x_min":32,"x_max":801,"o":"m 801 578 l 744 411 q 740 19 731 228 q 624 3 693 -7 q 510 56 556 14 q 600 540 532 243 q 544 615 589 592 q 310 426 432 560 q 261 19 296 254 q 129 4 203 -7 q 32 54 56 15 q 161 497 111 282 l 121 706 q 331 765 211 783 q 332 629 344 718 l 288 564 l 301 547 q 565 764 417 683 q 722 701 661 757 q 801 578 782 646 m 328 -250 l 300 -60 q 366 -28 332 -35 q 425 -33 400 -22 q 500 -107 483 -56 q 444 -265 494 -186 q 315 -407 394 -344 q 247 -371 264 -410 l 328 -250 z "},"Ň":{"ha":988,"x_min":11,"x_max":1038,"o":"m 794 986 q 940 1031 879 1031 q 1038 1014 1000 1031 l 919 593 q 892 334 914 529 q 860 19 871 139 q 735 3 801 -6 q 628 46 669 13 q 363 825 458 393 l 303 593 q 274 309 296 504 q 244 19 253 114 q 112 4 192 -8 q 11 58 32 17 q 167 715 113 399 l 181 986 q 346 1032 268 1032 q 428 1010 388 1032 q 613 356 519 643 l 682 224 q 783 714 769 631 l 794 986 m 925 1326 l 718 1128 q 535 1126 606 1086 l 407 1333 q 444 1365 418 1356 q 499 1365 471 1374 l 606 1188 l 768 1368 q 855 1375 800 1383 q 925 1326 910 1367 z "},"ň":{"ha":850,"x_min":32,"x_max":801,"o":"m 801 578 l 744 411 q 740 19 731 228 q 624 3 693 -7 q 510 56 556 14 q 600 540 532 243 q 544 615 589 592 q 310 426 432 560 q 261 19 296 254 q 129 4 203 -7 q 32 54 56 15 q 161 497 111 282 l 121 706 q 331 765 211 783 q 332 629 344 718 l 288 564 l 301 547 q 565 764 417 683 q 722 701 661 757 q 801 578 782 646 m 786 1053 l 579 854 q 396 853 467 813 l 268 1060 q 306 1091 279 1082 q 360 1092 332 1100 l 467 914 l 629 1094 q 716 1101 661 1110 q 786 1053 771 1093 z "},"Ō":{"ha":925,"x_min":65,"x_max":913,"o":"m 264 451 q 306 256 264 349 q 421 107 347 164 q 725 510 647 249 q 676 750 710 649 q 569 935 642 851 q 349 722 435 857 q 264 451 264 588 m 65 431 q 139 722 65 579 q 333 953 213 864 q 581 1042 453 1042 q 727 969 650 1042 q 857 778 804 896 q 911 545 910 660 q 834 302 913 431 q 639 87 756 174 q 431 0 522 0 q 254 68 339 0 q 117 237 169 136 q 65 431 65 338 m 838 1243 q 851 1206 857 1233 q 817 1144 846 1178 l 360 1131 q 376 1226 328 1164 l 611 1219 l 838 1243 z "},"ō":{"ha":778,"x_min":39,"x_max":744,"o":"m 476 944 l 703 968 q 717 931 722 958 q 682 869 711 903 l 225 856 q 242 951 194 889 l 476 944 m 39 332 q 97 522 39 418 q 257 703 156 626 q 464 779 358 779 q 589 718 522 779 q 699 572 656 657 q 743 408 742 488 q 679 230 744 329 q 513 65 614 131 q 318 0 413 0 q 131 103 224 0 q 39 332 39 206 m 442 676 q 293 525 349 614 q 224 336 238 436 q 331 101 228 193 q 568 396 524 201 q 442 676 551 561 z "},"Ő":{"ha":925,"x_min":65,"x_max":913,"o":"m 264 451 q 306 256 264 349 q 421 107 347 164 q 725 510 647 249 q 676 750 710 649 q 569 935 642 851 q 349 722 435 857 q 264 451 264 588 m 65 431 q 139 722 65 579 q 333 953 213 864 q 581 1042 453 1042 q 727 969 650 1042 q 857 778 804 896 q 911 545 910 660 q 834 302 913 431 q 639 87 756 174 q 431 0 522 0 q 254 68 339 0 q 117 237 169 136 q 65 431 65 338 m 638 1119 l 747 1353 q 901 1353 854 1376 l 860 1268 l 728 1107 q 638 1119 672 1103 m 404 1119 l 518 1353 q 671 1353 624 1376 l 629 1268 l 504 1107 q 404 1119 444 1103 z "},"ő":{"ha":778,"x_min":39,"x_max":767,"o":"m 269 844 l 383 1078 q 536 1078 489 1101 l 494 993 l 369 832 q 269 844 310 828 m 503 844 l 613 1078 q 767 1078 719 1101 l 725 993 l 593 832 q 503 844 538 828 m 39 332 q 97 522 39 418 q 257 703 156 626 q 464 779 358 779 q 589 718 522 779 q 699 572 656 657 q 743 408 742 488 q 679 230 744 329 q 513 65 614 131 q 318 0 413 0 q 131 103 224 0 q 39 332 39 206 m 442 676 q 293 525 349 614 q 224 336 238 436 q 331 101 228 193 q 568 396 524 201 q 442 676 551 561 z "},"Œ":{"ha":1338,"x_min":67,"x_max":1375,"o":"m 265 451 q 306 256 264 349 q 428 107 349 163 q 731 546 675 251 q 692 764 725 681 q 571 935 658 847 q 351 722 436 857 q 265 451 265 588 m 1210 203 q 1244 83 1279 179 q 1221 38 1236 58 l 772 0 q 629 90 676 25 q 424 0 519 0 q 183 143 297 0 q 67 433 68 286 q 140 722 67 579 q 335 953 214 864 q 582 1042 456 1042 q 771 944 658 1042 q 995 1015 872 1000 q 1342 1022 1118 1031 q 1354 909 1375 969 q 1271 813 1333 849 l 1161 901 q 931 889 1031 913 l 882 821 l 881 560 q 1190 592 949 568 q 1212 524 1215 564 q 1183 443 1208 483 q 868 457 979 458 l 803 132 q 1210 203 958 149 z "},"œ":{"ha":1269,"x_min":39,"x_max":1235,"o":"m 318 0 q 131 103 224 0 q 39 332 39 206 q 97 522 39 418 q 257 703 156 626 q 464 779 358 779 q 575 730 517 779 q 679 606 633 681 q 1003 776 844 746 q 1185 661 1136 754 q 1204 442 1235 568 q 753 288 975 332 q 868 121 769 178 q 1136 240 1038 160 q 1191 222 1175 242 q 1200 154 1207 201 q 1041 57 1150 103 q 842 0 932 11 q 622 158 693 49 q 475 44 557 88 q 318 0 393 0 m 331 101 q 568 396 524 201 q 442 676 551 561 q 293 525 349 614 q 224 336 238 436 q 331 101 228 193 m 749 372 l 749 369 q 1028 475 901 413 q 951 664 1042 608 l 928 656 q 801 524 851 603 q 749 372 751 446 z "},"Ŕ":{"ha":906,"x_min":82,"x_max":872,"o":"m 165 1001 q 467 1040 289 1040 q 759 958 646 1040 q 870 766 872 876 q 811 585 868 656 q 619 446 754 515 q 464 431 546 435 q 587 271 513 326 q 803 178 661 215 q 795 74 831 125 q 685 0 760 24 q 478 180 556 68 q 381 428 401 292 l 357 428 q 315 21 342 242 q 192 3 274 -7 q 82 53 111 14 q 228 688 165 326 l 240 904 l 174 907 q 149 958 151 929 q 165 1001 147 988 m 569 550 q 650 643 625 596 q 675 758 675 690 q 617 874 675 825 q 444 924 558 924 l 369 603 q 366 557 368 588 q 363 511 364 526 q 569 550 464 517 m 789 1335 l 536 1103 q 481 1115 504 1103 q 458 1147 458 1126 l 553 1278 l 594 1403 q 720 1398 667 1417 q 789 1335 774 1379 z "},"ŕ":{"ha":676,"x_min":36,"x_max":689,"o":"m 292 564 l 307 546 q 513 764 504 756 q 639 690 590 749 q 689 540 688 631 q 590 494 643 501 q 492 511 538 486 q 467 600 493 571 q 315 446 378 511 q 265 19 300 254 q 133 4 207 -7 q 36 54 60 15 q 165 497 115 282 l 126 706 q 335 765 215 785 q 335 629 349 719 l 292 564 m 689 1061 l 436 829 q 381 841 404 829 q 358 874 358 853 l 453 1004 l 494 1129 q 620 1124 567 1143 q 689 1061 674 1106 z "},"Ŗ":{"ha":906,"x_min":82,"x_max":872,"o":"m 165 1001 q 467 1040 289 1040 q 759 958 646 1040 q 870 766 872 876 q 811 585 868 656 q 619 446 754 515 q 464 431 546 435 q 587 271 513 326 q 803 178 661 215 q 795 74 831 125 q 685 0 760 24 q 478 180 556 68 q 381 428 401 292 l 357 428 q 315 21 342 242 q 192 3 274 -7 q 82 53 111 14 q 228 688 165 326 l 240 904 l 174 907 q 149 958 151 929 q 165 1001 147 988 m 569 550 q 650 643 625 596 q 675 758 675 690 q 617 874 675 825 q 444 924 558 924 l 369 603 q 366 557 368 588 q 363 511 364 526 q 569 550 464 517 m 343 -60 q 430 -26 386 -26 q 503 -50 474 -26 q 544 -107 532 -74 q 488 -265 538 -186 q 360 -407 438 -344 q 290 -371 307 -410 l 371 -250 l 343 -60 z "},"ŗ":{"ha":676,"x_min":-1,"x_max":689,"o":"m 292 564 l 307 546 q 513 764 504 756 q 639 690 590 749 q 689 540 688 631 q 590 494 643 501 q 492 511 538 486 q 467 600 493 571 q 315 446 378 511 q 265 19 300 254 q 133 4 207 -7 q 36 54 60 15 q 165 497 115 282 l 126 706 q 335 765 215 785 q 335 629 349 719 l 292 564 m 51 -60 q 138 -26 94 -26 q 211 -50 182 -26 q 253 -107 240 -74 q 196 -265 246 -186 q 68 -407 146 -344 q -1 -371 15 -410 l 79 -250 l 51 -60 z "},"Ř":{"ha":906,"x_min":82,"x_max":872,"o":"m 165 1001 q 467 1040 289 1040 q 759 958 646 1040 q 870 766 872 876 q 811 585 868 656 q 619 446 754 515 q 464 431 546 435 q 587 271 513 326 q 803 178 661 215 q 795 74 831 125 q 685 0 760 24 q 478 180 556 68 q 381 428 401 292 l 357 428 q 315 21 342 242 q 192 3 274 -7 q 82 53 111 14 q 228 688 165 326 l 240 904 l 174 907 q 149 958 151 929 q 165 1001 147 988 m 569 550 q 650 643 625 596 q 675 758 675 690 q 617 874 675 825 q 444 924 558 924 l 369 603 q 366 557 368 588 q 363 511 364 526 q 569 550 464 517 m 800 1326 l 593 1128 q 410 1126 481 1086 l 282 1333 q 319 1365 293 1356 q 374 1365 346 1374 l 481 1188 l 643 1368 q 730 1375 675 1383 q 800 1326 785 1367 z "},"ř":{"ha":676,"x_min":36,"x_max":701,"o":"m 292 564 l 307 546 q 513 764 504 756 q 639 690 590 749 q 689 540 688 631 q 590 494 643 501 q 492 511 538 486 q 467 600 493 571 q 315 446 378 511 q 265 19 300 254 q 133 4 207 -7 q 36 54 60 15 q 165 497 115 282 l 126 706 q 335 765 215 785 q 335 629 349 719 l 292 564 m 701 1053 l 494 854 q 311 853 382 813 l 183 1060 q 221 1091 194 1082 q 275 1092 247 1100 l 382 914 l 544 1094 q 631 1101 576 1110 q 701 1053 686 1093 z "},"Ś":{"ha":882,"x_min":25,"x_max":858,"o":"m 618 310 q 569 372 618 339 q 451 440 521 404 q 308 518 381 476 q 181 622 236 560 q 114 756 125 685 q 290 953 168 875 q 554 1046 413 1032 q 732 970 656 1025 q 850 835 808 915 q 658 742 824 714 q 546 942 628 868 q 391 867 467 921 q 317 774 315 813 q 388 687 318 735 q 546 594 458 639 q 719 481 633 550 q 832 342 806 411 q 692 116 811 206 q 378 0 574 26 q 158 100 260 26 q 25 253 56 174 q 110 349 64 321 q 232 353 157 376 q 287 217 253 271 q 390 106 321 164 q 553 184 489 128 q 618 310 618 240 m 664 1403 q 790 1398 736 1417 q 858 1335 843 1379 l 606 1103 q 551 1115 574 1103 q 528 1147 528 1126 l 622 1278 l 664 1403 z "},"ś":{"ha":726,"x_min":28,"x_max":731,"o":"m 471 228 q 297 344 471 264 q 169 426 232 375 q 89 532 106 476 q 226 711 125 642 q 453 789 326 781 q 665 613 615 750 q 618 550 661 569 q 499 543 575 531 q 428 700 485 636 q 316 640 367 681 q 265 573 265 600 q 320 513 265 546 q 444 448 375 479 q 577 364 513 417 q 657 254 642 311 q 528 72 628 139 q 283 0 429 6 q 122 67 192 17 q 28 183 53 118 q 97 269 57 243 q 196 276 136 294 q 228 168 207 210 q 293 83 250 126 q 421 142 371 100 q 471 228 471 185 m 536 1129 q 662 1124 608 1143 q 731 1061 715 1106 l 478 829 q 423 841 446 829 q 400 874 400 853 l 494 1004 l 536 1129 z "},"Ş":{"ha":882,"x_min":25,"x_max":850,"o":"m 618 310 q 569 372 618 339 q 451 440 521 404 q 308 518 381 476 q 181 622 236 560 q 114 756 125 685 q 290 953 168 875 q 554 1046 413 1032 q 732 970 656 1025 q 850 835 808 915 q 658 742 824 714 q 546 942 628 868 q 391 867 467 921 q 317 774 315 813 q 388 687 318 735 q 546 594 458 639 q 719 481 633 550 q 832 342 806 411 q 716 135 814 219 q 456 14 618 50 l 394 -104 q 495 -64 442 -64 q 579 -103 549 -64 q 600 -206 610 -143 q 523 -328 585 -285 q 379 -371 461 -372 q 231 -337 297 -369 q 129 -253 164 -306 q 139 -210 128 -228 q 165 -190 150 -192 q 342 -275 249 -275 q 450 -210 436 -275 q 435 -149 456 -175 q 353 -186 394 -156 q 303 -173 326 -186 q 274 -137 279 -160 l 344 8 q 144 110 235 40 q 25 253 53 179 q 110 349 64 321 q 232 353 157 376 q 287 217 253 271 q 390 106 321 164 q 553 184 489 128 q 618 310 618 240 z "},"ş":{"ha":726,"x_min":28,"x_max":665,"o":"m 471 228 q 297 344 471 264 q 169 426 232 375 q 89 532 106 476 q 226 711 125 642 q 453 789 326 781 q 665 613 615 750 q 618 550 661 569 q 499 543 575 531 q 428 700 485 636 q 316 640 367 681 q 265 573 265 600 q 320 513 265 546 q 444 448 375 479 q 577 364 513 417 q 657 254 642 311 q 555 92 632 156 q 364 8 478 28 l 306 -104 q 406 -64 353 -64 q 490 -103 460 -64 q 511 -206 521 -143 q 434 -328 496 -285 q 290 -371 372 -372 q 142 -337 208 -369 q 40 -253 75 -306 q 50 -210 39 -228 q 76 -190 61 -192 q 253 -275 160 -275 q 361 -210 347 -275 q 346 -149 367 -175 q 264 -186 306 -156 q 214 -173 238 -186 q 185 -137 190 -160 l 254 6 q 111 76 172 28 q 28 183 50 125 q 97 269 57 243 q 196 276 136 294 q 228 168 207 210 q 293 83 250 126 q 421 142 371 100 q 471 228 471 185 z "},"Š":{"ha":882,"x_min":25,"x_max":871,"o":"m 618 310 q 569 372 618 339 q 451 440 521 404 q 308 518 381 476 q 181 622 236 560 q 114 756 125 685 q 290 953 168 875 q 554 1046 413 1032 q 732 970 656 1025 q 850 835 808 915 q 658 742 824 714 q 546 942 628 868 q 391 867 467 921 q 317 774 315 813 q 388 687 318 735 q 546 594 458 639 q 719 481 633 550 q 832 342 806 411 q 692 116 811 206 q 378 0 574 26 q 158 100 260 26 q 25 253 56 174 q 110 349 64 321 q 232 353 157 376 q 287 217 253 271 q 390 106 321 164 q 553 184 489 128 q 618 310 618 240 m 664 1128 q 481 1126 551 1086 l 353 1333 q 390 1365 364 1356 q 444 1365 417 1374 l 551 1188 l 714 1368 q 801 1375 746 1383 q 871 1326 856 1367 l 664 1128 z "},"š":{"ha":726,"x_min":28,"x_max":743,"o":"m 471 228 q 297 344 471 264 q 169 426 232 375 q 89 532 106 476 q 226 711 125 642 q 453 789 326 781 q 665 613 615 750 q 618 550 661 569 q 499 543 575 531 q 428 700 485 636 q 316 640 367 681 q 265 573 265 600 q 320 513 265 546 q 444 448 375 479 q 577 364 513 417 q 657 254 642 311 q 528 72 628 139 q 283 0 429 6 q 122 67 192 17 q 28 183 53 118 q 97 269 57 243 q 196 276 136 294 q 228 168 207 210 q 293 83 250 126 q 421 142 371 100 q 471 228 471 185 m 536 854 q 353 853 424 813 l 225 1060 q 263 1091 236 1082 q 317 1092 289 1100 l 424 914 l 586 1094 q 673 1101 618 1110 q 743 1053 728 1093 l 536 854 z "},"Ţ":{"ha":863,"x_min":107,"x_max":981,"o":"m 379 -104 q 480 -64 426 -64 q 564 -103 533 -64 q 585 -206 594 -143 q 508 -328 569 -285 q 364 -371 446 -372 q 215 -337 282 -369 q 114 -253 149 -306 q 124 -210 113 -228 q 150 -190 135 -192 q 327 -275 233 -275 q 435 -210 421 -275 q 419 -149 440 -175 q 338 -186 379 -156 q 288 -173 311 -186 q 258 -137 264 -160 l 331 11 q 263 57 278 28 q 415 728 361 392 l 419 893 l 167 867 q 144 1004 107 936 q 935 1017 525 1033 q 915 875 981 965 l 621 903 l 544 589 q 497 19 533 438 q 433 3 471 6 l 379 -104 z "},"ţ":{"ha":661,"x_min":14,"x_max":701,"o":"m 281 -104 q 381 -64 328 -64 q 465 -103 435 -64 q 486 -206 496 -143 q 409 -328 471 -285 q 265 -371 347 -372 q 117 -337 183 -369 q 15 -253 50 -306 q 25 -210 14 -228 q 51 -190 36 -192 q 228 -275 135 -275 q 336 -210 322 -275 q 321 -149 342 -175 q 239 -186 281 -156 q 189 -173 213 -186 q 160 -137 165 -160 l 233 14 q 125 115 147 43 q 264 656 217 425 l 83 624 q 83 750 35 679 l 274 747 l 261 972 q 490 989 414 1060 l 422 772 l 653 815 q 653 689 701 775 l 403 679 q 374 390 394 576 q 346 129 353 203 q 544 238 454 168 q 601 217 588 236 q 610 154 614 199 q 339 10 492 51 l 281 -104 z "},"Ť":{"ha":863,"x_min":107,"x_max":981,"o":"m 419 893 l 167 867 q 144 1004 107 936 q 935 1017 525 1033 q 915 875 981 965 l 621 903 l 544 589 q 497 19 533 438 q 365 4 444 -8 q 263 57 285 17 q 415 728 361 392 l 419 893 m 856 1326 l 649 1128 q 465 1126 536 1086 l 338 1333 q 375 1365 349 1356 q 429 1365 401 1374 l 536 1188 l 699 1368 q 785 1375 731 1383 q 856 1326 840 1367 z "},"ť":{"ha":661,"x_min":35,"x_max":779,"o":"m 407 718 l 653 765 q 653 640 701 725 l 401 631 l 399 631 q 346 129 388 517 q 544 238 454 168 q 601 217 588 236 q 610 154 614 199 q 470 61 553 104 q 301 0 388 18 q 125 115 157 17 q 253 604 210 400 l 83 574 q 83 700 35 629 l 272 697 l 275 711 l 261 972 q 490 989 414 1060 l 407 724 l 407 718 m 607 967 l 579 1157 q 704 1183 649 1203 q 779 1110 760 1164 q 724 951 774 1031 q 594 808 674 871 q 526 846 543 808 l 607 967 z "},"Ū":{"ha":893,"x_min":72,"x_max":938,"o":"m 796 1242 q 810 1204 815 1232 q 775 1143 804 1176 l 318 1129 q 335 1225 286 1163 l 569 1218 l 796 1242 m 414 0 q 179 81 269 0 q 72 268 89 163 q 176 994 149 690 q 322 1039 261 1039 q 419 1021 383 1039 q 276 358 288 590 q 332 173 267 240 q 539 139 397 106 q 651 358 613 232 q 721 683 690 483 l 693 994 q 840 1039 778 1039 q 938 1021 901 1039 q 899 791 931 981 q 847 493 868 601 q 701 124 799 249 q 414 0 603 0 z "},"ū":{"ha":846,"x_min":35,"x_max":832,"o":"m 832 704 l 718 485 q 708 19 701 285 q 592 3 663 -7 q 475 56 522 14 l 540 213 l 524 226 q 325 0 467 151 q 35 172 75 31 l 122 399 q 122 504 121 453 q 118 758 124 647 q 245 763 181 776 q 347 706 310 750 q 232 213 336 553 q 329 144 246 169 q 525 360 464 272 q 615 760 572 619 q 760 758 711 771 q 832 704 810 746 m 699 869 l 242 856 q 258 951 211 889 l 493 944 l 719 968 q 733 931 739 958 q 699 869 728 903 z "},"Ů":{"ha":893,"x_min":72,"x_max":938,"o":"m 414 0 q 179 81 269 0 q 72 268 89 163 q 176 994 149 690 q 322 1039 261 1039 q 419 1021 383 1039 q 276 358 288 590 q 332 173 267 240 q 539 139 397 106 q 651 358 613 232 q 721 683 690 483 l 693 994 q 840 1039 778 1039 q 938 1021 901 1039 q 899 791 931 981 q 847 493 868 601 q 701 124 799 249 q 414 0 603 0 m 631 1360 q 600 1350 617 1360 q 558 1258 572 1308 q 588 1154 532 1154 q 618 1164 601 1154 q 660 1257 644 1199 q 631 1360 686 1360 m 419 1258 q 431 1293 419 1258 q 510 1372 443 1329 q 659 1415 576 1415 q 785 1374 742 1415 q 804 1260 829 1333 q 712 1144 779 1188 q 563 1100 644 1100 q 439 1143 482 1100 q 419 1258 396 1186 z "},"ů":{"ha":846,"x_min":35,"x_max":832,"o":"m 832 704 l 718 485 q 708 19 701 285 q 592 3 663 -7 q 475 56 522 14 l 540 213 l 524 226 q 325 0 467 151 q 35 172 75 31 l 122 399 q 122 504 121 453 q 118 758 124 647 q 245 763 181 776 q 347 706 310 750 q 232 213 336 553 q 329 144 246 169 q 525 360 464 272 q 615 760 572 619 q 760 758 711 771 q 832 704 810 746 m 728 987 q 715 950 728 987 q 635 870 703 914 q 487 826 568 826 q 363 869 406 826 q 343 984 319 913 q 433 1099 367 1056 q 583 1142 500 1142 q 709 1101 665 1142 q 728 987 753 1060 m 511 881 q 542 890 525 881 q 583 983 568 925 q 554 1086 610 1086 q 524 1076 540 1086 q 483 986 496 1035 q 511 881 454 881 z "},"Ű":{"ha":893,"x_min":72,"x_max":938,"o":"m 596 1118 l 706 1351 q 860 1351 813 1375 l 818 1267 l 686 1106 q 596 1118 631 1101 m 363 1118 l 476 1351 q 629 1351 582 1375 l 588 1267 l 463 1106 q 363 1118 403 1101 m 414 0 q 179 81 269 0 q 72 268 89 163 q 176 994 149 690 q 322 1039 261 1039 q 419 1021 383 1039 q 276 358 288 590 q 332 173 267 240 q 539 139 397 106 q 651 358 613 232 q 721 683 690 483 l 693 994 q 840 1039 778 1039 q 938 1021 901 1039 q 899 791 931 981 q 847 493 868 601 q 701 124 799 249 q 414 0 603 0 z "},"ű":{"ha":846,"x_min":35,"x_max":832,"o":"m 832 704 l 718 485 q 708 19 701 285 q 592 3 663 -7 q 475 56 522 14 l 540 213 l 524 226 q 325 0 467 151 q 35 172 75 31 l 122 399 q 122 504 121 453 q 118 758 124 647 q 245 763 181 776 q 347 706 310 750 q 232 213 336 553 q 329 144 246 169 q 525 360 464 272 q 615 760 572 619 q 760 758 711 771 q 832 704 810 746 m 511 993 l 386 832 q 286 844 326 828 l 400 1078 q 553 1078 506 1101 l 511 993 m 742 993 l 610 832 q 519 844 554 828 l 629 1078 q 783 1078 736 1101 l 742 993 z "},"Ų":{"ha":893,"x_min":72,"x_max":938,"o":"m 693 994 q 840 1039 778 1039 q 938 1021 901 1039 q 899 791 931 981 q 847 493 868 601 q 720 151 803 274 q 486 6 638 28 q 370 -62 418 -15 q 314 -167 322 -110 q 435 -218 356 -218 q 581 -160 514 -218 q 618 -172 606 -158 q 632 -214 631 -186 q 532 -290 592 -262 q 406 -318 472 -318 q 240 -273 300 -318 q 181 -162 181 -228 q 308 14 181 -61 q 147 114 208 42 q 72 268 85 186 q 176 994 149 690 q 322 1039 261 1039 q 419 1021 383 1039 q 276 358 288 590 q 332 173 267 240 q 539 139 397 106 q 651 358 613 232 q 721 683 690 483 l 693 994 z "},"ų":{"ha":846,"x_min":35,"x_max":832,"o":"m 556 -318 q 408 -276 463 -318 q 354 -177 354 -235 q 396 -63 354 -119 q 510 32 438 -7 q 475 56 489 43 l 540 213 l 524 226 q 325 0 467 151 q 35 172 75 31 l 122 399 q 122 504 121 453 q 118 758 124 647 q 245 763 181 776 q 347 706 310 750 q 232 213 336 553 q 329 144 246 169 q 525 360 464 272 q 615 760 572 619 q 760 758 711 771 q 832 704 810 746 l 718 485 q 708 19 701 285 q 675 7 694 11 l 675 1 q 543 -70 596 -19 q 479 -189 490 -121 q 603 -209 538 -218 q 719 -157 669 -200 q 761 -169 749 -156 q 776 -214 774 -183 q 556 -318 692 -318 z "},"Ÿ":{"ha":879,"x_min":142,"x_max":942,"o":"m 736 788 l 679 1003 q 942 992 850 1083 q 863 788 936 883 q 719 615 818 731 q 589 464 619 500 q 540 19 556 307 q 419 0 499 -10 q 306 49 340 10 q 397 417 357 190 q 142 947 313 624 q 244 1030 183 1008 q 361 1026 306 1051 l 389 757 l 496 467 l 504 467 l 540 538 l 736 788 m 348 1297 q 362 1311 348 1297 q 417 1325 376 1325 q 485 1298 457 1325 q 513 1231 513 1271 q 485 1163 513 1192 q 417 1135 457 1135 q 348 1163 376 1135 q 319 1231 319 1192 q 348 1297 319 1269 m 739 1231 q 732 1215 739 1222 q 716 1208 725 1208 q 699 1215 707 1208 q 690 1231 690 1222 q 715 1251 690 1251 q 739 1231 739 1251 z "},"Ź":{"ha":918,"x_min":15,"x_max":946,"o":"m 218 81 l 211 75 l 222 36 q 53 3 164 -10 q 18 97 15 38 q 211 344 18 169 q 388 503 297 421 q 566 683 479 586 q 697 863 653 781 l 688 875 q 364 901 471 878 q 297 751 317 843 q 103 818 143 731 q 294 1039 158 988 q 731 963 467 994 l 764 1044 q 891 1025 847 1044 q 946 949 935 1006 q 772 693 908 853 q 258 182 551 435 l 263 171 q 649 156 624 158 q 689 278 675 207 q 888 210 854 313 q 828 100 869 149 q 707 0 788 51 q 218 81 549 49 m 675 1403 q 801 1398 747 1417 q 869 1335 854 1379 l 617 1103 q 562 1115 585 1103 q 539 1147 539 1126 l 633 1278 l 675 1403 z "},"ź":{"ha":818,"x_min":31,"x_max":808,"o":"m 272 496 q 153 502 194 486 q 94 563 111 518 q 274 764 146 724 q 607 686 496 699 l 638 764 q 755 749 715 767 q 808 683 794 731 q 738 547 797 621 q 586 403 678 474 q 250 172 425 275 l 253 157 q 372 150 261 156 q 542 135 483 144 q 582 247 565 181 q 753 176 735 285 q 569 0 707 54 q 214 81 446 47 l 207 75 l 219 35 q 64 0 183 -10 q 33 92 31 40 q 74 188 35 143 q 178 277 114 233 q 311 365 243 321 q 569 586 493 482 l 564 599 q 328 635 465 604 q 272 496 285 582 m 576 1129 q 702 1124 649 1143 q 771 1061 756 1106 l 518 829 q 463 841 486 829 q 440 874 440 853 l 535 1004 l 576 1129 z "},"Ż":{"ha":918,"x_min":15,"x_max":946,"o":"m 681 1238 q 681 1218 681 1238 q 652 1170 681 1199 q 583 1142 624 1142 q 515 1170 543 1142 q 486 1238 486 1199 q 515 1305 486 1278 q 584 1332 543 1332 q 653 1304 625 1332 q 681 1238 681 1276 m 218 81 l 211 75 l 222 36 q 53 3 164 -10 q 18 97 15 38 q 211 344 18 169 q 388 503 297 421 q 566 683 479 586 q 697 863 653 781 l 688 875 q 364 901 471 878 q 297 751 317 843 q 103 818 143 731 q 294 1039 158 988 q 731 963 467 994 l 764 1044 q 891 1025 847 1044 q 946 949 935 1006 q 772 693 908 853 q 258 182 551 435 l 263 171 q 649 156 624 158 q 689 278 675 207 q 888 210 854 313 q 828 100 869 149 q 707 0 788 51 q 218 81 549 49 z "},"ż":{"ha":818,"x_min":31,"x_max":808,"o":"m 582 964 q 582 944 582 964 q 553 897 582 925 q 485 868 525 868 q 416 897 444 868 q 388 965 388 925 q 416 1031 388 1004 q 485 1058 444 1058 q 554 1031 526 1058 q 582 964 582 1003 m 272 496 q 153 502 194 486 q 94 563 111 518 q 274 764 146 724 q 607 686 496 699 l 638 764 q 755 749 715 767 q 808 683 794 731 q 738 547 797 621 q 586 403 678 474 q 250 172 425 275 l 253 157 q 372 150 261 156 q 542 135 483 144 q 582 247 565 181 q 753 176 735 285 q 569 0 707 54 q 214 81 446 47 l 207 75 l 219 35 q 64 0 183 -10 q 33 92 31 40 q 74 188 35 143 q 178 277 114 233 q 311 365 243 321 q 569 586 493 482 l 564 599 q 328 635 465 604 q 272 496 285 582 z "},"Ž":{"ha":918,"x_min":15,"x_max":946,"o":"m 218 81 l 211 75 l 222 36 q 53 3 164 -10 q 18 97 15 38 q 211 344 18 169 q 388 503 297 421 q 566 683 479 586 q 697 863 653 781 l 688 875 q 364 901 471 878 q 297 751 317 843 q 103 818 143 731 q 294 1039 158 988 q 731 963 467 994 l 764 1044 q 891 1025 847 1044 q 946 949 935 1006 q 772 693 908 853 q 258 182 551 435 l 263 171 q 649 156 624 158 q 689 278 675 207 q 888 210 854 313 q 828 100 869 149 q 707 0 788 51 q 218 81 549 49 m 675 1128 q 492 1126 563 1086 l 364 1333 q 401 1365 375 1356 q 456 1365 428 1374 l 563 1188 l 725 1368 q 812 1375 757 1383 q 882 1326 867 1367 l 675 1128 z "},"ž":{"ha":818,"x_min":31,"x_max":808,"o":"m 272 496 q 153 502 194 486 q 94 563 111 518 q 274 764 146 724 q 607 686 496 699 l 638 764 q 755 749 715 767 q 808 683 794 731 q 738 547 797 621 q 586 403 678 474 q 250 172 425 275 l 253 157 q 372 150 261 156 q 542 135 483 144 q 582 247 565 181 q 753 176 735 285 q 569 0 707 54 q 214 81 446 47 l 207 75 l 219 35 q 64 0 183 -10 q 33 92 31 40 q 74 188 35 143 q 178 277 114 233 q 311 365 243 321 q 569 586 493 482 l 564 599 q 328 635 465 604 q 272 496 285 582 m 576 854 q 393 853 464 813 l 265 1060 q 303 1091 276 1082 q 357 1092 329 1100 l 464 914 l 626 1094 q 713 1101 658 1110 q 783 1053 768 1093 l 576 854 z "},"ƒ":{"ha":768,"x_min":-28,"x_max":856,"o":"m 347 553 l 317 992 q 628 1182 456 1165 q 783 1105 731 1161 q 856 963 835 1049 q 778 899 835 918 q 663 896 721 881 q 642 993 658 957 q 586 1068 626 1029 q 494 1018 543 1064 q 476 569 499 825 l 715 618 q 714 493 765 578 l 468 482 q 354 -261 428 99 q 122 -310 274 -349 l -28 -56 q 1 -14 -22 -28 q 50 -7 24 0 l 178 -182 q 335 461 279 101 l 132 424 q 133 550 83 479 l 343 543 l 346 543 l 347 553 z "},"Ș":{"ha":882,"x_min":25,"x_max":850,"o":"m 618 310 q 569 372 618 339 q 451 440 521 404 q 308 518 381 476 q 181 622 236 560 q 114 756 125 685 q 290 953 168 875 q 554 1046 413 1032 q 732 970 656 1025 q 850 835 808 915 q 658 742 824 714 q 546 942 628 868 q 391 867 467 921 q 317 774 315 813 q 388 687 318 735 q 546 594 458 639 q 719 481 633 550 q 832 342 806 411 q 692 116 811 206 q 378 0 574 26 q 158 100 260 26 q 25 253 56 174 q 110 349 64 321 q 232 353 157 376 q 287 217 253 271 q 390 106 321 164 q 553 184 489 128 q 618 310 618 240 m 299 -407 q 231 -371 247 -410 l 311 -250 l 283 -60 q 408 -33 353 -12 q 483 -107 464 -53 q 428 -265 478 -186 q 299 -407 378 -344 z "},"ș":{"ha":726,"x_min":28,"x_max":665,"o":"m 471 228 q 297 344 471 264 q 169 426 232 375 q 89 532 106 476 q 226 711 125 642 q 453 789 326 781 q 665 613 615 750 q 618 550 661 569 q 499 543 575 531 q 428 700 485 636 q 316 640 367 681 q 265 573 265 600 q 320 513 265 546 q 444 448 375 479 q 577 364 513 417 q 657 254 642 311 q 528 72 628 139 q 283 0 429 6 q 122 67 192 17 q 28 183 53 118 q 97 269 57 243 q 196 276 136 294 q 228 168 207 210 q 293 83 250 126 q 421 142 371 100 q 471 228 471 185 m 192 -60 q 278 -26 235 -26 q 351 -50 322 -26 q 393 -107 381 -74 q 336 -265 386 -186 q 207 -407 286 -344 q 139 -371 156 -410 l 219 -250 l 192 -60 z "},"Ț":{"ha":863,"x_min":107,"x_max":981,"o":"m 419 893 l 167 867 q 144 1004 107 936 q 935 1017 525 1033 q 915 875 981 965 l 621 903 l 544 589 q 497 19 533 438 q 365 4 444 -8 q 263 57 285 17 q 415 728 361 392 l 419 893 m 264 -60 q 351 -26 307 -26 q 424 -50 394 -26 q 465 -107 453 -74 q 408 -265 458 -186 q 279 -407 358 -344 q 211 -371 228 -410 l 292 -250 l 264 -60 z "},"ț":{"ha":661,"x_min":35,"x_max":701,"o":"m 653 689 l 403 679 q 374 390 394 576 q 346 129 353 203 q 544 238 454 168 q 601 217 588 236 q 610 154 614 199 q 470 61 553 104 q 301 0 388 18 q 125 115 157 17 q 264 656 217 425 l 83 624 q 83 750 35 679 l 274 747 l 261 972 q 490 989 414 1060 l 422 772 l 653 815 q 653 689 701 775 m 221 -250 l 193 -60 q 259 -28 225 -35 q 319 -33 293 -22 q 393 -107 376 -56 q 338 -265 388 -186 q 208 -407 288 -344 q 140 -371 157 -410 l 221 -250 z "},"ʼ":{"ha":474,"x_min":219,"x_max":499,"o":"m 294 878 q 219 918 236 878 l 308 1053 l 278 1264 q 350 1299 313 1292 q 417 1294 388 1306 q 499 1211 478 1268 q 437 1035 492 1124 q 294 878 382 947 z "},"ˆ":{"ha":583,"x_min":111,"x_max":650,"o":"m 650 868 q 557 832 610 832 q 468 850 504 832 l 390 1013 l 190 836 q 111 886 115 839 l 351 1107 q 532 1085 458 1129 l 650 868 z "},"ˇ":{"ha":561,"x_min":144,"x_max":663,"o":"m 456 854 q 272 853 343 813 l 144 1060 q 182 1091 156 1082 q 236 1092 208 1100 l 343 914 l 506 1094 q 592 1101 538 1110 q 663 1053 647 1093 l 456 854 z "},"ˉ":{"ha":528,"x_min":86,"x_max":615,"o":"m 596 968 q 610 931 615 958 q 575 869 604 903 l 118 856 q 135 951 86 889 l 369 944 l 596 968 z "},"˘":{"ha":490,"x_min":140,"x_max":585,"o":"m 585 1013 q 506 894 565 942 q 366 846 446 846 q 223 897 286 846 q 140 1040 160 949 q 204 1063 164 1067 q 313 947 235 969 q 436 1063 422 965 q 585 1013 556 1086 z "},"˙":{"ha":239,"x_min":128,"x_max":322,"o":"m 322 964 q 322 944 322 964 q 294 897 322 925 q 225 868 265 868 q 156 897 185 868 q 128 965 128 925 q 156 1031 128 1004 q 226 1058 185 1058 q 294 1031 267 1058 q 322 964 322 1003 z "},"˚":{"ha":421,"x_min":101,"x_max":535,"o":"m 336 1086 q 306 1076 322 1086 q 264 986 278 1035 q 293 881 236 881 q 324 890 307 881 q 365 983 350 925 q 336 1086 392 1086 m 125 984 q 137 1020 125 984 q 215 1099 149 1056 q 365 1142 282 1142 q 491 1101 447 1142 q 510 987 535 1060 q 417 870 485 914 q 269 826 350 826 q 144 869 188 826 q 125 984 101 913 z "},"˛":{"ha":522,"x_min":-81,"x_max":400,"o":"m 100 -162 q 211 -214 128 -214 q 358 -160 294 -214 q 400 -214 396 -162 q 161 -318 300 -318 q -12 -269 56 -318 q -68 -140 -81 -219 q 194 38 -47 4 q 263 -15 267 29 q 153 -67 199 -28 q 100 -162 107 -107 z "},"˜":{"ha":619,"x_min":104,"x_max":715,"o":"m 306 1058 q 529 935 461 1015 l 536 935 l 625 1047 q 689 1038 663 1054 q 710 994 715 1022 q 514 832 642 885 q 293 949 363 865 l 283 946 l 199 836 q 134 850 164 832 q 107 897 104 868 q 196 992 153 954 q 306 1058 239 1029 z "},"˝":{"ha":499,"x_min":106,"x_max":603,"o":"m 339 844 l 449 1078 q 603 1078 556 1101 l 561 993 l 429 832 q 339 844 374 828 m 106 844 l 219 1078 q 372 1078 325 1101 l 331 993 l 206 832 q 106 844 146 828 z "},"π":{"ha":1219,"x_min":46,"x_max":1224,"o":"m 931 725 l 1094 865 q 1183 831 1149 860 q 1224 756 1217 801 q 971 615 1139 658 q 893 114 889 372 q 1014 172 950 131 q 1074 117 1063 158 q 1060 18 1085 75 q 764 -21 947 -43 q 824 614 706 236 q 613 646 718 622 q 444 35 553 260 q 231 -26 376 -33 q 109 63 143 19 q 46 188 75 106 q 119 262 85 246 q 206 257 153 278 q 234 160 218 196 q 288 82 250 124 q 317 93 314 90 q 410 370 364 201 q 475 681 456 539 q 369 719 418 697 l 361 718 l 228 628 q 168 676 168 635 q 385 864 235 788 q 915 721 678 743 l 931 725 z "},"ँ":{"ha":0,"x_min":-322,"x_max":265,"o":"m 265 1097 q 126 989 217 1031 q -45 947 35 947 q -212 1029 -125 947 q -322 1215 -299 1111 q -156 1282 -253 1325 q -44 1029 -151 1115 q 149 1169 85 1053 q 219 1160 188 1179 q 265 1097 250 1142 m 85 1185 q 85 1169 85 1185 q 61 1129 85 1153 q 4 1106 38 1106 q -53 1129 -29 1106 q -76 1185 -76 1153 q -53 1241 -76 1218 q 4 1264 -29 1264 q 61 1241 38 1264 q 85 1185 85 1218 z "},"ं":{"ha":0,"x_min":-133,"x_max":68,"o":"m 68 1087 q 68 1066 68 1087 q 39 1017 68 1046 q -32 988 10 988 q -103 1017 -74 988 q -133 1087 -133 1046 q -103 1157 -133 1128 q -32 1186 -74 1186 q 39 1157 10 1186 q 68 1087 68 1128 z "},"ः":{"ha":354,"x_min":49,"x_max":310,"o":"m 251 132 q 251 111 251 132 q 222 60 251 90 q 151 31 193 31 q 78 60 108 31 q 49 132 49 90 q 78 203 49 174 q 151 232 108 232 q 222 203 193 232 q 251 132 251 174 m 310 586 q 310 565 310 586 q 281 515 310 544 q 209 486 251 486 q 137 515 167 486 q 107 586 107 544 q 137 657 107 628 q 209 686 167 686 q 281 657 251 686 q 310 586 310 628 z "},"अ":{"ha":1117,"x_min":-11,"x_max":1331,"o":"m 432 406 q 351 426 417 415 q 272 414 314 419 q 217 493 228 443 q 232 572 206 543 q 325 583 267 575 q 518 772 486 649 l 513 782 q 283 693 393 790 q 199 749 226 711 q 192 822 172 788 q 525 917 344 926 q 681 767 643 886 q 388 518 633 585 l 390 510 q 563 465 493 501 q 875 629 790 582 l 913 790 l 771 790 l 749 811 q 790 865 765 847 l 929 865 l 939 907 q 1136 865 1088 918 l 1314 865 l 1331 847 q 1294 790 1321 808 l 1124 790 l 1026 599 l 969 15 q 861 5 928 -7 q 746 57 794 17 l 839 468 l 888 526 l 881 538 q 632 415 717 456 q 671 331 671 374 q 589 181 671 254 q 401 67 507 108 q 211 28 294 26 q 58 82 128 35 q -11 174 -11 129 q 8 218 -11 197 q 75 263 28 239 q 165 303 122 286 q 292 351 207 319 q 432 406 376 383 m 247 132 q 402 194 314 140 q 507 311 490 249 q 492 346 503 331 q 181 181 226 211 q 204 150 182 165 q 247 132 226 135 z "},"आ":{"ha":1499,"x_min":-11,"x_max":1714,"o":"m 432 406 q 351 426 417 415 q 272 414 314 419 q 217 493 228 443 q 232 572 206 543 q 325 583 267 575 q 518 772 486 649 l 513 782 q 283 693 393 790 q 199 749 226 711 q 192 822 172 788 q 525 917 344 926 q 681 767 643 886 q 388 518 633 585 l 390 510 q 563 465 493 501 q 875 629 790 582 l 913 790 l 771 790 l 749 811 q 790 865 765 847 l 929 865 l 939 907 q 1136 865 1088 918 l 1311 865 l 1321 907 q 1458 906 1413 914 q 1528 865 1504 897 l 1697 865 l 1714 847 q 1676 790 1704 808 l 1501 790 l 1410 599 l 1351 15 q 1243 5 1310 -7 q 1128 57 1176 17 l 1294 790 l 1124 790 l 1026 599 l 969 15 q 861 5 928 -7 q 746 57 794 17 l 839 468 l 888 526 l 881 538 q 632 415 717 456 q 671 331 671 374 q 589 181 671 254 q 401 67 507 108 q 211 28 294 26 q 58 82 128 35 q -11 174 -11 129 q 8 218 -11 197 q 75 263 28 239 q 165 303 122 286 q 292 351 207 319 q 432 406 376 383 m 247 132 q 402 194 314 140 q 507 311 490 249 q 492 346 503 331 q 181 181 226 211 q 204 150 182 165 q 247 132 226 135 z "},"इ":{"ha":696,"x_min":-14,"x_max":910,"o":"m 893 865 l 910 847 q 874 790 900 808 l 539 790 q 615 728 579 767 q 609 648 625 694 q 560 574 593 601 q 254 486 490 540 l 249 467 q 413 415 281 449 q 594 357 544 382 q 607 204 657 310 q 483 100 579 150 q 301 47 388 50 q 186 106 265 54 l 178 97 q 371 -154 282 0 q 326 -212 369 -187 q 219 -236 283 -237 q -4 135 118 3 q 69 236 25 200 q 161 261 113 272 q 281 175 222 192 q 388 210 331 178 q 472 279 446 243 l 469 290 q 297 347 435 313 q 97 418 160 382 q 101 520 78 463 q 179 613 124 578 q 488 693 404 656 l 492 701 q 364 790 451 749 l 8 790 l -14 811 q 28 865 3 847 l 893 865 z "},"ई":{"ha":696,"x_min":-14,"x_max":910,"o":"m 893 865 l 910 847 q 874 790 900 808 l 539 790 q 615 728 579 767 q 609 648 625 694 q 560 574 593 601 q 254 486 490 540 l 249 467 q 413 415 281 449 q 594 357 544 382 q 607 204 657 310 q 483 100 579 150 q 301 47 388 50 q 186 106 265 54 l 178 97 q 371 -154 282 0 q 326 -212 369 -187 q 219 -236 283 -237 q -4 135 118 3 q 69 236 25 200 q 161 261 113 272 q 281 175 222 192 q 388 210 331 178 q 472 279 446 243 l 469 290 q 297 347 435 313 q 97 418 160 382 q 101 520 78 463 q 179 613 124 578 q 488 693 404 656 l 492 701 q 364 790 451 749 l 8 790 l -14 811 q 28 865 3 847 l 893 865 m 440 1179 l 422 1165 q 481 936 428 1068 q 407 903 469 903 q 258 1133 356 1010 q 333 1249 290 1207 q 440 1306 375 1292 q 676 1207 590 1290 q 660 1133 688 1165 q 571 1083 633 1100 q 440 1179 510 1157 z "},"उ":{"ha":768,"x_min":-46,"x_max":983,"o":"m 686 315 q 565 124 686 222 q 332 28 444 26 q 142 130 231 46 q 8 321 53 214 q 77 399 36 378 q 161 404 118 421 q 237 230 183 310 q 343 129 290 150 q 463 197 401 142 q 528 300 524 253 q 449 369 528 340 q 354 356 392 364 q 294 432 307 383 q 307 510 281 481 q 399 522 365 515 q 571 724 550 585 l 564 733 q 346 642 449 742 q 266 694 293 657 q 256 767 239 732 q 292 790 288 788 l -24 790 l -46 811 q -3 865 -29 847 l 967 865 l 983 847 q 946 790 974 808 l 693 790 q 729 722 714 764 q 655 576 715 635 q 485 468 594 518 l 489 458 q 631 408 576 451 q 686 315 686 364 z "},"ऊ":{"ha":979,"x_min":-44,"x_max":1194,"o":"m 715 635 q 960 408 896 582 q 792 129 935 257 q 710 168 740 140 q 686 232 681 196 q 838 407 794 306 q 688 535 793 496 q 481 456 601 519 l 485 447 q 616 402 564 442 q 668 315 668 363 q 548 124 668 222 q 315 28 428 26 q 125 130 214 46 q -10 321 36 214 q 60 399 19 378 q 144 404 101 421 q 219 230 167 310 q 325 129 272 150 q 444 197 383 142 q 511 300 506 253 q 442 368 508 339 q 336 356 368 363 q 276 432 290 383 q 289 510 263 481 q 381 522 363 521 q 553 724 532 583 l 547 733 q 329 642 432 742 q 249 694 276 657 q 239 767 221 732 q 275 790 271 788 l -24 790 l -44 811 q -3 865 -31 847 l 1178 865 l 1194 847 q 1157 790 1185 808 l 678 790 q 711 725 700 760 q 603 593 700 649 l 607 588 l 715 635 z "},"ऋ":{"ha":1294,"x_min":-14,"x_max":1508,"o":"m 1242 150 q 1130 46 1207 92 q 983 0 1053 0 q 858 49 914 0 q 803 149 803 99 q 876 327 803 224 q 1039 493 950 431 l 888 485 q 704 343 815 431 l 671 15 q 563 5 629 -7 q 447 57 496 17 l 486 222 l 538 293 l 522 307 q 339 151 460 240 q 106 0 218 63 q 21 61 46 21 q 18 139 -4 101 q 499 403 293 225 q 296 557 414 488 l 228 465 q 71 592 68 499 q 153 669 101 638 q 255 700 206 700 q 388 631 304 700 q 557 457 471 563 l 571 471 l 549 507 l 614 790 l 8 790 l -14 811 q 28 865 3 847 l 631 865 l 640 907 q 838 865 789 918 l 1492 865 l 1508 847 q 1472 790 1499 808 l 825 790 l 729 599 l 714 442 q 810 519 772 485 q 778 572 788 544 q 854 644 804 615 q 942 669 904 674 q 964 572 981 632 q 1117 597 1044 575 q 1194 458 1214 565 q 1026 329 1097 417 q 932 138 956 242 q 982 97 951 107 q 1142 231 1072 117 q 1208 213 1182 236 q 1242 150 1233 190 z "},"ऌ":{"ha":1075,"x_min":-10,"x_max":1239,"o":"m 996 71 q 885 -19 960 21 q 745 -60 810 -60 q 606 -3 681 -60 q 531 114 531 53 q 633 236 531 158 q 722 303 678 268 q 849 464 833 388 q 803 501 829 496 q 522 256 710 394 q 388 297 442 256 q 343 381 335 339 q 403 454 374 413 q 374 515 396 488 q 324 546 353 543 q 235 476 276 532 q 186 365 193 419 q 249 236 207 290 q 376 138 290 182 q 368 58 399 101 q 260 0 338 14 q 88 160 161 57 q 14 351 14 263 q 92 511 15 422 q 271 651 168 600 q 415 650 350 661 q 496 586 469 624 q 536 485 522 549 q 479 392 490 415 l 497 378 q 768 640 643 488 q 856 629 819 643 q 904 790 914 714 l 11 790 l -10 811 q 32 865 8 849 l 1222 865 l 1239 847 q 1201 790 1229 808 l 1014 790 q 939 582 1024 697 q 1008 461 994 533 q 860 258 961 353 q 747 164 807 211 q 678 108 688 117 q 739 47 692 72 q 897 168 828 79 q 980 143 954 172 q 996 71 1006 114 z "},"ऍ":{"ha":782,"x_min":-14,"x_max":997,"o":"m 981 865 l 997 847 q 960 790 988 808 l 788 790 q 675 424 793 583 q 588 448 622 428 q 547 497 554 468 q 619 683 613 594 l 604 790 l 385 790 q 239 292 340 492 l 254 281 l 433 388 q 540 372 489 397 q 617 301 592 347 q 574 19 619 164 q 446 -232 528 -126 q 299 -135 307 -226 q 463 164 413 -11 l 461 260 l 443 269 l 238 142 q 108 190 158 153 q 57 281 58 228 q 199 633 164 486 l 188 790 l 7 790 l -14 811 q 28 865 0 847 l 981 865 m 624 914 q 470 997 553 914 q 363 1181 388 1079 q 531 1249 432 1292 q 636 996 540 1071 q 813 1156 757 1018 q 890 1151 853 1171 q 943 1089 926 1132 q 807 965 896 1017 q 624 914 718 914 z "},"ए":{"ha":782,"x_min":-14,"x_max":997,"o":"m 981 865 l 997 847 q 960 790 988 808 l 788 790 q 675 424 793 583 q 588 448 622 428 q 547 497 554 468 q 619 683 613 594 l 604 790 l 385 790 q 239 292 340 492 l 254 281 l 433 388 q 540 372 489 397 q 617 301 592 347 q 574 19 619 164 q 446 -232 528 -126 q 299 -135 307 -226 q 463 164 413 -11 l 461 260 l 443 269 l 238 142 q 108 190 158 153 q 57 281 58 228 q 199 633 164 486 l 188 790 l 7 790 l -14 811 q 28 865 0 847 l 981 865 z "},"ऐ":{"ha":782,"x_min":-14,"x_max":997,"o":"m 981 865 l 997 847 q 960 790 988 808 l 788 790 q 675 424 793 583 q 588 448 622 428 q 547 497 554 468 q 619 683 613 594 l 604 790 l 385 790 q 239 292 340 492 l 254 281 l 433 388 q 540 372 489 397 q 617 301 592 347 q 574 19 619 164 q 446 -232 528 -126 q 299 -135 307 -226 q 463 164 413 -11 l 461 260 l 443 269 l 238 142 q 108 190 158 153 q 57 281 58 228 q 199 633 164 486 l 188 790 l 7 790 l -14 811 q 28 865 0 847 l 981 865 m 465 1317 q 615 1194 531 1317 q 747 943 700 1072 q 681 914 732 914 q 517 1142 614 1051 l 426 1076 q 283 1233 267 1136 q 465 1317 372 1317 z "},"ऑ":{"ha":1499,"x_min":-11,"x_max":1751,"o":"m 432 406 q 351 426 417 415 q 272 414 314 419 q 217 493 228 443 q 232 572 206 543 q 325 583 267 575 q 518 772 486 649 l 513 782 q 283 693 393 790 q 199 749 226 711 q 192 822 172 788 q 525 917 344 926 q 681 767 643 886 q 388 518 633 585 l 390 510 q 563 465 493 501 q 875 629 790 582 l 913 790 l 771 790 l 749 811 q 790 865 765 847 l 929 865 l 939 907 q 1136 865 1088 918 l 1311 865 l 1321 907 q 1458 906 1413 914 q 1528 865 1504 897 l 1697 865 l 1714 847 q 1676 790 1704 808 l 1501 790 l 1410 599 l 1351 15 q 1243 5 1310 -7 q 1128 57 1176 17 l 1294 790 l 1124 790 l 1026 599 l 969 15 q 861 5 928 -7 q 746 57 794 17 l 839 468 l 888 526 l 881 538 q 632 415 717 456 q 671 331 671 374 q 589 181 671 254 q 401 67 507 108 q 211 28 294 26 q 58 82 128 35 q -11 174 -11 129 q 8 218 -11 197 q 75 263 28 239 q 165 303 122 286 q 292 351 207 319 q 432 406 376 383 m 247 132 q 402 194 314 140 q 507 311 490 249 q 492 346 503 331 q 181 181 226 211 q 204 150 182 165 q 247 132 226 135 m 1432 947 q 1278 1030 1361 947 q 1171 1215 1196 1113 q 1338 1282 1240 1325 q 1443 1029 1349 1107 q 1621 1189 1563 1051 q 1698 1185 1661 1204 q 1751 1122 1735 1167 q 1615 999 1704 1050 q 1432 947 1526 947 z "},"ओ":{"ha":1499,"x_min":-11,"x_max":1714,"o":"m 432 406 q 351 426 417 415 q 272 414 314 419 q 217 493 228 443 q 232 572 206 543 q 325 583 267 575 q 518 772 486 649 l 513 782 q 283 693 393 790 q 199 749 226 711 q 192 822 172 788 q 525 917 344 926 q 681 767 643 886 q 388 518 633 585 l 390 510 q 563 465 493 501 q 875 629 790 582 l 913 790 l 771 790 l 749 811 q 790 865 765 847 l 929 865 l 939 907 q 1136 865 1088 918 l 1311 865 l 1321 907 q 1458 906 1413 914 q 1528 865 1504 897 l 1697 865 l 1714 847 q 1676 790 1704 808 l 1501 790 l 1410 599 l 1351 15 q 1243 5 1310 -7 q 1128 57 1176 17 l 1294 790 l 1124 790 l 1026 599 l 969 15 q 861 5 928 -7 q 746 57 794 17 l 839 468 l 888 526 l 881 538 q 632 415 717 456 q 671 331 671 374 q 589 181 671 254 q 401 67 507 108 q 211 28 294 26 q 58 82 128 35 q -11 174 -11 129 q 8 218 -11 197 q 75 263 28 239 q 165 303 122 286 q 292 351 207 319 q 432 406 376 383 m 247 132 q 402 194 314 140 q 507 311 490 249 q 492 346 503 331 q 181 181 226 211 q 204 150 182 165 q 247 132 226 135 m 1181 1350 q 1331 1228 1246 1350 q 1463 976 1415 1106 q 1396 947 1447 947 q 1232 1175 1324 1092 l 1140 1110 q 999 1268 982 1169 q 1181 1350 1086 1350 z "},"औ":{"ha":1499,"x_min":-11,"x_max":1714,"o":"m 432 406 q 351 426 417 415 q 272 414 314 419 q 217 493 228 443 q 232 572 206 543 q 325 583 267 575 q 518 772 486 649 l 513 782 q 283 693 393 790 q 199 749 226 711 q 192 822 172 788 q 525 917 344 926 q 681 767 643 886 q 388 518 633 585 l 390 510 q 563 465 493 501 q 875 629 790 582 l 913 790 l 771 790 l 749 811 q 790 865 765 847 l 929 865 l 939 907 q 1136 865 1088 918 l 1311 865 l 1321 907 q 1458 906 1413 914 q 1528 865 1504 897 l 1697 865 l 1714 847 q 1676 790 1704 808 l 1501 790 l 1410 599 l 1351 15 q 1243 5 1310 -7 q 1128 57 1176 17 l 1294 790 l 1124 790 l 1026 599 l 969 15 q 861 5 928 -7 q 746 57 794 17 l 839 468 l 888 526 l 881 538 q 632 415 717 456 q 671 331 671 374 q 589 181 671 254 q 401 67 507 108 q 211 28 294 26 q 58 82 128 35 q -11 174 -11 129 q 8 218 -11 197 q 75 263 28 239 q 165 303 122 286 q 292 351 207 319 q 432 406 376 383 m 247 132 q 402 194 314 140 q 507 311 490 249 q 492 346 503 331 q 181 181 226 211 q 204 150 182 165 q 247 132 226 135 m 1163 1350 q 1326 1238 1232 1350 q 1472 994 1421 1126 q 1448 962 1468 975 q 1396 947 1428 949 q 1271 1017 1329 1001 l 1228 967 q 1096 1050 1110 976 q 1219 1132 1139 1121 q 1386 1029 1293 1118 l 1392 1036 q 1219 1214 1324 1156 l 1136 1139 q 1033 1194 1065 1163 q 1008 1278 1000 1226 q 1076 1328 1032 1307 q 1163 1350 1119 1350 z "},"क":{"ha":1079,"x_min":-26,"x_max":1293,"o":"m 756 790 l 621 529 l 633 519 q 721 610 664 550 q 803 694 778 669 q 994 667 918 717 q 1069 515 1069 618 q 994 322 1069 413 q 774 135 918 232 q 721 200 706 161 q 856 343 817 275 q 896 486 896 411 q 873 551 896 526 q 808 582 850 576 q 643 431 713 497 l 603 15 q 494 5 561 -7 q 379 57 428 17 l 417 217 l 472 314 l 458 326 q 281 132 365 232 q 98 188 168 135 q 28 336 28 240 q 135 591 28 469 q 369 713 242 713 q 417 690 390 713 q 460 647 444 667 q 506 588 476 628 l 513 590 l 550 790 l -6 790 l -26 811 q 15 865 -8 849 l 564 865 l 572 907 q 769 865 721 918 l 1276 865 l 1293 847 q 1257 790 1283 808 l 756 790 m 382 604 q 271 508 322 590 q 219 346 219 426 q 268 240 219 265 q 474 439 367 329 l 486 489 q 382 604 426 589 z "},"ख":{"ha":1226,"x_min":-14,"x_max":1440,"o":"m 482 676 q 462 716 479 697 q 417 735 444 735 q 347 715 389 735 q 272 661 304 694 q 194 708 221 676 q 181 772 168 740 q 185 778 182 774 q 192 785 189 782 q 199 790 196 788 l 8 790 l -14 811 q 28 865 3 847 l 1033 865 l 1042 907 q 1239 865 1190 918 l 1424 865 l 1440 847 q 1403 790 1431 808 l 1225 790 l 1131 599 l 1072 15 q 963 5 1029 -7 q 849 57 897 17 l 889 228 l 926 278 l 913 293 q 685 143 838 221 q 421 51 532 65 q 204 155 308 72 q 24 344 100 238 q 69 446 31 404 q 163 489 108 488 l 194 453 q 399 535 317 472 q 482 676 481 599 m 883 607 q 791 526 831 596 q 751 411 751 456 q 808 331 751 331 q 884 370 843 331 q 946 460 925 410 l 954 497 q 883 607 932 592 m 638 694 q 507 487 638 583 q 228 376 376 390 l 222 365 q 457 182 368 199 q 721 268 529 185 l 715 275 q 624 312 657 278 q 592 396 592 346 q 676 603 592 493 q 868 713 761 713 q 978 599 939 713 l 985 601 l 1019 790 l 585 790 q 638 694 638 738 z "},"ग":{"ha":894,"x_min":-14,"x_max":1106,"o":"m 1089 865 l 1106 847 q 1068 790 1096 808 l 899 790 l 803 599 l 746 15 q 638 5 704 -7 q 522 57 571 17 l 689 790 l 496 790 q 454 494 485 650 q 386 238 424 338 q 210 164 332 174 q -4 315 57 192 q 47 424 1 392 q 311 542 164 469 q 321 665 318 596 l 292 790 l 7 790 l -14 811 q 28 865 0 847 l 706 865 l 715 907 q 913 865 864 918 l 1089 865 m 290 440 l 133 361 q 226 285 168 308 l 240 293 q 290 440 271 358 z "},"घ":{"ha":939,"x_min":-14,"x_max":1154,"o":"m 1138 865 l 1154 847 q 1117 790 1144 808 l 946 790 l 850 599 l 792 15 q 683 5 750 -7 q 568 57 617 17 l 624 296 l 678 365 l 667 378 q 460 217 578 290 q 263 129 343 144 q 142 193 192 147 q 93 290 93 239 q 160 363 114 328 q 269 434 206 397 q 363 494 332 471 l 354 503 q 172 456 250 467 q 80 520 118 476 q 51 611 42 564 q 324 790 128 699 l 8 790 l -14 811 q 29 865 3 847 l 751 865 l 761 907 q 960 865 911 918 l 1138 865 m 675 532 l 735 790 l 525 790 q 221 585 321 688 l 232 571 q 400 621 307 586 q 488 567 454 606 q 515 478 521 529 q 276 269 361 364 l 289 254 q 501 368 397 290 q 675 532 606 446 z "},"ङ":{"ha":724,"x_min":-14,"x_max":906,"o":"m 889 865 l 906 847 q 868 790 896 808 l 538 790 q 613 729 585 761 q 608 651 624 697 q 557 575 592 604 q 438 527 501 544 q 322 497 375 510 q 246 476 269 483 l 242 461 q 416 404 290 438 q 592 349 542 371 q 618 263 622 318 q 578 151 614 207 q 356 61 508 101 q 65 14 204 21 q 8 99 18 53 q 29 171 -1 144 q 276 196 154 172 q 472 268 399 219 l 471 279 q 287 341 419 304 q 94 410 154 378 q 94 515 72 457 q 172 604 115 572 q 489 693 401 650 l 493 706 q 360 790 464 740 l 8 790 l -14 811 q 28 865 3 847 l 889 865 m 585 485 q 585 501 585 485 q 608 542 585 518 q 666 565 632 565 q 724 542 700 565 q 747 485 747 518 q 724 428 747 451 q 666 404 700 404 q 608 428 632 404 q 585 485 585 451 z "},"च":{"ha":993,"x_min":-26,"x_max":1208,"o":"m 119 353 q 151 408 119 381 q 223 452 183 435 q 325 495 263 469 q 419 538 388 521 l 414 549 q 79 511 225 519 q 29 600 36 544 q 53 674 22 656 q 504 658 265 643 q 561 590 543 638 q 563 504 579 543 q 333 369 378 422 q 361 329 336 350 q 410 307 386 308 q 578 391 485 322 q 736 550 671 460 l 790 790 l -4 790 l -26 811 q 17 865 -10 847 l 807 865 l 817 907 q 1014 865 965 918 l 1192 865 l 1208 847 q 1171 790 1199 808 l 1000 790 l 904 599 l 847 15 q 738 5 804 -7 q 624 57 672 17 l 676 290 l 732 388 l 714 401 q 360 164 526 201 q 198 233 276 171 q 119 353 119 294 z "},"छ":{"ha":983,"x_min":-10,"x_max":1146,"o":"m 1129 865 l 1146 847 q 1108 790 1136 808 l 897 790 q 863 663 899 743 q 939 544 940 601 q 788 328 938 458 q 835 138 842 206 q 740 -10 828 69 q 538 -150 651 -90 q 451 -11 408 -89 q 552 40 517 21 q 635 94 588 58 q 706 164 683 129 q 685 246 704 199 q 275 47 451 78 q 156 112 204 68 q 108 211 108 156 q 206 342 138 276 q 350 457 274 408 l 343 468 q 161 418 235 431 q 69 499 103 447 q 50 597 35 550 q 329 790 161 707 l 13 790 l -10 811 q 33 865 7 847 l 1129 865 m 742 435 q 810 539 797 496 q 782 576 804 557 q 739 601 760 594 q 742 435 681 581 m 282 193 l 296 181 q 640 349 465 218 q 578 550 576 485 q 585 621 579 578 q 657 690 610 658 q 750 726 704 722 q 782 714 767 722 q 790 790 794 751 l 547 790 q 365 683 456 750 q 213 554 274 615 l 224 538 q 388 578 256 542 q 481 509 453 551 q 493 415 508 467 q 282 193 381 328 z "},"ज":{"ha":1024,"x_min":-17,"x_max":1238,"o":"m 1221 865 l 1238 847 q 1200 790 1228 808 l 1029 790 l 933 599 l 875 15 q 767 5 833 -7 q 651 57 700 17 l 731 396 l 786 489 l 778 497 q 603 425 692 426 l 565 433 l 558 425 l 575 385 q 515 263 571 322 q 388 170 460 203 q 263 140 317 138 q 112 243 175 156 q 51 435 49 331 q 105 568 61 499 q 215 681 149 638 q 305 656 271 682 q 340 586 339 631 q 226 415 236 504 q 283 253 213 301 q 392 314 342 265 q 446 406 442 363 q 393 450 440 431 q 446 553 408 515 q 531 586 483 590 q 606 525 574 535 q 781 619 697 531 l 818 790 l 4 790 l -17 811 q 25 865 1 849 l 835 865 l 844 907 q 1043 865 994 918 l 1221 865 z "},"झ":{"ha":1101,"x_min":-14,"x_max":1315,"o":"m 578 372 q 639 281 639 342 q 558 129 639 219 q 272 53 428 46 q 183 107 228 72 l 174 97 q 381 -154 279 -6 q 336 -212 379 -187 q 228 -236 293 -237 q 122 -47 186 -146 q -8 126 57 53 q 68 233 19 193 q 168 260 117 272 q 264 178 210 207 q 390 208 332 181 q 481 276 449 236 l 478 288 q 305 345 444 311 q 106 417 165 379 q 110 519 86 461 q 189 613 133 578 q 496 692 393 649 l 500 701 q 369 790 465 742 l 8 790 l -14 811 q 28 865 3 847 l 914 865 l 924 907 q 1121 865 1072 918 l 1299 865 l 1315 847 q 1279 790 1306 808 l 1108 790 l 1011 599 l 954 15 q 846 5 913 -7 q 731 57 779 17 l 819 443 l 872 508 l 863 521 q 578 372 731 438 m 860 625 l 897 790 l 549 790 q 625 728 589 767 q 619 648 635 694 q 569 574 603 601 q 264 485 483 533 l 257 465 q 461 407 332 425 q 860 625 710 507 z "},"ञ":{"ha":958,"x_min":-14,"x_max":1174,"o":"m 1157 865 l 1174 847 q 1136 790 1164 808 l 965 790 l 869 599 l 811 15 q 703 5 769 -7 q 588 57 636 17 l 667 399 l 724 461 l 714 479 q 521 386 626 425 q 388 211 485 286 q 196 138 292 136 q 84 204 136 146 q 15 343 32 263 q 85 389 47 376 q 151 386 122 401 q 221 258 169 294 q 319 331 275 281 q 372 447 364 381 q 300 601 379 551 q 165 524 228 583 q 92 572 111 547 q 79 632 72 597 q 185 697 135 676 q 313 715 236 718 q 458 642 389 713 q 533 485 526 571 q 710 594 647 536 l 754 790 l 8 790 l -14 811 q 28 865 3 847 l 771 865 l 781 907 q 979 865 931 918 l 1157 865 z "},"ट":{"ha":735,"x_min":-7,"x_max":933,"o":"m 18 326 q 154 536 18 433 q 483 678 375 606 l 488 689 q 350 790 451 736 l 15 790 l -7 811 q 36 865 10 847 l 917 865 l 933 847 q 896 790 924 808 l 514 790 q 607 710 565 757 q 600 632 615 674 q 556 564 585 590 q 267 426 468 508 q 193 317 192 369 q 328 161 193 217 q 464 232 400 181 q 569 346 528 283 q 657 319 625 350 q 690 221 689 288 q 517 115 618 158 q 306 71 415 72 q 100 169 182 94 q 18 326 18 244 z "},"ठ":{"ha":801,"x_min":-8,"x_max":985,"o":"m 331 54 q 107 156 197 76 q 17 337 17 236 q 174 550 17 438 q 397 632 335 604 q 489 683 460 660 l 493 696 q 368 790 457 740 l 13 790 l -8 811 q 33 865 6 847 l 968 865 l 985 847 q 947 790 975 808 l 528 790 q 614 714 579 757 q 606 637 621 678 q 558 567 590 596 l 543 557 q 771 410 711 490 q 644 165 774 269 q 331 54 514 60 m 613 390 q 457 508 572 450 q 375 467 439 499 q 282 418 311 435 q 207 363 225 385 q 203 271 188 322 q 343 138 233 183 q 531 235 454 161 q 613 390 607 308 z "},"ड":{"ha":692,"x_min":-14,"x_max":906,"o":"m 889 865 l 906 847 q 868 790 896 808 l 538 790 q 613 729 585 761 q 608 651 624 697 q 557 575 592 604 q 438 527 501 544 q 322 497 375 510 q 246 476 269 483 l 242 461 q 416 404 290 438 q 592 349 542 371 q 618 263 622 318 q 578 151 614 207 q 356 61 508 101 q 65 14 204 21 q 8 99 18 53 q 29 171 -1 144 q 276 196 154 172 q 472 268 399 219 l 471 279 q 287 341 419 304 q 94 410 154 378 q 94 515 72 457 q 172 604 115 572 q 489 693 401 650 l 493 706 q 360 790 464 740 l 8 790 l -14 811 q 28 865 3 847 l 889 865 z "},"ढ":{"ha":825,"x_min":0,"x_max":1025,"o":"m 260 210 l 538 415 q 699 366 631 415 q 768 267 768 317 q 699 161 768 218 q 541 69 631 104 q 389 33 451 33 q 169 113 274 38 q 26 292 65 189 q 85 433 26 383 q 293 541 128 458 q 513 665 458 624 l 518 679 q 379 790 485 726 l 22 790 l 0 811 q 43 865 17 847 l 1008 865 l 1025 847 q 989 790 1015 808 l 546 790 q 658 710 617 751 q 619 578 681 649 q 469 483 575 539 q 290 383 364 428 q 215 304 215 338 q 260 210 215 258 m 600 256 q 531 303 579 288 q 318 160 494 282 q 390 122 353 136 q 523 172 467 136 q 600 256 579 208 z "},"ण":{"ha":1019,"x_min":-14,"x_max":1235,"o":"m 293 213 q 137 308 213 213 q 61 488 61 403 q 108 628 61 544 q 235 790 156 711 l 7 790 l -14 811 q 28 865 0 847 l 832 865 l 842 907 q 1039 865 990 918 l 1218 865 l 1235 847 q 1197 790 1225 808 l 1025 790 l 929 599 l 872 15 q 763 5 829 -7 q 649 57 697 17 l 815 790 l 569 790 q 636 510 644 651 q 560 356 622 426 q 426 249 499 285 q 293 213 353 213 m 417 790 l 389 790 q 228 490 256 633 q 310 332 239 375 q 417 401 371 353 q 478 524 463 450 q 417 790 471 665 z "},"त":{"ha":818,"x_min":-14,"x_max":1032,"o":"m 1015 865 l 1032 847 q 996 790 1022 808 l 825 790 l 729 599 l 671 15 q 563 5 629 -7 q 447 57 496 17 l 535 440 l 576 494 l 567 508 q 219 361 400 408 q 193 306 197 338 q 338 83 222 207 q 256 -3 342 28 q 15 299 64 144 q 129 482 50 447 q 572 611 368 496 l 614 790 l 8 790 l -14 811 q 28 865 3 847 l 631 865 l 640 907 q 838 865 789 918 l 1015 865 z "},"थ":{"ha":922,"x_min":43,"x_max":1136,"o":"m 649 397 q 462 243 564 307 q 287 179 360 179 q 128 244 214 179 q 43 381 43 310 q 90 449 43 413 q 219 533 138 485 q 344 615 301 581 l 228 638 q 119 782 135 699 q 211 924 131 853 q 376 1001 292 996 q 511 921 450 993 q 574 786 572 849 q 530 663 572 726 q 437 558 488 600 q 328 467 386 515 q 251 396 271 419 q 281 338 247 365 q 350 308 314 310 q 512 392 422 321 q 663 549 601 463 l 718 790 l 651 790 l 629 811 q 672 865 646 847 l 735 865 l 744 907 q 942 865 893 918 l 1119 865 l 1136 847 q 1100 790 1126 808 l 928 790 l 832 599 l 775 15 q 667 5 733 -7 q 551 57 600 17 l 604 288 l 664 382 l 649 397 m 401 674 q 433 760 433 719 q 416 833 433 801 q 367 876 399 865 q 294 835 333 871 q 254 771 254 799 q 288 710 254 743 l 401 674 z "},"द":{"ha":751,"x_min":-11,"x_max":931,"o":"m 525 256 q 357 43 481 204 q 115 140 214 60 q 17 319 17 219 q 74 432 17 381 q 203 514 131 483 q 490 679 421 606 l 496 690 q 368 790 465 735 l 10 790 l -11 811 q 31 865 7 849 l 914 865 l 931 847 q 894 790 921 808 l 531 790 q 624 714 588 757 q 622 638 638 681 q 571 560 607 596 q 390 447 538 532 q 197 314 242 363 q 245 233 206 271 q 333 178 285 194 q 433 288 368 215 q 518 381 497 360 q 616 372 564 394 q 700 290 668 349 q 540 -233 624 99 q 426 -215 472 -237 q 371 -156 379 -193 q 538 247 464 92 l 525 256 z "},"ध":{"ha":953,"x_min":28,"x_max":1168,"o":"m 1151 865 l 1168 847 q 1131 790 1158 808 l 960 790 l 864 599 l 806 15 q 697 5 764 -7 q 582 57 631 17 l 639 301 l 693 371 l 679 386 q 463 219 588 297 q 253 122 339 142 q 132 187 181 140 q 83 285 83 233 q 148 356 103 322 q 258 428 193 390 q 356 492 322 465 l 349 500 q 169 449 256 461 q 67 522 106 478 q 31 617 28 567 q 195 843 69 721 q 465 1001 321 965 q 553 964 514 1004 q 600 851 592 924 q 467 701 571 771 q 256 606 363 632 l 182 626 q 175 606 176 613 q 210 547 176 575 q 378 603 294 563 q 460 551 431 588 q 486 460 489 514 q 267 263 360 368 l 278 247 q 504 367 382 281 q 690 536 626 453 l 749 790 l 658 790 l 638 811 q 681 865 651 847 l 765 865 l 775 907 q 974 865 925 918 l 1151 865 m 211 683 l 244 689 q 384 755 315 704 q 472 858 453 806 q 443 893 468 889 q 317 803 383 863 q 211 683 251 743 z "},"न":{"ha":878,"x_min":-14,"x_max":1093,"o":"m 1076 865 l 1093 847 q 1056 790 1083 808 l 7 790 l -14 811 q 28 865 0 847 l 1076 865 m 624 633 q 385 497 488 554 q 399 244 424 385 q 336 196 382 217 q 244 172 290 175 q 24 299 89 199 q 69 429 15 388 q 653 736 443 601 q 863 671 811 747 l 771 517 l 728 15 q 619 5 686 -7 q 504 57 553 17 l 636 626 l 624 633 m 232 279 l 247 289 q 243 419 263 351 q 138 360 207 399 q 232 279 174 303 z "},"प":{"ha":815,"x_min":-14,"x_max":1029,"o":"m 1013 865 l 1029 847 q 993 790 1019 808 l 821 790 l 725 599 l 668 15 q 560 5 626 -7 q 444 57 493 17 l 524 406 l 563 472 l 551 482 q 243 207 360 304 q 111 240 172 208 q 35 324 50 271 q 164 790 92 568 l 7 790 l -14 811 q 28 865 0 847 l 628 865 l 638 907 q 835 865 786 918 l 1013 865 m 567 594 l 611 790 l 388 790 l 293 629 q 225 342 243 451 l 239 335 q 567 594 443 478 z "},"फ":{"ha":1163,"x_min":-14,"x_max":1360,"o":"m 1103 367 q 1031 291 1081 333 q 948 226 981 249 q 847 158 915 203 l 792 222 q 942 362 896 299 q 989 506 989 425 q 903 607 989 588 q 686 426 821 540 l 646 15 q 536 5 603 -7 q 421 57 469 17 l 497 386 l 533 453 l 522 463 q 240 211 378 326 q 108 242 168 213 q 35 322 47 272 q 168 790 94 572 l 8 790 l -14 811 q 28 865 3 847 l 606 865 l 615 907 q 813 865 764 918 l 1343 865 l 1360 847 q 1322 790 1350 808 l 799 790 l 704 599 l 661 522 l 674 510 q 900 725 750 581 q 1091 686 1018 739 q 1164 542 1164 633 q 1103 367 1164 451 m 540 576 l 589 790 l 390 790 l 296 629 q 222 346 244 457 l 236 339 q 540 576 401 449 z "},"ब":{"ha":776,"x_min":-14,"x_max":992,"o":"m 500 353 l 286 125 q 101 183 171 128 q 31 336 31 238 q 138 594 31 474 q 382 715 246 715 q 533 586 460 699 l 539 589 l 576 790 l 8 790 l -14 811 q 28 865 3 847 l 590 865 l 599 907 q 797 865 749 918 l 975 865 l 992 847 q 954 790 982 808 l 783 790 l 688 599 l 629 15 q 521 5 588 -7 q 406 57 454 17 l 450 244 l 514 339 l 500 353 m 265 497 q 221 341 221 419 q 274 233 221 263 q 407 353 361 310 q 265 497 325 422 m 457 397 l 503 442 l 513 489 q 399 610 454 594 q 311 557 356 601 q 457 397 378 472 z "},"भ":{"ha":947,"x_min":53,"x_max":1132,"o":"m 1115 865 l 1132 847 q 1094 790 1122 808 l 678 790 l 657 811 q 699 865 671 847 l 1115 865 m 399 650 l 257 589 q 151 639 197 603 q 92 713 104 675 q 133 801 97 776 q 290 894 201 835 q 426 1000 379 953 q 520 983 478 1001 q 582 932 563 964 q 535 624 568 797 q 726 736 650 686 q 936 671 885 747 l 846 517 l 801 15 q 693 5 760 -7 q 578 57 626 17 l 711 626 l 699 633 q 515 528 594 571 q 436 231 481 363 q 353 185 406 201 q 257 169 301 168 q 138 219 194 181 q 53 311 82 258 q 107 415 56 393 q 363 533 233 469 q 376 597 368 556 l 406 639 l 399 650 m 417 849 l 406 853 q 222 722 328 794 q 269 676 242 685 l 394 708 q 417 849 410 801 m 275 283 l 289 292 q 335 429 314 361 q 188 354 238 379 q 275 283 217 308 z "},"म":{"ha":901,"x_min":-14,"x_max":1117,"o":"m 1100 865 l 1117 847 q 1079 790 1107 808 l 494 790 q 475 624 489 717 q 676 736 603 690 q 886 671 835 747 l 794 517 l 751 15 q 643 5 710 -7 q 528 57 576 17 l 660 626 l 646 635 q 460 531 624 622 q 385 235 425 342 q 207 169 329 169 q 89 218 144 181 q 3 311 33 256 q 54 426 3 397 q 308 540 217 497 q 318 658 315 593 l 290 790 l 8 790 l -14 811 q 28 865 3 847 l 1100 865 m 224 283 l 239 293 q 289 443 267 357 q 128 364 236 417 q 224 283 165 306 z "},"य":{"ha":917,"x_min":-14,"x_max":1132,"o":"m 644 401 q 451 238 560 310 q 276 167 342 167 q 124 235 211 167 q 36 365 36 303 q 167 489 36 417 q 278 549 222 518 q 374 621 333 581 q 418 701 415 661 q 344 726 399 732 q 218 671 290 721 q 136 715 163 685 q 125 781 110 746 q 138 790 132 788 l 8 790 l -14 811 q 29 865 3 847 l 729 865 l 739 907 q 938 865 889 918 l 1115 865 l 1132 847 q 1094 790 1122 808 l 924 790 l 828 599 l 769 15 q 661 5 728 -7 q 546 57 594 17 l 601 292 l 661 385 l 644 401 m 576 725 q 508 601 576 668 q 353 472 440 535 q 247 383 267 410 q 277 324 243 354 q 344 294 311 294 q 508 387 414 314 q 658 543 601 460 l 713 790 l 544 790 q 576 725 576 758 z "},"र":{"ha":632,"x_min":-14,"x_max":847,"o":"m 432 738 q 258 661 349 738 q 181 708 207 676 q 167 772 154 740 q 190 790 183 786 l 8 790 l -14 811 q 28 865 3 847 l 831 865 l 847 847 q 810 790 838 808 l 601 790 q 658 694 658 738 q 585 541 657 617 q 410 420 513 465 q 214 375 307 375 l 208 364 q 274 314 219 356 q 356 251 328 272 q 515 150 436 192 q 512 65 538 113 q 435 -1 486 17 q 210 151 332 47 q 14 347 89 254 q 58 447 22 407 q 149 489 94 488 q 201 454 174 468 q 402 535 308 468 q 501 681 496 603 q 476 720 496 703 q 432 738 457 738 z "},"ऱ":{"ha":632,"x_min":-56,"x_max":847,"o":"m 432 738 q 258 661 349 738 q 181 708 207 676 q 167 772 154 740 q 190 790 183 786 l 8 790 l -14 811 q 28 865 3 847 l 831 865 l 847 847 q 810 790 838 808 l 601 790 q 658 694 658 738 q 585 541 657 617 q 410 420 513 465 q 214 375 307 375 l 208 364 q 274 314 219 356 q 356 251 328 272 q 515 150 436 192 q 512 65 538 113 q 435 -1 486 17 q 210 151 332 47 q 14 347 89 254 q 58 447 22 407 q 149 489 94 488 q 201 454 174 468 q 402 535 308 468 q 501 681 496 603 q 476 720 496 703 q 432 738 457 738 m -56 61 q -56 79 -56 61 q -30 123 -56 97 q 33 149 -4 149 q 95 123 69 149 q 121 61 121 97 q 95 -1 121 25 q 33 -26 69 -26 q -30 -1 -4 -26 q -56 61 -56 25 z "},"ल":{"ha":1019,"x_min":-14,"x_max":1233,"o":"m 281 0 q 103 168 174 65 q 33 349 33 271 q 114 519 33 428 q 288 651 194 610 q 432 650 378 664 q 554 474 540 603 q 499 392 519 418 l 507 386 q 781 633 638 472 l 815 790 l 8 790 l -14 811 q 28 865 3 847 l 832 865 l 842 907 q 1039 865 990 918 l 1217 865 l 1233 847 q 1197 790 1224 808 l 1025 790 l 929 599 l 872 15 q 764 5 831 -7 q 649 57 697 17 l 726 397 l 771 471 l 760 483 q 513 265 604 340 q 398 307 440 274 q 361 381 356 340 q 421 454 406 428 q 342 546 403 532 q 256 478 299 536 q 206 367 213 421 q 397 138 244 213 q 388 55 421 97 q 281 0 356 13 z "},"ळ":{"ha":1185,"x_min":-14,"x_max":1400,"o":"m 288 0 q 101 90 178 11 q 24 263 24 168 q 145 468 24 358 q 413 576 267 578 q 576 335 515 449 q 664 430 607 367 q 750 522 721 493 q 823 582 779 551 q 907 621 867 613 q 935 790 943 722 l 7 790 l -14 811 q 28 865 0 847 l 1383 865 l 1400 847 q 1363 790 1390 808 l 1046 790 q 1001 597 1051 703 q 1086 494 1050 560 q 1011 136 1182 318 q 758 0 903 24 q 574 160 658 50 q 288 0 428 33 m 285 114 q 515 274 404 171 q 375 451 440 383 q 256 363 307 421 q 197 251 206 306 q 285 114 201 157 m 774 114 q 898 216 847 147 q 953 356 949 285 q 914 483 957 426 q 758 345 844 438 q 642 224 672 253 q 774 114 707 143 z "},"व":{"ha":772,"x_min":-14,"x_max":986,"o":"m 33 347 q 141 598 33 483 q 385 713 249 713 q 529 585 444 714 l 538 590 l 574 790 l 7 790 l -14 811 q 28 865 0 847 l 588 865 l 594 907 q 792 865 743 918 l 969 865 l 986 847 q 949 790 976 808 l 778 790 l 682 599 l 625 15 q 517 5 583 -7 q 401 57 450 17 l 444 244 l 503 329 l 490 343 q 294 132 342 185 q 105 193 176 135 q 33 347 33 251 m 399 604 q 277 516 328 589 q 226 356 226 443 q 285 240 226 269 q 496 443 485 432 l 507 490 q 399 604 450 590 z "},"श":{"ha":1022,"x_min":18,"x_max":1238,"o":"m 1221 865 l 1238 847 q 1200 790 1228 808 l 1029 790 l 933 599 l 875 15 q 767 5 833 -7 q 651 57 700 17 l 818 790 l 707 790 l 686 811 q 728 865 700 847 l 835 865 l 844 907 q 1042 865 993 918 l 1221 865 m 649 735 q 514 492 649 604 q 217 375 379 379 l 211 364 q 260 323 224 354 q 318 274 296 292 q 375 231 340 257 q 507 150 443 179 q 503 65 529 113 q 426 -1 478 17 q 208 153 324 51 q 18 347 92 256 q 63 448 26 408 q 153 489 99 488 q 215 454 179 469 q 347 503 285 464 q 449 600 410 543 l 274 628 q 199 699 232 656 q 161 782 167 742 q 258 924 172 851 q 438 1001 344 996 q 586 903 524 986 q 649 735 649 821 m 479 660 q 492 739 492 693 q 472 825 492 785 q 411 876 451 865 q 344 835 379 871 q 308 769 308 800 q 351 694 308 738 l 479 660 z "},"ष":{"ha":815,"x_min":-14,"x_max":1029,"o":"m 1013 865 l 1029 847 q 993 790 1019 808 l 821 790 l 725 599 l 668 15 q 560 5 626 -7 q 444 57 493 17 l 524 406 l 563 472 l 551 482 q 243 207 360 304 q 111 240 172 208 q 35 324 50 271 q 164 790 92 568 l 7 790 l -14 811 q 28 865 0 847 l 628 865 l 638 907 q 835 865 786 918 l 1013 865 m 225 342 l 239 335 q 460 501 331 399 q 311 660 360 589 l 293 629 q 225 342 243 451 m 567 594 l 611 790 l 388 790 l 350 728 q 514 547 417 643 q 567 594 553 581 z "},"स":{"ha":1079,"x_min":-14,"x_max":1293,"o":"m 825 481 q 651 392 750 429 q 506 354 553 354 q 363 401 460 354 q 213 375 282 374 l 207 364 q 422 205 368 240 q 515 150 476 169 q 511 65 538 113 q 435 -1 485 17 q 210 151 332 47 q 14 347 88 256 q 58 448 22 408 q 149 489 94 488 q 213 454 174 468 q 407 540 318 474 q 500 676 496 606 q 477 718 496 699 q 436 738 458 738 q 258 661 347 738 q 181 708 207 676 q 167 772 154 740 q 178 781 171 775 q 189 790 185 788 l 8 790 l -14 811 q 28 865 3 847 l 892 865 l 901 907 q 1099 865 1050 918 l 1276 865 l 1293 847 q 1257 790 1283 808 l 1086 790 l 989 599 l 932 15 q 824 5 890 -7 q 708 57 757 17 l 786 394 l 839 465 l 825 481 m 657 694 q 605 566 657 631 q 469 453 553 501 q 510 446 493 446 q 670 497 560 446 q 835 611 781 549 l 875 790 l 600 790 q 657 694 657 738 z "},"ह":{"ha":722,"x_min":8,"x_max":901,"o":"m 542 360 q 474 199 542 275 q 386 207 425 189 q 346 249 347 225 q 396 304 383 279 q 360 333 392 329 q 242 285 303 326 q 160 182 182 243 q 206 88 164 131 q 326 21 249 44 q 518 122 442 43 q 582 92 557 119 q 608 24 607 65 q 313 -83 503 -79 q 102 10 196 -68 q 8 178 8 89 q 106 335 8 268 q 332 406 204 403 l 336 415 q 189 492 299 431 q 183 571 171 526 q 221 635 196 615 q 550 710 431 649 l 554 721 q 457 790 526 757 l 61 790 l 39 811 q 81 865 56 847 l 885 865 l 901 847 q 864 790 892 808 l 614 790 q 665 739 649 768 q 658 659 675 703 q 604 586 640 615 q 328 515 488 532 l 325 506 q 485 440 429 472 q 542 360 542 407 z "},"़":{"ha":0,"x_min":13,"x_max":194,"o":"m 194 74 q 194 56 194 74 q 168 11 194 38 q 103 -15 142 -15 q 39 11 65 -15 q 13 74 13 38 q 39 138 13 111 q 103 164 65 164 q 168 138 142 164 q 194 74 194 111 z "},"ऽ":{"ha":774,"x_min":18,"x_max":949,"o":"m 311 0 q 152 55 244 0 q 18 158 60 110 q 82 235 19 233 q 317 101 188 132 q 455 192 394 126 q 517 313 515 257 q 321 431 519 356 q 185 497 247 458 q 125 576 124 536 q 172 690 126 615 q 282 804 218 765 q 586 854 397 836 q 919 865 775 872 q 948 818 949 851 q 914 754 947 785 q 634 753 785 761 q 381 725 483 744 q 303 607 324 683 q 547 488 354 571 q 649 422 604 463 q 692 336 693 382 q 552 113 688 225 q 311 0 417 0 z "},"ा":{"ha":382,"x_min":-14,"x_max":597,"o":"m 581 865 l 597 847 q 560 790 588 808 l 385 790 l 293 599 l 236 15 q 126 5 193 -7 q 11 57 60 17 l 179 790 l 7 790 l -14 811 q 28 865 0 847 l 196 865 l 206 907 q 342 906 296 914 q 411 865 388 897 l 581 865 z "},"ि":{"ha":393,"x_min":-14,"x_max":849,"o":"m 231 1208 q 328 1306 260 1263 q 461 1350 396 1349 q 680 1199 574 1296 q 846 1010 786 1103 q 742 922 849 929 q 419 1226 583 1147 l 404 1214 l 347 865 l 579 865 l 596 847 q 560 790 586 808 l 336 790 q 239 15 264 343 q 131 5 197 -7 q 15 57 64 17 l 189 790 l 7 790 l -14 811 q 28 865 0 847 l 200 865 l 231 1208 z "},"ी":{"ha":382,"x_min":-133,"x_max":597,"o":"m 303 790 l 303 707 l 236 15 q 126 5 193 -7 q 11 57 60 17 q 175 790 65 282 l 7 790 l -14 811 q 28 865 0 847 l 192 865 q 267 1203 231 1049 l 251 1211 q 125 1096 193 1172 q 3 931 57 1019 q -89 963 -51 936 q -133 1031 -126 989 q 58 1244 -71 1138 q 272 1350 188 1350 q 378 1311 324 1350 q 463 1214 433 1272 q 321 865 361 978 l 581 865 l 597 847 q 560 790 588 808 l 303 790 z "},"ु":{"ha":0,"x_min":-772,"x_max":-74,"o":"m -274 -26 q -143 -70 -212 -26 q -74 -157 -74 -114 q -197 -308 -74 -233 q -432 -385 -319 -382 q -627 -315 -525 -382 q -772 -168 -729 -247 q -611 -76 -714 -53 q -544 -214 -585 -160 q -426 -303 -503 -268 q -294 -242 -351 -286 q -231 -150 -236 -199 q -260 -133 -240 -135 q -367 -197 -308 -144 q -447 -150 -421 -183 q -462 -82 -474 -117 q -274 -26 -376 -26 z "},"ू":{"ha":0,"x_min":-507,"x_max":121,"o":"m -507 -199 q -442 -82 -507 -137 q -300 -26 -378 -26 q -91 -101 -222 -26 q 114 -254 40 -175 q 91 -329 121 -294 q -6 -385 61 -364 q -151 -218 -79 -281 q -317 -125 -224 -156 q -372 -176 -354 -129 q -254 -250 -329 -226 q -257 -326 -236 -292 q -340 -375 -278 -360 q -456 -297 -404 -350 q -507 -199 -507 -243 z "},"ृ":{"ha":0,"x_min":-547,"x_max":-44,"o":"m -383 -385 q -495 -344 -443 -385 q -547 -264 -547 -303 q -469 -126 -547 -203 q -294 -15 -392 -49 q -204 -111 -194 -39 q -417 -272 -360 -157 l -401 -297 q -258 -261 -324 -297 q -153 -174 -193 -225 q -72 -203 -99 -179 q -50 -262 -44 -228 q -201 -354 -111 -324 q -383 -385 -290 -385 z "},"ॄ":{"ha":0,"x_min":-503,"x_max":-118,"o":"m -481 -146 q -376 -66 -443 -101 q -246 -15 -308 -31 q -186 -100 -164 -26 q -365 -176 -293 -126 l -357 -193 q -261 -168 -314 -187 q -217 -204 -231 -176 q -218 -264 -203 -232 q -383 -356 -321 -300 l -369 -374 q -183 -285 -262 -357 q -128 -372 -118 -289 q -386 -453 -231 -453 q -469 -412 -437 -442 q -503 -340 -500 -382 q -342 -243 -446 -271 l -346 -233 q -448 -217 -411 -246 q -481 -146 -485 -189 z "},"ॅ":{"ha":0,"x_min":-315,"x_max":265,"o":"m -54 947 q -208 1030 -125 947 q -315 1215 -290 1113 q -149 1282 -246 1325 q -42 1029 -137 1106 q 135 1189 79 1051 q 212 1185 175 1204 q 265 1122 249 1167 q 129 999 218 1050 q -54 947 40 947 z "},"े":{"ha":0,"x_min":-514,"x_max":-33,"o":"m -315 1350 q -166 1228 -250 1350 q -33 976 -82 1107 q -100 947 -49 947 q -264 1175 -171 1089 l -356 1110 q -497 1268 -514 1169 q -315 1350 -410 1350 z "},"ै":{"ha":0,"x_min":-507,"x_max":-36,"o":"m -346 1350 q -182 1238 -276 1350 q -36 994 -87 1126 q -60 962 -40 975 q -112 947 -81 949 q -236 1017 -176 1000 l -279 967 q -369 992 -332 971 q -412 1050 -406 1014 q -287 1132 -369 1121 q -122 1029 -215 1118 l -115 1036 q -289 1214 -186 1157 l -371 1139 q -474 1194 -442 1163 q -500 1278 -507 1226 q -433 1328 -476 1307 q -346 1350 -389 1350 z "},"ॉ":{"ha":382,"x_min":-14,"x_max":643,"o":"m 324 947 q 170 1030 253 947 q 63 1215 88 1113 q 229 1282 132 1325 q 335 1029 240 1107 q 513 1189 454 1051 q 590 1185 553 1204 q 643 1122 626 1167 q 507 999 596 1050 q 324 947 418 947 m 411 865 l 581 865 l 597 847 q 560 790 588 808 l 385 790 l 293 599 l 236 15 q 126 5 193 -7 q 11 57 60 17 l 179 790 l 7 790 l -14 811 q 28 865 0 847 l 196 865 l 206 907 q 342 906 296 914 q 411 865 388 897 z "},"ो":{"ha":382,"x_min":-139,"x_max":597,"o":"m 581 865 l 597 847 q 560 790 588 808 l 385 790 l 293 599 l 236 15 q 126 5 193 -7 q 11 57 60 17 l 179 790 l 7 790 l -14 811 q 28 865 0 847 l 196 865 l 206 907 q 342 906 296 914 q 411 865 388 897 l 581 865 m 60 1350 q 208 1229 125 1350 q 342 978 292 1108 q 275 949 325 946 q 111 1176 203 1092 l 19 1110 q -122 1268 -139 1169 q 60 1350 -35 1350 z "},"ौ":{"ha":382,"x_min":-121,"x_max":597,"o":"m 581 865 l 597 847 q 560 790 588 808 l 385 790 l 293 599 l 236 15 q 126 5 193 -7 q 11 57 60 17 l 179 790 l 7 790 l -14 811 q 28 865 0 847 l 196 865 l 206 907 q 342 906 296 914 q 411 865 388 897 l 581 865 m 40 1350 q 204 1238 110 1350 q 350 994 299 1126 q 326 962 346 975 q 274 947 306 949 q 149 1017 210 1000 l 107 967 q -26 1050 -12 976 q 99 1132 17 1121 q 264 1029 171 1118 l 271 1036 q 97 1214 200 1157 l 15 1139 q -88 1194 -56 1163 q -114 1278 -121 1226 q -47 1328 -90 1307 q 40 1350 -3 1350 z "},"्":{"ha":0,"x_min":-436,"x_max":85,"o":"m 33 -378 q -425 -165 -178 -232 q -335 -26 -436 -39 q -112 -143 -231 -62 q 83 -308 6 -224 q 33 -378 85 -350 z "},"ॐ":{"ha":1532,"x_min":103,"x_max":1408,"o":"m 779 450 l 847 469 q 1003 608 899 503 q 1160 744 1108 714 q 1408 394 1400 675 q 1283 169 1379 274 q 1044 0 1188 64 q 958 52 982 14 q 960 133 933 90 q 1163 240 1079 168 q 1283 404 1246 313 q 1249 529 1274 482 q 1176 606 1225 576 q 1060 497 1142 576 q 925 378 979 418 l 864 375 q 896 297 896 332 q 764 101 894 196 q 474 0 633 6 q 247 128 342 44 q 103 325 153 211 q 163 413 121 388 q 258 422 206 439 q 492 110 333 196 q 648 182 582 132 q 739 294 714 232 q 643 431 721 364 q 525 392 579 403 q 479 438 490 407 q 490 496 468 468 q 675 576 618 526 q 761 711 732 626 q 688 783 736 767 q 581 747 628 774 q 471 672 533 721 q 382 728 408 686 q 382 810 356 771 q 735 911 556 911 q 933 731 878 875 q 867 592 921 658 q 731 476 813 526 q 779 450 733 475 m 1394 963 q 1255 856 1346 897 q 1084 814 1164 814 q 917 896 1004 814 q 807 1082 831 978 q 975 1149 876 1192 q 1085 896 978 982 q 1279 1035 1214 918 q 1349 1026 1318 1046 q 1394 963 1379 1007 m 1214 1052 q 1214 1036 1214 1052 q 1190 996 1214 1019 q 1134 972 1167 972 q 1078 996 1101 972 q 1054 1052 1054 1019 q 1078 1108 1054 1085 q 1134 1131 1101 1131 q 1190 1108 1167 1131 q 1214 1052 1214 1085 z "},"क़":{"ha":1079,"x_min":-26,"x_max":1293,"o":"m 756 790 l 621 529 l 633 519 q 721 610 664 550 q 803 694 778 669 q 994 667 918 717 q 1069 515 1069 618 q 994 322 1069 413 q 774 135 918 232 q 721 200 706 161 q 856 343 817 275 q 896 486 896 411 q 873 551 896 526 q 808 582 850 576 q 643 431 713 497 l 603 15 q 494 5 561 -7 q 379 57 428 17 l 417 217 l 472 314 l 458 326 q 281 132 365 232 q 98 188 168 135 q 28 336 28 240 q 135 591 28 469 q 369 713 242 713 q 417 690 390 713 q 460 647 444 667 q 506 588 476 628 l 513 590 l 550 790 l -6 790 l -26 811 q 15 865 -8 849 l 564 865 l 572 907 q 769 865 721 918 l 1276 865 l 1293 847 q 1257 790 1283 808 l 756 790 m 382 604 q 271 508 322 590 q 219 346 219 426 q 268 240 219 265 q 474 439 367 329 l 486 489 q 382 604 426 589 m 42 10 q 42 29 42 10 q 69 74 42 47 q 133 100 96 100 q 197 74 171 100 q 224 10 224 47 q 197 -53 224 -26 q 133 -79 171 -79 q 69 -53 96 -79 q 42 10 42 -26 z "},"ख़":{"ha":1226,"x_min":-14,"x_max":1440,"o":"m 482 676 q 462 716 479 697 q 417 735 444 735 q 347 715 389 735 q 272 661 304 694 q 194 708 221 676 q 181 772 168 740 q 185 778 182 774 q 192 785 189 782 q 199 790 196 788 l 8 790 l -14 811 q 28 865 3 847 l 1033 865 l 1042 907 q 1239 865 1190 918 l 1424 865 l 1440 847 q 1403 790 1431 808 l 1225 790 l 1131 599 l 1072 15 q 963 5 1029 -7 q 849 57 897 17 l 889 228 l 926 278 l 913 293 q 685 143 838 221 q 421 51 532 65 q 204 155 308 72 q 24 344 100 238 q 69 446 31 404 q 163 489 108 488 l 194 453 q 399 535 317 472 q 482 676 481 599 m 883 607 q 791 526 831 596 q 751 411 751 456 q 808 331 751 331 q 884 370 843 331 q 946 460 925 410 l 954 497 q 883 607 932 592 m 638 694 q 507 487 638 583 q 228 376 376 390 l 222 365 q 457 182 368 199 q 721 268 529 185 l 715 275 q 624 312 657 278 q 592 396 592 346 q 676 603 592 493 q 868 713 761 713 q 978 599 939 713 l 985 601 l 1019 790 l 585 790 q 638 694 638 738 m 15 9 q 15 27 15 9 q 42 72 15 46 q 107 99 69 99 q 171 72 144 99 q 197 9 197 46 q 171 -54 197 -28 q 107 -81 144 -81 q 42 -54 69 -81 q 15 9 15 -28 z "},"ग़":{"ha":894,"x_min":-14,"x_max":1106,"o":"m 1089 865 l 1106 847 q 1068 790 1096 808 l 899 790 l 803 599 l 746 15 q 638 5 704 -7 q 522 57 571 17 l 689 790 l 496 790 q 454 494 485 650 q 386 238 424 338 q 210 164 332 174 q -4 315 57 192 q 47 424 1 392 q 311 542 164 469 q 321 665 318 596 l 292 790 l 7 790 l -14 811 q 28 865 0 847 l 706 865 l 715 907 q 913 865 864 918 l 1089 865 m 290 440 l 133 361 q 226 285 168 308 l 240 293 q 290 440 271 358 m 56 -20 q 56 -2 56 -20 q 82 43 56 17 q 147 69 108 69 q 211 43 185 69 q 238 -20 238 17 q 211 -83 238 -57 q 147 -110 185 -110 q 82 -83 108 -110 q 56 -20 56 -57 z "},"ज़":{"ha":1024,"x_min":-17,"x_max":1238,"o":"m 1221 865 l 1238 847 q 1200 790 1228 808 l 1029 790 l 933 599 l 875 15 q 767 5 833 -7 q 651 57 700 17 l 731 396 l 786 489 l 778 497 q 603 425 692 426 l 565 433 l 558 425 l 575 385 q 515 263 571 322 q 388 170 460 203 q 263 140 317 138 q 112 243 175 156 q 51 435 49 331 q 105 568 61 499 q 215 681 149 638 q 305 656 271 682 q 340 586 339 631 q 226 415 236 504 q 283 253 213 301 q 392 314 342 265 q 446 406 442 363 q 393 450 440 431 q 446 553 408 515 q 531 586 483 590 q 606 525 574 535 q 781 619 697 531 l 818 790 l 4 790 l -17 811 q 25 865 1 849 l 835 865 l 844 907 q 1043 865 994 918 l 1221 865 m 94 -20 q 94 -2 94 -20 q 121 43 94 17 q 185 69 147 69 q 250 43 224 69 q 276 -20 276 17 q 250 -83 276 -57 q 185 -110 224 -110 q 121 -83 147 -110 q 94 -20 94 -57 z "},"ड़":{"ha":692,"x_min":-14,"x_max":906,"o":"m 889 865 l 906 847 q 868 790 896 808 l 538 790 q 613 729 585 761 q 608 651 624 697 q 557 575 592 604 q 438 527 501 544 q 322 497 375 510 q 246 476 269 483 l 242 461 q 416 404 290 438 q 592 349 542 371 q 618 263 622 318 q 578 151 614 207 q 356 61 508 101 q 65 14 204 21 q 8 99 18 53 q 29 171 -1 144 q 276 196 154 172 q 472 268 399 219 l 471 279 q 287 341 419 304 q 94 410 154 378 q 94 515 72 457 q 172 604 115 572 q 489 693 401 650 l 493 706 q 360 790 464 740 l 8 790 l -14 811 q 28 865 3 847 l 889 865 m 157 -119 q 157 -100 157 -119 q 183 -56 157 -82 q 248 -29 210 -29 q 313 -56 286 -29 q 339 -119 339 -82 q 313 -182 339 -156 q 248 -208 286 -208 q 183 -182 210 -208 q 157 -119 157 -156 z "},"ढ़":{"ha":825,"x_min":0,"x_max":1025,"o":"m 260 210 l 538 415 q 699 366 631 415 q 768 267 768 317 q 699 161 768 218 q 541 69 631 104 q 389 33 451 33 q 169 113 274 38 q 26 292 65 189 q 85 433 26 383 q 293 541 128 458 q 513 665 458 624 l 518 679 q 379 790 485 726 l 22 790 l 0 811 q 43 865 17 847 l 1008 865 l 1025 847 q 989 790 1015 808 l 546 790 q 658 710 617 751 q 619 578 681 649 q 469 483 575 539 q 290 383 364 428 q 215 304 215 338 q 260 210 215 258 m 600 256 q 531 303 579 288 q 318 160 494 282 q 390 122 353 136 q 523 172 467 136 q 600 256 579 208 m 221 -120 q 221 -102 221 -120 q 247 -57 221 -83 q 312 -31 274 -31 q 376 -57 350 -31 q 403 -120 403 -83 q 376 -183 403 -157 q 312 -210 350 -210 q 247 -183 274 -210 q 221 -120 221 -157 z "},"फ़":{"ha":1163,"x_min":-14,"x_max":1360,"o":"m 1103 367 q 1031 291 1081 333 q 948 226 981 249 q 847 158 915 203 l 792 222 q 942 362 896 299 q 989 506 989 425 q 903 607 989 588 q 686 426 821 540 l 646 15 q 536 5 603 -7 q 421 57 469 17 l 497 386 l 533 453 l 522 463 q 240 211 378 326 q 108 242 168 213 q 35 322 47 272 q 168 790 94 572 l 8 790 l -14 811 q 28 865 3 847 l 606 865 l 615 907 q 813 865 764 918 l 1343 865 l 1360 847 q 1322 790 1350 808 l 799 790 l 704 599 l 661 522 l 674 510 q 900 725 750 581 q 1091 686 1018 739 q 1164 542 1164 633 q 1103 367 1164 451 m 540 576 l 589 790 l 390 790 l 296 629 q 222 346 244 457 l 236 339 q 540 576 401 449 m 65 53 q 65 72 65 53 q 92 117 65 90 q 156 143 118 143 q 219 117 193 143 q 246 53 246 90 q 219 -11 246 15 q 156 -37 193 -37 q 92 -11 118 -37 q 65 53 65 15 z "},"ॠ":{"ha":1269,"x_min":-14,"x_max":1485,"o":"m 71 592 q 153 669 101 638 q 255 700 206 700 q 388 631 304 700 q 557 457 471 563 l 571 471 l 549 507 l 614 790 l 8 790 l -14 811 q 28 865 3 847 l 631 865 l 640 907 q 838 865 789 918 l 1468 865 l 1485 847 q 1447 790 1475 808 l 825 790 l 729 599 l 717 471 q 831 554 769 504 q 793 615 793 589 q 897 688 843 663 q 992 704 951 714 q 1006 583 1036 658 q 1125 571 1058 568 q 1184 513 1169 556 q 1178 424 1199 471 q 947 329 1053 404 q 961 308 954 314 q 1068 336 1028 314 q 1115 290 1101 324 q 1108 219 1128 257 q 931 119 1007 189 q 965 81 943 94 q 1153 179 1069 96 q 1199 153 1183 178 q 1208 89 1214 129 q 961 0 1110 6 q 858 47 897 10 q 813 138 819 83 q 889 209 842 181 q 981 247 936 238 l 972 258 q 870 274 910 246 q 832 357 831 301 q 1064 478 917 444 l 1063 490 l 924 513 q 707 382 739 400 l 671 15 q 563 5 629 -7 q 447 57 496 17 l 486 222 l 538 293 l 522 307 q 339 151 460 240 q 106 0 218 63 q 21 61 46 21 q 18 139 -4 101 q 499 403 293 225 q 296 557 414 488 l 228 465 q 71 592 68 499 z "},"ॡ":{"ha":1075,"x_min":-10,"x_max":1239,"o":"m 1222 865 l 1239 847 q 1201 790 1229 808 l 1011 790 q 938 585 1018 699 q 994 499 982 544 q 910 349 968 410 q 751 226 853 289 l 757 214 q 851 240 814 225 q 901 205 885 233 q 903 143 917 176 q 719 33 796 101 l 729 19 q 942 119 842 42 q 988 94 972 118 q 1001 31 1004 69 q 877 -41 961 -8 q 722 -76 793 -74 q 583 31 593 -60 q 740 136 636 106 l 738 144 q 627 156 665 126 q 596 236 589 185 q 843 471 807 350 q 803 501 825 500 q 681 378 763 450 q 522 256 599 307 q 387 297 440 254 q 343 381 333 339 q 403 454 374 413 q 374 515 396 488 q 324 546 353 543 q 235 476 276 532 q 186 365 193 419 q 249 236 207 290 q 376 138 290 182 q 368 58 399 101 q 260 0 338 14 q 88 160 161 57 q 14 351 14 263 q 92 511 15 422 q 271 651 168 600 q 415 650 350 661 q 496 586 469 624 q 536 485 522 549 q 479 392 490 415 l 497 378 q 768 640 643 488 q 853 631 810 644 q 900 790 911 715 l 11 790 l -10 811 q 32 865 8 849 l 1222 865 z "},"ॢ":{"ha":0,"x_min":-536,"x_max":-7,"o":"m -14 -322 q -77 -370 -35 -347 q -158 -393 -119 -393 q -238 -362 -196 -393 q -281 -306 -281 -331 q -255 -258 -281 -282 q -197 -217 -229 -235 q -103 -131 -112 -168 q -125 -104 -100 -110 q -247 -208 -171 -158 q -326 -186 -292 -211 q -358 -135 -360 -161 q -332 -104 -340 -119 q -367 -81 -344 -82 q -405 -119 -386 -93 q -428 -168 -424 -144 q -393 -233 -414 -207 q -329 -281 -372 -258 q -337 -327 -317 -301 q -403 -358 -357 -353 q -497 -275 -457 -328 q -536 -181 -536 -222 q -494 -92 -536 -139 q -396 -17 -453 -44 q -303 -21 -335 -12 q -242 -85 -256 -43 q -265 -128 -246 -94 l -256 -135 q -150 -22 -201 -93 q -53 -53 -93 -21 q -7 -133 -14 -85 q -83 -228 -31 -185 q -136 -266 -103 -242 q -185 -303 -169 -290 q -160 -329 -179 -319 q -89 -267 -121 -312 q -14 -322 -19 -258 z "},"ॣ":{"ha":0,"x_min":-536,"x_max":7,"o":"m -403 -358 q -494 -276 -453 -331 q -536 -181 -536 -222 q -494 -93 -536 -140 q -396 -17 -451 -46 q -308 -19 -346 -11 q -242 -86 -258 -42 q -265 -128 -251 -108 l -258 -133 q -150 -22 -201 -87 q -63 -45 -101 -21 q -12 -107 -25 -69 q -147 -231 -46 -182 l -144 -237 q -78 -221 -111 -235 q -54 -283 -36 -237 q -158 -346 -92 -297 l -154 -354 q -33 -293 -87 -344 q -1 -342 7 -293 q -69 -381 -24 -362 q -154 -403 -115 -400 q -231 -342 -221 -387 q -129 -275 -204 -304 l -131 -271 q -202 -273 -174 -286 q -231 -229 -231 -260 q -104 -125 -126 -174 q -124 -104 -114 -106 q -246 -208 -171 -158 q -326 -186 -290 -212 q -358 -133 -361 -160 q -332 -103 -336 -122 q -367 -81 -344 -82 q -428 -168 -414 -110 q -394 -232 -414 -207 q -329 -281 -374 -257 q -336 -328 -315 -303 q -403 -358 -357 -353 z "},"।":{"ha":575,"x_min":219,"x_max":569,"o":"m 356 644 l 376 988 q 569 996 515 1053 l 474 594 q 413 17 432 260 q 306 3 363 -6 q 219 46 249 13 q 356 644 308 383 z "},"॥":{"ha":914,"x_min":219,"x_max":908,"o":"m 356 644 l 376 988 q 569 996 515 1053 l 474 594 q 413 17 432 260 q 306 3 363 -6 q 219 46 249 13 q 356 644 308 383 m 693 644 l 715 988 q 908 996 854 1053 l 811 594 q 751 17 768 229 q 644 3 701 -6 q 557 46 588 13 q 693 644 646 383 z "},"०":{"ha":706,"x_min":50,"x_max":678,"o":"m 446 718 q 392 703 414 715 q 208 417 261 599 q 303 213 217 290 q 526 438 483 271 q 513 579 536 501 q 446 718 490 657 m 285 99 q 128 204 206 99 q 50 397 50 310 q 133 607 50 483 q 299 783 217 731 q 521 831 429 846 q 639 643 603 742 q 678 415 675 544 q 533 199 658 299 q 285 99 408 99 z "},"१":{"ha":693,"x_min":88,"x_max":635,"o":"m 567 538 q 534 476 567 538 q 433 295 500 414 q 365 149 365 176 q 389 122 365 122 q 474 153 417 122 q 576 222 531 185 q 625 197 615 222 q 631 169 628 188 q 368 0 544 71 q 176 139 179 26 q 292 351 176 175 q 367 481 342 429 l 431 529 l 418 547 q 276 485 350 510 q 88 669 94 554 q 226 841 122 760 q 433 922 331 922 q 574 851 515 921 q 635 700 633 781 q 567 538 635 661 m 426 804 q 333 759 388 804 q 256 665 278 714 q 315 585 267 611 q 446 632 371 599 q 456 775 485 706 q 426 804 444 804 z "},"२":{"ha":697,"x_min":29,"x_max":715,"o":"m 447 921 q 632 824 549 921 q 713 640 715 728 q 590 451 711 551 q 311 293 469 350 q 508 14 383 108 q 473 -66 513 -35 q 368 -97 433 -97 q 200 264 246 64 q 126 254 167 257 q 47 421 29 332 q 142 476 82 461 q 263 461 201 490 q 276 400 271 419 q 557 629 500 483 q 438 792 544 740 q 263 686 336 768 q 164 735 190 700 q 156 811 138 769 q 297 892 218 863 q 447 921 376 921 z "},"३":{"ha":731,"x_min":17,"x_max":732,"o":"m 413 414 l 310 365 q 238 465 253 404 q 257 556 224 525 q 382 542 374 542 q 514 637 474 593 q 568 747 554 681 q 517 796 546 779 q 292 704 401 776 q 210 761 233 725 q 206 839 186 797 q 543 918 363 918 q 732 744 681 875 q 479 497 692 582 l 486 485 q 674 325 676 444 q 550 134 674 221 q 300 33 426 47 l 199 161 l 185 147 q 251 -10 203 94 q 318 -183 299 -114 q 163 -242 304 -257 q 17 240 103 38 q 190 319 106 346 q 314 147 288 178 q 455 221 396 172 q 521 313 514 269 q 413 414 521 386 z "},"४":{"ha":758,"x_min":128,"x_max":801,"o":"m 314 154 q 432 167 393 146 q 418 365 446 278 q 290 321 361 356 q 314 154 278 229 m 643 824 q 801 889 736 882 q 638 692 750 840 q 544 358 604 525 q 465 97 556 201 q 214 124 349 47 q 185 271 183 185 q 226 438 188 357 q 215 574 224 476 q 203 721 206 672 q 128 829 175 796 q 356 761 221 861 q 643 824 497 824 z "},"५":{"ha":682,"x_min":28,"x_max":689,"o":"m 521 422 q 315 115 521 422 q 28 382 28 163 q 109 585 28 478 q 309 777 190 693 q 551 907 428 861 q 613 839 622 899 q 329 622 456 750 q 203 390 203 494 q 283 258 203 308 q 489 565 375 374 q 630 551 576 576 q 689 472 683 526 q 578 137 651 335 q 440 -197 506 -61 q 333 -131 336 -200 q 536 415 474 167 l 521 422 z "},"६":{"ha":731,"x_min":50,"x_max":671,"o":"m 389 556 q 503 576 439 560 q 515 486 535 544 q 433 392 494 428 q 333 433 392 408 q 213 303 225 396 q 249 212 213 257 q 346 146 285 167 q 493 326 439 236 q 661 261 579 361 q 494 -242 564 43 q 344 -194 363 -265 q 418 -23 368 -131 q 490 151 468 85 l 475 164 l 357 33 q 131 124 213 51 q 50 277 50 196 q 108 417 50 358 q 278 504 165 476 l 289 517 q 158 608 203 557 q 113 738 114 660 q 344 918 183 871 q 661 839 526 918 q 638 761 671 797 q 543 704 606 725 q 342 801 447 781 q 278 753 306 783 q 300 642 281 678 q 389 556 319 606 z "},"७":{"ha":906,"x_min":60,"x_max":901,"o":"m 736 383 l 724 408 q 569 338 651 371 q 458 404 500 364 q 403 489 415 444 q 419 653 379 576 q 676 768 518 760 q 901 494 888 708 q 823 318 881 408 q 685 154 765 228 q 503 34 606 81 q 300 -10 400 -12 q 141 159 200 50 q 71 388 82 268 q 83 629 60 508 q 160 844 106 750 q 272 861 215 875 q 333 790 328 847 q 233 464 257 669 q 247 263 221 365 q 340 86 274 160 q 524 180 446 117 q 668 343 603 243 l 736 383 m 622 660 l 589 650 q 547 585 558 625 q 552 504 536 546 q 610 438 568 463 q 746 481 711 468 q 711 591 739 551 q 622 660 683 631 z "},"८":{"ha":781,"x_min":31,"x_max":740,"o":"m 739 311 q 558 111 675 213 q 347 10 442 10 q 147 113 253 10 q 31 325 40 215 q 269 630 101 468 q 594 890 436 792 q 664 832 651 896 q 213 321 372 585 q 376 125 232 188 q 672 369 531 190 q 726 354 711 367 q 739 311 740 342 z "},"९":{"ha":558,"x_min":-3,"x_max":613,"o":"m 83 633 q 198 810 83 722 q 424 897 313 897 q 574 792 535 897 q 547 547 613 686 l 343 443 q 453 272 436 306 q 460 197 469 238 q 418 118 450 156 q 242 -8 346 56 q 56 -101 139 -71 q 9 -67 21 -93 q 10 -18 -3 -42 q 319 194 225 85 l 325 218 q 189 442 296 292 q 83 633 82 592 m 301 506 l 432 588 q 451 695 456 638 q 408 775 447 753 q 309 728 356 767 q 239 625 263 689 q 301 506 257 574 z "},"॰":{"ha":503,"x_min":69,"x_max":454,"o":"m 281 522 q 196 385 203 467 q 235 292 197 336 q 331 410 313 335 q 281 522 324 465 m 296 571 q 397 518 344 571 q 451 419 450 465 q 377 302 454 361 q 221 243 300 243 q 121 285 171 243 q 69 375 71 328 q 140 507 69 443 q 296 571 210 571 z "},"ॲ":{"ha":1117,"x_min":-11,"x_max":1381,"o":"m 1061 947 q 908 1030 990 947 q 800 1215 825 1113 q 967 1282 869 1325 q 1072 1029 978 1107 q 1250 1189 1192 1051 q 1327 1185 1290 1204 q 1381 1122 1364 1167 q 1244 999 1333 1050 q 1061 947 1156 947 m 432 406 q 351 426 417 415 q 272 414 314 419 q 217 493 228 443 q 232 572 206 543 q 325 583 267 575 q 518 772 486 649 l 513 782 q 283 693 393 790 q 199 749 226 711 q 192 822 172 788 q 525 917 344 926 q 681 767 643 886 q 388 518 633 585 l 390 510 q 563 465 493 501 q 875 629 790 582 l 913 790 l 771 790 l 749 811 q 790 865 765 847 l 929 865 l 939 907 q 1136 865 1088 918 l 1314 865 l 1331 847 q 1294 790 1321 808 l 1124 790 l 1026 599 l 969 15 q 861 5 928 -7 q 746 57 794 17 l 839 468 l 888 526 l 881 538 q 632 415 717 456 q 671 331 671 374 q 589 181 671 254 q 401 67 507 108 q 211 28 294 26 q 58 82 128 35 q -11 174 -11 129 q 8 218 -11 197 q 75 263 28 239 q 165 303 122 286 q 292 351 207 319 q 432 406 376 383 m 247 132 q 402 194 314 140 q 507 311 490 249 q 492 346 503 331 q 181 181 226 211 q 204 150 182 165 q 247 132 226 135 z "},"​":{"ha":0,"x_min":0,"x_max":0,"o":""},"‌":{"ha":0,"x_min":-32,"x_max":33,"o":"m 33 -319 l -32 -319 l -32 1126 l 33 1126 l 33 -319 z "},"‍":{"ha":0,"x_min":-176,"x_max":179,"o":"m 33 -319 l -32 -319 l -32 882 l -128 781 l -174 826 l -44 956 l -176 1088 l -131 1133 l 1 1001 l 135 1133 l 179 1089 l 46 956 l 179 824 l 133 778 l 33 882 l 33 -319 z "},"–":{"ha":910,"x_min":83,"x_max":860,"o":"m 842 531 q 854 485 860 521 q 819 414 849 449 l 99 401 q 88 449 83 418 q 117 513 93 481 l 479 506 l 842 531 z "},"—":{"ha":1371,"x_min":83,"x_max":1321,"o":"m 1303 531 q 1315 485 1321 521 q 1281 414 1310 449 l 99 401 q 88 449 83 418 q 117 513 93 481 l 739 506 l 1303 531 z "},"‘":{"ha":475,"x_min":207,"x_max":454,"o":"m 368 1301 q 451 1276 425 1313 l 390 1132 l 454 950 q 376 890 421 906 q 295 887 332 875 q 238 926 258 899 q 368 1301 207 1108 z "},"’":{"ha":474,"x_min":219,"x_max":499,"o":"m 294 878 q 219 918 236 878 l 308 1053 l 278 1264 q 350 1299 313 1292 q 417 1294 388 1306 q 499 1211 478 1268 q 437 1035 492 1124 q 294 878 382 947 z "},"‚":{"ha":606,"x_min":-72,"x_max":251,"o":"m 251 72 q 161 -92 229 -12 q -3 -225 93 -171 q -72 -174 -60 -214 l 38 -56 l 40 160 q 140 181 96 190 q 214 141 185 171 q 251 72 243 111 z "},"“":{"ha":797,"x_min":207,"x_max":778,"o":"m 368 1301 q 451 1276 425 1313 l 390 1132 l 454 950 q 376 890 421 906 q 295 887 332 875 q 238 926 258 899 q 368 1301 207 1108 m 692 1301 q 775 1276 749 1313 l 714 1132 l 778 950 q 700 890 744 906 q 619 887 656 875 q 561 926 582 899 q 692 1301 531 1108 z "},"”":{"ha":797,"x_min":219,"x_max":822,"o":"m 618 878 q 543 918 560 878 l 632 1053 l 601 1264 q 674 1299 636 1292 q 740 1294 711 1306 q 822 1211 801 1268 q 760 1035 815 1124 q 618 878 706 947 m 294 878 q 219 918 236 878 l 308 1053 l 278 1264 q 350 1299 313 1292 q 417 1294 388 1306 q 499 1211 478 1268 q 437 1035 492 1124 q 294 878 382 947 z "},"„":{"ha":726,"x_min":-76,"x_max":617,"o":"m 403 -56 l 406 160 q 506 181 461 190 q 579 141 550 171 q 617 72 608 111 q 526 -92 594 -12 q 363 -225 458 -171 q 293 -174 306 -214 l 403 -56 m 33 -56 l 36 160 q 136 181 92 190 q 210 141 181 171 q 247 72 239 111 q 157 -92 225 -12 q -7 -225 89 -171 q -76 -174 -64 -214 l 33 -56 z "},"†":{"ha":669,"x_min":86,"x_max":729,"o":"m 483 822 l 683 849 q 665 721 729 804 l 458 732 l 219 -439 q 136 -431 182 -460 l 315 722 l 315 724 l 131 710 q 144 836 86 763 l 322 813 l 344 1107 q 583 1125 489 1176 l 483 822 z "},"‡":{"ha":685,"x_min":-71,"x_max":744,"o":"m 474 749 l 385 365 l 340 -26 l 529 -11 q 514 -139 571 -68 l 332 -114 l 313 -414 q 85 -432 174 -483 l 179 -125 l -25 -151 q -8 -24 -71 -108 l 201 -35 l 289 357 l 333 740 l 146 725 q 160 853 101 781 l 342 828 l 360 1128 q 589 1146 500 1197 l 496 839 l 700 865 q 682 738 744 821 l 474 749 z "},"•":{"ha":611,"x_min":101,"x_max":549,"o":"m 549 500 q 411 372 493 421 q 262 322 329 322 q 152 363 194 322 q 101 469 110 404 q 191 645 118 564 q 350 736 264 726 q 474 660 411 736 q 549 500 536 585 z "},"…":{"ha":1038,"x_min":10,"x_max":926,"o":"m 926 100 q 850 28 894 56 q 767 0 806 0 q 706 23 729 0 q 679 82 682 46 q 728 181 688 136 q 817 232 768 226 q 885 190 850 232 q 926 100 919 147 m 592 100 q 515 28 560 56 q 433 0 471 0 q 371 23 394 0 q 344 82 347 46 q 393 181 353 136 q 482 232 433 226 q 550 190 515 232 q 592 100 585 147 m 257 100 q 181 28 225 56 q 98 0 136 0 q 36 23 60 0 q 10 82 13 46 q 58 181 18 136 q 147 232 99 226 q 215 190 181 232 q 257 100 250 147 z "},"‰":{"ha":1590,"x_min":88,"x_max":1547,"o":"m 556 540 l 842 1179 q 931 1178 900 1188 q 981 1136 963 1168 l 279 -118 q 156 -65 175 -128 l 556 540 m 1339 493 q 1257 285 1285 429 q 1240 117 1238 186 q 1300 63 1256 82 q 1378 254 1354 125 q 1394 453 1401 383 q 1339 493 1378 486 m 1276 -12 q 1144 67 1197 -12 q 1112 280 1090 146 q 1194 496 1133 414 q 1345 577 1256 578 q 1491 492 1435 576 q 1527 278 1547 408 q 1440 67 1507 147 q 1276 -12 1374 -12 m 865 493 q 788 305 811 426 q 768 117 764 183 q 828 63 783 81 q 904 256 879 122 q 922 453 929 389 q 865 493 903 486 m 803 -12 q 670 67 724 -12 q 639 281 617 147 q 722 497 661 415 q 872 577 782 578 q 1019 492 963 576 q 1055 278 1075 408 q 967 67 1035 147 q 803 -12 900 -12 m 392 911 q 335 951 375 944 q 254 742 281 882 q 238 575 235 646 q 297 521 253 538 q 381 739 350 581 q 392 911 399 842 m 274 444 q 141 524 194 444 q 109 738 88 604 q 192 954 131 872 q 342 1035 253 1036 q 488 951 432 1035 q 524 735 544 867 q 438 524 504 604 q 274 444 371 444 z "},"‹":{"ha":504,"x_min":82,"x_max":483,"o":"m 397 336 q 387 232 411 281 q 321 183 363 183 l 82 483 q 99 557 82 521 l 278 692 l 428 810 q 477 750 471 793 q 446 649 483 707 l 200 492 l 283 418 l 397 336 z "},"›":{"ha":506,"x_min":65,"x_max":465,"o":"m 150 657 q 161 761 136 713 q 226 810 186 810 l 465 510 q 449 435 465 472 l 269 303 l 119 183 q 71 242 76 200 q 101 344 65 285 l 347 503 l 263 575 l 150 657 z "},"⁄":{"ha":724,"x_min":-15,"x_max":810,"o":"m 385 540 l 671 1179 q 760 1178 729 1188 q 810 1136 792 1168 l 108 -118 q -15 -65 4 -128 l 385 540 z "},"₨":{"ha":1551,"x_min":82,"x_max":1492,"o":"m 1254 700 q 1142 640 1193 681 q 1092 573 1092 600 q 1147 513 1092 546 q 1270 448 1201 479 q 1403 364 1339 417 q 1483 254 1468 311 q 1355 72 1454 139 q 1110 0 1256 6 q 949 67 1018 17 q 854 183 879 118 q 923 269 883 243 q 1022 276 963 294 q 1055 168 1033 210 q 1119 83 1076 126 q 1247 142 1197 100 q 1297 228 1297 185 q 1125 344 1297 264 q 995 426 1058 375 q 915 532 932 476 q 1052 711 951 642 q 1279 789 1153 781 q 1492 613 1442 750 q 1444 550 1488 569 q 1325 543 1401 531 q 1254 700 1311 636 m 165 1001 q 467 1040 289 1040 q 759 958 646 1040 q 870 766 872 876 q 811 585 868 656 q 619 446 754 515 q 464 431 546 435 q 587 271 513 326 q 803 178 661 215 q 795 74 831 125 q 685 0 760 24 q 478 180 556 68 q 381 428 401 292 l 357 428 q 315 21 342 242 q 192 3 274 -7 q 82 53 111 14 q 228 688 165 326 l 240 904 l 174 907 q 149 958 151 929 q 165 1001 147 988 m 569 550 q 650 643 625 596 q 675 758 675 690 q 617 874 675 825 q 444 924 558 924 l 369 603 q 366 557 368 588 q 363 511 364 526 q 569 550 464 517 z "},"€":{"ha":1001,"x_min":35,"x_max":964,"o":"m 192 415 q 190 456 190 426 q 197 529 190 485 l 76 522 q 62 567 58 539 q 89 621 65 594 l 217 611 q 294 790 242 688 q 722 1047 483 990 q 876 966 821 1018 q 964 826 931 914 q 885 760 942 779 q 763 767 828 742 q 735 858 749 825 q 688 932 721 892 l 663 926 q 421 624 488 808 l 719 665 q 742 623 744 653 q 714 558 740 593 l 399 540 q 392 467 392 496 q 393 428 392 439 l 700 469 q 723 428 725 458 q 694 364 721 399 l 406 346 q 603 139 444 210 q 869 300 749 192 q 934 281 913 306 q 953 217 956 257 q 802 97 900 156 q 597 0 704 38 q 203 333 263 68 l 54 325 q 38 372 35 343 q 67 426 42 400 l 192 415 z "},"₹":{"ha":840,"x_min":86,"x_max":907,"o":"m 364 969 q 476 1015 410 1015 q 589 971 542 1015 l 893 990 q 902 954 907 981 q 875 894 897 928 l 647 890 q 681 756 678 826 l 853 767 q 836 669 883 743 l 669 667 q 529 483 636 556 q 283 411 422 411 l 332 278 l 572 161 q 546 48 589 96 q 418 0 503 0 q 227 203 308 93 q 115 418 146 313 q 151 485 131 464 q 210 518 171 507 q 396 532 293 497 q 482 664 460 583 l 108 658 q 119 750 86 689 l 475 743 l 490 744 q 439 888 488 835 l 147 882 q 160 974 124 913 l 364 969 z "},"₺":{"ha":732,"x_min":46,"x_max":760,"o":"m 686 860 q 706 817 706 853 q 683 743 706 782 l 447 692 l 419 589 l 667 657 q 686 615 686 651 q 663 540 686 579 l 389 481 l 290 118 l 429 142 q 629 319 524 190 q 728 274 697 325 q 736 163 760 224 q 281 0 568 50 q 101 144 132 32 q 211 440 163 290 l 64 408 q 47 453 47 422 q 64 521 46 485 l 246 550 q 274 653 265 619 l 83 611 q 66 656 67 625 q 83 724 65 688 l 292 757 l 296 986 q 540 1014 449 1069 l 479 803 l 686 860 z "},"₽":{"ha":865,"x_min":-53,"x_max":872,"o":"m 165 1001 q 467 1040 289 1040 q 759 958 646 1040 q 870 764 872 876 q 807 579 868 651 q 607 446 746 507 q 356 417 511 426 q 346 299 350 339 l 594 329 q 613 289 614 321 q 585 222 613 257 l 336 208 q 315 21 329 131 q 192 3 274 -7 q 82 53 111 14 q 124 197 107 136 l -15 189 q -11 292 -53 229 l 149 292 q 163 352 153 313 q 175 407 172 392 q 44 406 126 406 q 23 450 24 425 q 36 489 22 475 q 193 494 142 492 q 228 688 208 571 l 240 904 l 174 907 q 149 958 151 929 q 165 1001 147 988 m 569 550 q 650 643 625 596 q 675 758 675 690 q 617 874 675 825 q 444 924 558 924 l 369 603 q 366 556 368 588 q 363 508 364 525 q 569 550 489 525 z "},"ℓ":{"ha":636,"x_min":39,"x_max":696,"o":"m 351 168 l 368 157 q 525 254 426 185 q 567 201 569 254 q 540 174 554 188 q 514 149 525 160 q 484 123 503 138 q 456 101 465 108 q 424 76 447 93 q 393 53 401 58 q 357 26 385 47 q 321 0 329 6 q 197 47 233 18 q 150 122 161 75 q 244 493 200 313 q 94 447 174 467 q 76 532 39 485 l 261 565 q 349 971 317 807 q 567 1140 432 1108 q 660 1053 631 1113 q 696 885 689 993 q 418 575 617 694 q 351 168 406 503 m 586 875 q 522 1013 576 963 q 436 672 481 893 q 586 875 544 765 z "},"™":{"ha":1163,"x_min":103,"x_max":1222,"o":"m 1068 1026 q 1156 1039 1110 1039 q 1222 1022 1201 1039 l 1160 781 q 1122 453 1139 619 q 1038 444 1092 436 q 974 475 985 451 q 1053 825 1033 689 l 921 599 q 814 618 863 575 q 747 825 772 710 q 704 453 738 760 q 620 444 675 436 q 553 475 565 451 q 639 865 613 672 l 649 1017 q 729 1039 686 1039 q 801 1019 772 1039 q 860 740 818 867 l 886 696 l 982 840 l 1068 1026 m 572 926 l 431 940 l 381 740 q 369 597 378 693 q 356 453 360 501 q 269 444 324 436 q 201 475 214 451 q 288 836 260 661 l 292 939 l 140 922 q 129 1015 103 968 q 583 1022 361 1032 q 594 982 596 1011 q 572 926 592 953 z "},"Ω":{"ha":1269,"x_min":8,"x_max":1207,"o":"m 785 1001 q 946 932 861 1001 q 1083 754 1031 863 q 1117 544 1135 646 q 1034 335 1100 443 q 883 142 968 226 q 1125 199 1011 150 q 1138 35 1207 168 q 746 3 958 -25 q 699 132 682 75 q 873 335 813 243 q 965 536 933 428 q 910 754 957 669 q 751 893 863 839 q 491 723 596 836 q 365 486 386 610 q 362 428 357 461 q 369 374 367 396 q 385 324 371 353 q 407 278 399 296 q 433 235 415 260 q 462 196 451 210 q 490 160 472 182 q 515 128 507 139 q 499 58 517 92 q 457 8 481 24 q 26 17 203 -39 q 24 121 8 76 q 83 183 39 165 q 321 132 217 132 q 213 315 256 213 q 183 489 171 417 q 303 732 208 613 q 530 926 399 851 q 785 1001 661 1001 z "},"℮":{"ha":875,"x_min":54,"x_max":843,"o":"m 233 465 l 656 465 l 656 671 q 446 754 583 754 q 233 657 308 754 l 233 465 m 810 168 q 466 0 653 0 q 167 106 279 0 q 54 401 54 213 q 159 714 54 590 q 447 838 264 838 q 736 724 629 838 q 843 454 843 611 l 843 381 l 233 381 l 233 181 q 458 85 322 85 q 613 121 543 85 q 754 229 682 157 l 810 168 z "},"∂":{"ha":769,"x_min":49,"x_max":726,"o":"m 251 1161 q 599 942 472 1093 q 726 590 726 790 q 638 232 726 390 q 361 0 549 74 q 132 113 215 18 q 50 340 49 207 q 163 597 51 474 q 443 753 274 721 q 569 611 513 707 q 493 926 565 786 l 203 1078 q 251 1161 194 1144 m 240 331 q 354 107 240 179 q 561 485 526 251 q 425 636 501 590 q 287 503 333 583 q 240 331 240 422 z "},"∆":{"ha":996,"x_min":-1,"x_max":910,"o":"m 689 975 l 910 128 q 815 3 888 31 l 82 0 q 17 63 35 25 q 11 136 -1 101 l 472 996 q 689 975 589 1036 m 149 132 l 315 115 l 711 147 l 543 893 l 149 132 z "}}}
